<svg xmlns="http://www.w3.org/2000/svg" viewBox="0 0 128.57 50"><title>npm-logo</title><path d="M0,0H128.57V42.86H64.29V50H35.71V42.86H0ZM7.14,35.71H21.43V14.29h7.14V35.71h7.14V7.14H7.14ZM42.86,7.14V42.86H57.14V35.71H71.43V7.14Zm14.29,7.14h7.14V28.57H57.14ZM78.57,7.14V35.71H92.86V14.29H100V35.71h7.14V14.29h7.14V35.71h7.14V7.14Z" fill="#cb3837"/><polygon points="7.14 35.71 21.43 35.71 21.43 14.29 28.57 14.29 28.57 35.71 35.71 35.71 35.71 7.14 7.14 7.14 7.14 35.71" fill="#fff"/><path d="M42.86,7.14V42.86H57.14V35.71H71.43V7.14ZM64.29,28.57H57.14V14.29h7.14Z" fill="#fff"/><polygon points="78.57 7.14 78.57 35.71 92.86 35.71 92.86 14.29 100 14.29 100 35.71 107.14 35.71 107.14 14.29 114.28 14.29 114.28 35.71 121.43 35.71 121.43 7.14 78.57 7.14" fill="#fff"/></svg>