<svg xmlns="http://www.w3.org/2000/svg" viewBox="0 0 200 60.45"><title>Artboard 1</title><path d="M1.62.61h8.45a9.89,9.89,0,0,1,3.8.63,6.47,6.47,0,0,1,2.36,1.59A5.45,5.45,0,0,1,17.44,5a8.61,8.61,0,0,1,.34,2.33,6.21,6.21,0,0,1-.41,2.23,6.3,6.3,0,0,1-1.17,1.93A6.69,6.69,0,0,1,14.33,13a6.47,6.47,0,0,1-2.46.73l6.82,11H14.62L8.51,14.05H4.88V24.65H1.62ZM4.88,11.2H9.16A11.68,11.68,0,0,0,11,11a5,5,0,0,0,1.66-.56,3.05,3.05,0,0,0,1.17-1.17,3.94,3.94,0,0,0,.44-2,3.94,3.94,0,0,0-.44-2A3.05,3.05,0,0,0,12.7,4.18,5,5,0,0,0,11,3.61a11.68,11.68,0,0,0-1.89-.15H4.88Z" fill="#323232"/><path d="M22.38.61H37.9V3.66H25.64v7.16H37v3.06H25.64v7.71H38.51v3.06H22.38Z" fill="#323232"/><path d="M51.47.61h3l10.29,24h-3.8L58.5,18.71H47.06l-2.38,5.94h-3.8Zm5.84,15.24-4.48-11h-.07l-4.55,11Z" fill="#323232"/><path d="M83.51,5.81a6.74,6.74,0,0,0-2.58-2,7.71,7.71,0,0,0-3.22-.71A8.66,8.66,0,0,0,74,3.82,8.5,8.5,0,0,0,71.2,5.91,9.52,9.52,0,0,0,69.38,9a11.13,11.13,0,0,0-.64,3.82,10.54,10.54,0,0,0,.61,3.6,9,9,0,0,0,1.76,3,8.26,8.26,0,0,0,2.82,2,9.08,9.08,0,0,0,3.77.75,7.49,7.49,0,0,0,3.63-.85A7.78,7.78,0,0,0,84,19L86.73,21a11.11,11.11,0,0,1-1,1.07A9.58,9.58,0,0,1,84,23.51a12.77,12.77,0,0,1-2.7,1.22,11.6,11.6,0,0,1-3.65.52,11.84,11.84,0,0,1-5.14-1.09,12.59,12.59,0,0,1-7.21-11.34,14.07,14.07,0,0,1,.92-5.14,12.15,12.15,0,0,1,2.56-4.08,11.5,11.5,0,0,1,4-2.67A13.25,13.25,0,0,1,77.8,0a12.45,12.45,0,0,1,4.67.92,8.7,8.7,0,0,1,3.75,2.82Z" fill="#323232"/><path d="M96.42,3.66H88.67V.61h18.74V3.66H99.67v21H96.42Z" fill="#323232"/><path d="M119.77.61h8.39a15.57,15.57,0,0,1,4.46.58,11.94,11.94,0,0,1,3.33,1.54A9.82,9.82,0,0,1,138.29,5a12,12,0,0,1,1.48,2.58,13,13,0,0,1,.78,2.65,13.94,13.94,0,0,1,.24,2.45,12.09,12.09,0,0,1-.85,4.46,11.3,11.3,0,0,1-2.51,3.84,12.38,12.38,0,0,1-4.12,2.7,14.77,14.77,0,0,1-5.69,1h-7.84Zm3.26,21h4.11a13.5,13.5,0,0,0,3.92-.56,9.52,9.52,0,0,0,3.24-1.68,8,8,0,0,0,2.21-2.8,8.89,8.89,0,0,0,.81-3.92,11.73,11.73,0,0,0-.37-2.7A8.09,8.09,0,0,0,135.54,7a8.34,8.34,0,0,0-2.87-2.36,10.16,10.16,0,0,0-4.75-1H123Z" fill="#323232"/><path d="M156.48,25.26a13,13,0,0,1-5.06-1,11.75,11.75,0,0,1-4-2.67,12.33,12.33,0,0,1-2.58-4,13.2,13.2,0,0,1-.93-5,13.19,13.19,0,0,1,.93-5,12.3,12.3,0,0,1,2.58-4,11.75,11.75,0,0,1,4-2.67,13.7,13.7,0,0,1,10.12,0,11.77,11.77,0,0,1,4,2.67,12.32,12.32,0,0,1,2.58,4,13.17,13.17,0,0,1,.93,5,13.18,13.18,0,0,1-.93,5,12.35,12.35,0,0,1-2.58,4,11.77,11.77,0,0,1-4,2.67A13,13,0,0,1,156.48,25.26Zm0-3.05a8.74,8.74,0,0,0,6.59-2.82,9.06,9.06,0,0,0,1.83-3,11,11,0,0,0,0-7.44,9.06,9.06,0,0,0-1.83-3,9,9,0,0,0-13.17,0,9,9,0,0,0-1.83,3,10.67,10.67,0,0,0-.64,3.72,10.65,10.65,0,0,0,.64,3.72,9,9,0,0,0,1.83,3,8.74,8.74,0,0,0,6.59,2.82Z" fill="#323232"/><path d="M173.45.61h4.86l7.64,18.2h.14L193.65.61h4.86v24h-3.26V4.89h-.07l-8.11,19.76h-2.17L176.78,4.89h-.07V24.65h-3.26Z" fill="#323232"/><path d="M18.13,56.74a8.63,8.63,0,0,1-3.4,2.85,10.09,10.09,0,0,1-4.18.86,11.26,11.26,0,0,1-4.28-.79,9.63,9.63,0,0,1-3.33-2.22A10.16,10.16,0,0,1,.78,54a12.28,12.28,0,0,1,0-8.6,10.24,10.24,0,0,1,2.16-3.39,9.83,9.83,0,0,1,3.33-2.23A11,11,0,0,1,10.55,39a10.16,10.16,0,0,1,3.88.74,7.7,7.7,0,0,1,3.16,2.46L16,43.51a5.63,5.63,0,0,0-2.44-2.1,7.4,7.4,0,0,0-3-.66A9,9,0,0,0,7,41.43a8,8,0,0,0-2.72,1.9,8.4,8.4,0,0,0-1.73,2.85,10.7,10.7,0,0,0,0,7.09,8.39,8.39,0,0,0,1.73,2.85A8,8,0,0,0,7,58a8.94,8.94,0,0,0,3.59.69A7.49,7.49,0,0,0,13.79,58a7.82,7.82,0,0,0,1.51-1,6.25,6.25,0,0,0,1.27-1.43Z" fill="#323232"/><path d="M19.71,49.73a11.54,11.54,0,0,1,.78-4.29,10.24,10.24,0,0,1,2.16-3.39A9.83,9.83,0,0,1,26,39.82a11.76,11.76,0,0,1,8.56,0,9.83,9.83,0,0,1,3.33,2.23A10.24,10.24,0,0,1,40,45.44,12.27,12.27,0,0,1,40,54a10.16,10.16,0,0,1-2.16,3.4,9.64,9.64,0,0,1-3.33,2.22,12,12,0,0,1-8.56,0,9.63,9.63,0,0,1-3.33-2.22A10.16,10.16,0,0,1,20.49,54,11.64,11.64,0,0,1,19.71,49.73Zm1.9,0a10.18,10.18,0,0,0,.6,3.55,8.39,8.39,0,0,0,1.73,2.85A8,8,0,0,0,26.67,58a9.66,9.66,0,0,0,7.18,0,8,8,0,0,0,2.72-1.9,8.41,8.41,0,0,0,1.73-2.85,10.68,10.68,0,0,0,0-7.09,8.42,8.42,0,0,0-1.73-2.85,8,8,0,0,0-2.72-1.9,9.66,9.66,0,0,0-7.18,0,8,8,0,0,0-2.72,1.9,8.4,8.4,0,0,0-1.73,2.85A10.17,10.17,0,0,0,21.61,49.73Z" fill="#323232"/><path d="M44.85,39.53h2.85l7.44,17.12,7.44-17.12h2.71V59.93h-1.9V42h-.06l-7.78,18h-.84l-7.9-18h-.06v18h-1.9Z" fill="#323232"/><path d="M70.56,39.53h5.88a11,11,0,0,1,2.23.25,6.54,6.54,0,0,1,2.13.85,4.79,4.79,0,0,1,1.58,1.66A5.13,5.13,0,0,1,83,44.92a5.29,5.29,0,0,1-.51,2.39A4.69,4.69,0,0,1,81.15,49a5.82,5.82,0,0,1-2,1,8.35,8.35,0,0,1-2.32.32H72.46v9.68h-1.9Zm1.9,9h4.32a6.64,6.64,0,0,0,1.59-.19,4.11,4.11,0,0,0,1.38-.6,3.17,3.17,0,0,0,1-1.11,3.55,3.55,0,0,0,.37-1.7,3.35,3.35,0,0,0-.39-1.67,3.48,3.48,0,0,0-1-1.14,4.1,4.1,0,0,0-1.43-.65,6.66,6.66,0,0,0-1.61-.2H72.46Z" fill="#323232"/><path d="M85.63,49.73a11.54,11.54,0,0,1,.78-4.29,10.24,10.24,0,0,1,2.16-3.39,9.83,9.83,0,0,1,3.33-2.23,11.76,11.76,0,0,1,8.56,0,9.83,9.83,0,0,1,3.33,2.23,10.24,10.24,0,0,1,2.16,3.39,12.27,12.27,0,0,1,0,8.6,10.16,10.16,0,0,1-2.16,3.4,9.64,9.64,0,0,1-3.33,2.22,12,12,0,0,1-8.56,0,9.63,9.63,0,0,1-3.33-2.22A10.16,10.16,0,0,1,86.41,54,11.64,11.64,0,0,1,85.63,49.73Zm1.9,0a10.18,10.18,0,0,0,.6,3.55,8.39,8.39,0,0,0,1.73,2.85A8,8,0,0,0,92.59,58a9.66,9.66,0,0,0,7.18,0,8,8,0,0,0,2.72-1.9,8.41,8.41,0,0,0,1.73-2.85,10.68,10.68,0,0,0,0-7.09,8.42,8.42,0,0,0-1.73-2.85,8,8,0,0,0-2.72-1.9,9.66,9.66,0,0,0-7.18,0,8,8,0,0,0-2.72,1.9,8.4,8.4,0,0,0-1.73,2.85A10.17,10.17,0,0,0,87.53,49.73Z" fill="#323232"/><path d="M110.88,39.53h2.45L125.75,57.4h.06V39.53h1.9V59.93h-2.45L112.84,42.07h-.06V59.93h-1.9Z" fill="#323232"/><path d="M133.1,39.53h12.48v1.73H135v7.26h9.91v1.73H135v8h11v1.73H133.1Z" fill="#323232"/><path d="M149.56,39.53H152L164.43,57.4h.06V39.53h1.9V59.93h-2.45L151.52,42.07h-.06V59.93h-1.9Z" fill="#323232"/><path d="M176.4,41.26h-7V39.53h15.85v1.73h-7V59.93h-1.9Z" fill="#323232"/><path d="M188.85,56.16a4.88,4.88,0,0,0,1.95,1.93,5.72,5.72,0,0,0,2.72.63,5.46,5.46,0,0,0,1.79-.29,4.58,4.58,0,0,0,1.46-.81,3.82,3.82,0,0,0,1-1.26,3.73,3.73,0,0,0,.36-1.66,3.19,3.19,0,0,0-.45-1.76,3.58,3.58,0,0,0-1.2-1.14,8.7,8.7,0,0,0-1.69-.76l-1.93-.64q-1-.32-1.93-.72a6.49,6.49,0,0,1-1.69-1.05A4.68,4.68,0,0,1,188,47a5.81,5.81,0,0,1-.45-2.42,5.24,5.24,0,0,1,.53-2.41,5.13,5.13,0,0,1,1.44-1.76,6.43,6.43,0,0,1,2.09-1.07,8.44,8.44,0,0,1,2.48-.36,8,8,0,0,1,3.1.59,5.88,5.88,0,0,1,2.46,2L198,42.76a4.84,4.84,0,0,0-1.69-1.51,4.9,4.9,0,0,0-2.29-.5,6.19,6.19,0,0,0-1.76.25,4.41,4.41,0,0,0-1.46.72,3.53,3.53,0,0,0-1,1.2,3.64,3.64,0,0,0-.37,1.7,3.29,3.29,0,0,0,.78,2.35,5.47,5.47,0,0,0,1.95,1.3,20.7,20.7,0,0,0,2.54.84,12.38,12.38,0,0,1,2.54,1,5.48,5.48,0,0,1,1.95,1.69,5,5,0,0,1,.78,3,5.52,5.52,0,0,1-.52,2.45,5.37,5.37,0,0,1-1.4,1.8,6,6,0,0,1-2,1.11,7.7,7.7,0,0,1-2.39.37,9.59,9.59,0,0,1-3.72-.71A6.81,6.81,0,0,1,187,57.37Z" fill="#323232"/></svg>