<svg xmlns="http://www.w3.org/2000/svg" viewBox="0 0 761.29 218.03" width="761.29" height="218.03"><title>Artboard 1</title><rect width="60" height="60" rx="3" ry="3" fill="#505050" opacity="0.5"/><g opacity="0.5"><path d="M24.28,29.18A4.51,4.51,0,0,1,24,30.77a3.43,3.43,0,0,1-.75,1.2,3.22,3.22,0,0,1-1.15.76,4,4,0,0,1-1.48.26H17.85V25.36h2.79a4,4,0,0,1,1.48.26,3.21,3.21,0,0,1,1.15.76,3.43,3.43,0,0,1,.75,1.2A4.5,4.5,0,0,1,24.28,29.18Zm-.57,0a4.27,4.27,0,0,0-.22-1.43,3,3,0,0,0-.63-1.06,2.69,2.69,0,0,0-1-.66,3.34,3.34,0,0,0-1.25-.23H18.4v6.74h2.24a3.34,3.34,0,0,0,1.25-.23,2.68,2.68,0,0,0,1-.66,3,3,0,0,0,.63-1.06A4.28,4.28,0,0,0,23.71,29.18Z" fill="#fff"/><path d="M32.84,29.18a4.65,4.65,0,0,1-.26,1.61A3.57,3.57,0,0,1,31.83,32a3.31,3.31,0,0,1-1.15.79,4.08,4.08,0,0,1-3,0A3.3,3.3,0,0,1,26.57,32a3.57,3.57,0,0,1-.75-1.23,5,5,0,0,1,0-3.21,3.56,3.56,0,0,1,.75-1.23,3.31,3.31,0,0,1,1.15-.79,3.78,3.78,0,0,1,1.48-.28,3.84,3.84,0,0,1,1.48.28,3.29,3.29,0,0,1,1.15.79,3.59,3.59,0,0,1,.75,1.23A4.63,4.63,0,0,1,32.84,29.18Zm-.57,0A4.37,4.37,0,0,0,32,27.74a3.07,3.07,0,0,0-.63-1.08,2.71,2.71,0,0,0-1-.68A3.45,3.45,0,0,0,28,26a2.73,2.73,0,0,0-1,.68,3.08,3.08,0,0,0-.63,1.08,4.72,4.72,0,0,0,0,2.88A3.07,3.07,0,0,0,27,31.69a2.69,2.69,0,0,0,1,.67,3.48,3.48,0,0,0,2.5,0,2.66,2.66,0,0,0,1-.67A3.06,3.06,0,0,0,32,30.62,4.36,4.36,0,0,0,32.27,29.18Z" fill="#fff"/><path d="M42.15,25.36V33h-.48V26.49a2.91,2.91,0,0,1,0-.3l-3,5.34a.24.24,0,0,1-.22.14h-.09a.24.24,0,0,1-.22-.14l-3.09-5.35c0,.11,0,.21,0,.31V33H34.6V25.36H35l.12,0a.2.2,0,0,1,.09.09l3.08,5.31a2.27,2.27,0,0,1,.14.32l.07-.17.08-.16,3-5.31a.19.19,0,0,1,.09-.09l.12,0Z" fill="#fff"/></g><rect y="72" width="60" height="60" rx="3" ry="3" fill="#505050" opacity="0.5"/><g opacity="0.5"><path d="M24.28,101.18a4.51,4.51,0,0,1-.26,1.59,3.43,3.43,0,0,1-.75,1.2,3.22,3.22,0,0,1-1.15.76,4,4,0,0,1-1.48.26H17.85V97.36h2.79a4,4,0,0,1,1.48.26,3.21,3.21,0,0,1,1.15.76,3.43,3.43,0,0,1,.75,1.2A4.5,4.5,0,0,1,24.28,101.18Zm-.57,0a4.27,4.27,0,0,0-.22-1.43,3,3,0,0,0-.63-1.06,2.69,2.69,0,0,0-1-.66,3.34,3.34,0,0,0-1.25-.23H18.4v6.74h2.24a3.34,3.34,0,0,0,1.25-.23,2.68,2.68,0,0,0,1-.66,3,3,0,0,0,.63-1.06A4.28,4.28,0,0,0,23.71,101.18Z" fill="#fff"/><path d="M32.84,101.18a4.65,4.65,0,0,1-.26,1.61,3.57,3.57,0,0,1-.75,1.23,3.31,3.31,0,0,1-1.15.79,4.08,4.08,0,0,1-3,0,3.3,3.3,0,0,1-1.15-.79,3.57,3.57,0,0,1-.75-1.23,5,5,0,0,1,0-3.21,3.56,3.56,0,0,1,.75-1.23,3.31,3.31,0,0,1,1.15-.79,3.78,3.78,0,0,1,1.48-.28,3.84,3.84,0,0,1,1.48.28,3.29,3.29,0,0,1,1.15.79,3.59,3.59,0,0,1,.75,1.23A4.63,4.63,0,0,1,32.84,101.18Zm-.57,0A4.37,4.37,0,0,0,32,99.74a3.07,3.07,0,0,0-.63-1.08,2.71,2.71,0,0,0-1-.68A3.45,3.45,0,0,0,28,98a2.73,2.73,0,0,0-1,.68,3.08,3.08,0,0,0-.63,1.08,4.72,4.72,0,0,0,0,2.88,3.07,3.07,0,0,0,.63,1.08,2.69,2.69,0,0,0,1,.67,3.48,3.48,0,0,0,2.5,0,2.66,2.66,0,0,0,1-.67,3.06,3.06,0,0,0,.63-1.08A4.36,4.36,0,0,0,32.27,101.18Z" fill="#fff"/><path d="M42.15,97.36V105h-.48V98.49a2.91,2.91,0,0,1,0-.3l-3,5.34a.24.24,0,0,1-.22.14h-.09a.24.24,0,0,1-.22-.14l-3.09-5.35c0,.11,0,.21,0,.31V105H34.6V97.36H35l.12,0a.2.2,0,0,1,.09.09l3.08,5.31a2.27,2.27,0,0,1,.14.32l.07-.17.08-.16,3-5.31a.19.19,0,0,1,.09-.09l.12,0Z" fill="#fff"/></g><rect x="71.13" width="60" height="60" rx="3" ry="3" fill="#505050"/><path d="M95.42,29.18a4.52,4.52,0,0,1-.26,1.59,3.44,3.44,0,0,1-.75,1.2,3.22,3.22,0,0,1-1.15.76,4,4,0,0,1-1.48.26H89V25.36h2.79a4,4,0,0,1,1.48.26,3.22,3.22,0,0,1,1.15.76,3.44,3.44,0,0,1,.75,1.2A4.51,4.51,0,0,1,95.42,29.18Zm-.57,0a4.27,4.27,0,0,0-.22-1.43A3,3,0,0,0,94,26.69,2.69,2.69,0,0,0,93,26a3.34,3.34,0,0,0-1.25-.23H89.54v6.74h2.24A3.34,3.34,0,0,0,93,32.33a2.68,2.68,0,0,0,1-.66,3,3,0,0,0,.63-1.06A4.28,4.28,0,0,0,94.84,29.18Z" fill="#fff"/><path d="M104,29.18a4.63,4.63,0,0,1-.26,1.61A3.57,3.57,0,0,1,103,32a3.3,3.3,0,0,1-1.15.79,4.08,4.08,0,0,1-3,0A3.3,3.3,0,0,1,97.7,32,3.57,3.57,0,0,1,97,30.78a5,5,0,0,1,0-3.21,3.55,3.55,0,0,1,.75-1.23,3.31,3.31,0,0,1,1.15-.79,3.78,3.78,0,0,1,1.48-.28,3.84,3.84,0,0,1,1.48.28,3.28,3.28,0,0,1,1.15.79,3.58,3.58,0,0,1,.75,1.23A4.62,4.62,0,0,1,104,29.18Zm-.57,0a4.37,4.37,0,0,0-.22-1.44,3.07,3.07,0,0,0-.63-1.08,2.71,2.71,0,0,0-1-.68,3.45,3.45,0,0,0-2.5,0,2.74,2.74,0,0,0-1,.68,3.08,3.08,0,0,0-.63,1.08,4.73,4.73,0,0,0,0,2.88,3.08,3.08,0,0,0,.63,1.08,2.7,2.7,0,0,0,1,.67,3.48,3.48,0,0,0,2.5,0,2.67,2.67,0,0,0,1-.67,3.07,3.07,0,0,0,.63-1.08A4.36,4.36,0,0,0,103.4,29.18Z" fill="#fff"/><path d="M113.28,25.36V33h-.48V26.49a2.9,2.9,0,0,1,0-.3l-3,5.34a.24.24,0,0,1-.22.14h-.09a.24.24,0,0,1-.22-.14l-3.09-5.35q0,.16,0,.31V33h-.49V25.36h.38l.12,0a.2.2,0,0,1,.09.09l3.08,5.31a2.21,2.21,0,0,1,.14.32l.07-.17.08-.16,3-5.31a.19.19,0,0,1,.09-.09l.12,0Z" fill="#fff"/><rect x="71.13" y="72" width="60" height="60" rx="3" ry="3" fill="#505050" opacity="0.5"/><g opacity="0.5"><path d="M95.42,101.18a4.52,4.52,0,0,1-.26,1.59,3.44,3.44,0,0,1-.75,1.2,3.22,3.22,0,0,1-1.15.76,4,4,0,0,1-1.48.26H89V97.36h2.79a4,4,0,0,1,1.48.26,3.22,3.22,0,0,1,1.15.76,3.44,3.44,0,0,1,.75,1.2A4.51,4.51,0,0,1,95.42,101.18Zm-.57,0a4.27,4.27,0,0,0-.22-1.43A3,3,0,0,0,94,98.69,2.69,2.69,0,0,0,93,98a3.34,3.34,0,0,0-1.25-.23H89.54v6.74h2.24a3.34,3.34,0,0,0,1.25-.23,2.68,2.68,0,0,0,1-.66,3,3,0,0,0,.63-1.06A4.28,4.28,0,0,0,94.84,101.18Z" fill="#fff"/><path d="M104,101.18a4.63,4.63,0,0,1-.26,1.61A3.57,3.57,0,0,1,103,104a3.3,3.3,0,0,1-1.15.79,4.08,4.08,0,0,1-3,0A3.3,3.3,0,0,1,97.7,104a3.57,3.57,0,0,1-.75-1.23,5,5,0,0,1,0-3.21,3.55,3.55,0,0,1,.75-1.23,3.31,3.31,0,0,1,1.15-.79,3.78,3.78,0,0,1,1.48-.28,3.84,3.84,0,0,1,1.48.28,3.28,3.28,0,0,1,1.15.79,3.58,3.58,0,0,1,.75,1.23A4.62,4.62,0,0,1,104,101.18Zm-.57,0a4.37,4.37,0,0,0-.22-1.44,3.07,3.07,0,0,0-.63-1.08,2.71,2.71,0,0,0-1-.68,3.45,3.45,0,0,0-2.5,0,2.74,2.74,0,0,0-1,.68,3.08,3.08,0,0,0-.63,1.08,4.73,4.73,0,0,0,0,2.88,3.08,3.08,0,0,0,.63,1.08,2.7,2.7,0,0,0,1,.67,3.48,3.48,0,0,0,2.5,0,2.67,2.67,0,0,0,1-.67,3.07,3.07,0,0,0,.63-1.08A4.36,4.36,0,0,0,103.4,101.18Z" fill="#fff"/><path d="M113.28,97.36V105h-.48V98.49a2.9,2.9,0,0,1,0-.3l-3,5.34a.24.24,0,0,1-.22.14h-.09a.24.24,0,0,1-.22-.14l-3.09-5.35q0,.16,0,.31V105h-.49V97.36h.38l.12,0a.2.2,0,0,1,.09.09l3.08,5.31a2.21,2.21,0,0,1,.14.32l.07-.17.08-.16,3-5.31a.19.19,0,0,1,.09-.09l.12,0Z" fill="#fff"/></g><rect x="193.57" width="132" height="132" rx="7.03" ry="7.03" fill="#505050"/><path d="M253.85,57.18a4.52,4.52,0,0,1-.26,1.59,3.44,3.44,0,0,1-.75,1.2,3.22,3.22,0,0,1-1.15.76,4,4,0,0,1-1.48.26h-2.79V53.36h2.79a4,4,0,0,1,1.48.26,3.22,3.22,0,0,1,1.15.76,3.44,3.44,0,0,1,.75,1.2A4.51,4.51,0,0,1,253.85,57.18Zm-.57,0a4.27,4.27,0,0,0-.22-1.43,3,3,0,0,0-.63-1.06,2.69,2.69,0,0,0-1-.66,3.34,3.34,0,0,0-1.25-.23H248v6.74h2.24a3.34,3.34,0,0,0,1.25-.23,2.68,2.68,0,0,0,1-.66,3,3,0,0,0,.63-1.06A4.28,4.28,0,0,0,253.28,57.18Z" fill="#fff"/><path d="M262.41,57.18a4.63,4.63,0,0,1-.26,1.61A3.57,3.57,0,0,1,261.4,60a3.3,3.3,0,0,1-1.15.79,4.08,4.08,0,0,1-3,0,3.3,3.3,0,0,1-1.15-.79,3.57,3.57,0,0,1-.75-1.23,5,5,0,0,1,0-3.21,3.55,3.55,0,0,1,.75-1.23,3.31,3.31,0,0,1,1.15-.79,3.78,3.78,0,0,1,1.48-.28,3.84,3.84,0,0,1,1.48.28,3.28,3.28,0,0,1,1.15.79,3.58,3.58,0,0,1,.75,1.23A4.62,4.62,0,0,1,262.41,57.18Zm-.57,0a4.37,4.37,0,0,0-.22-1.44,3.07,3.07,0,0,0-.63-1.08,2.71,2.71,0,0,0-1-.68,3.45,3.45,0,0,0-2.5,0,2.74,2.74,0,0,0-1,.68,3.08,3.08,0,0,0-.63,1.08,4.73,4.73,0,0,0,0,2.88,3.08,3.08,0,0,0,.63,1.08,2.7,2.7,0,0,0,1,.67,3.48,3.48,0,0,0,2.5,0,2.67,2.67,0,0,0,1-.67,3.07,3.07,0,0,0,.63-1.08A4.36,4.36,0,0,0,261.84,57.18Z" fill="#fff"/><path d="M271.72,53.36V61h-.48V54.49a2.9,2.9,0,0,1,0-.3l-3,5.34a.24.24,0,0,1-.22.14h-.09a.24.24,0,0,1-.22-.14l-3.09-5.35q0,.16,0,.31V61h-.49V53.36h.38l.12,0a.2.2,0,0,1,.09.09l3.08,5.31a2.21,2.21,0,0,1,.14.32l.07-.17.08-.16,3-5.31a.19.19,0,0,1,.09-.09l.12,0Z" fill="#fff"/><path d="M247.46,75.4H247a.36.36,0,0,1-.15,0,.31.31,0,0,1-.12-.11l-2.45-3.1-.09-.1-.1-.07-.14,0h-1.19V75.4h-.56V67.76h2a3.19,3.19,0,0,1,2,.51,1.78,1.78,0,0,1,.66,1.5,2.06,2.06,0,0,1-.15.8,1.88,1.88,0,0,1-.43.63,2.27,2.27,0,0,1-.69.45,3.26,3.26,0,0,1-.9.23.87.87,0,0,1,.23.22Zm-3.39-3.87a3.14,3.14,0,0,0,.91-.12,2,2,0,0,0,.68-.35,1.5,1.5,0,0,0,.42-.55,1.7,1.7,0,0,0,.15-.72,1.41,1.41,0,0,0-.53-1.21,2.58,2.58,0,0,0-1.55-.39h-1.4v3.34Z" fill="#fff"/><path d="M248.34,72.5v.1a3.64,3.64,0,0,0,.14,1.06,2.18,2.18,0,0,0,.4.77,1.65,1.65,0,0,0,.63.47,2.07,2.07,0,0,0,.82.16A2.45,2.45,0,0,0,251,75a2.59,2.59,0,0,0,.5-.2,2.74,2.74,0,0,0,.32-.2.36.36,0,0,1,.17-.09.12.12,0,0,1,.11.05l.14.17a1.46,1.46,0,0,1-.34.3,2.44,2.44,0,0,1-.48.24,3.42,3.42,0,0,1-.56.16,3.05,3.05,0,0,1-.6.06,2.57,2.57,0,0,1-1-.19,2.13,2.13,0,0,1-.78-.56,2.53,2.53,0,0,1-.5-.9,3.88,3.88,0,0,1-.18-1.22,3.31,3.31,0,0,1,.16-1.07,2.44,2.44,0,0,1,.48-.84,2.18,2.18,0,0,1,.76-.55,2.51,2.51,0,0,1,1-.2,2.23,2.23,0,0,1,.84.16,1.92,1.92,0,0,1,.67.46,2.15,2.15,0,0,1,.45.74,2.84,2.84,0,0,1,.16,1,.29.29,0,0,1,0,.16.13.13,0,0,1-.11,0Zm3.59-.33a2.31,2.31,0,0,0-.12-.77,1.66,1.66,0,0,0-.34-.58,1.5,1.5,0,0,0-.53-.36,1.75,1.75,0,0,0-.67-.13,2,2,0,0,0-.75.13,1.63,1.63,0,0,0-.57.37,1.86,1.86,0,0,0-.39.58,2.71,2.71,0,0,0-.19.76Z" fill="#fff"/><path d="M258.12,70.27v.18c0,.08-.05.13-.15.15l-.82.06a1.58,1.58,0,0,1,.23.46,1.79,1.79,0,0,1,.08.55,1.75,1.75,0,0,1-.14.71,1.55,1.55,0,0,1-.39.54,1.79,1.79,0,0,1-.6.35,2.34,2.34,0,0,1-.78.12,2.38,2.38,0,0,1-.84-.14,1.16,1.16,0,0,0-.36.3.58.58,0,0,0-.13.35.42.42,0,0,0,.17.36,1.08,1.08,0,0,0,.43.18,3.91,3.91,0,0,0,.61.07l.7,0q.36,0,.7.07a2.21,2.21,0,0,1,.61.17,1.1,1.1,0,0,1,.43.34.94.94,0,0,1,.16.58,1.33,1.33,0,0,1-.17.64,1.7,1.7,0,0,1-.48.54,2.57,2.57,0,0,1-.76.38,3.29,3.29,0,0,1-1,.14,3.82,3.82,0,0,1-1-.12,2.4,2.4,0,0,1-.72-.31,1.38,1.38,0,0,1-.43-.46,1.11,1.11,0,0,1-.15-.55,1,1,0,0,1,.28-.73,1.87,1.87,0,0,1,.77-.48,1,1,0,0,1-.43-.27.67.67,0,0,1-.17-.48.72.72,0,0,1,0-.24,1,1,0,0,1,.13-.25,1.32,1.32,0,0,1,.21-.23,1.59,1.59,0,0,1,.28-.19,1.6,1.6,0,0,1-.6-.59,1.67,1.67,0,0,1-.21-.86,1.75,1.75,0,0,1,.14-.71,1.54,1.54,0,0,1,.39-.54,1.79,1.79,0,0,1,.61-.35,2.54,2.54,0,0,1,1.44,0,2,2,0,0,1,.54.24Zm-.56,5.5a.6.6,0,0,0-.13-.41.88.88,0,0,0-.35-.24,2.11,2.11,0,0,0-.51-.12l-.6-.05-.63,0a4.83,4.83,0,0,1-.6-.07,2.52,2.52,0,0,0-.38.19,1.38,1.38,0,0,0-.3.24,1.08,1.08,0,0,0-.19.29.87.87,0,0,0,.05.78,1.08,1.08,0,0,0,.36.35,2,2,0,0,0,.58.23,3.2,3.2,0,0,0,.78.09,3,3,0,0,0,.76-.09,2.12,2.12,0,0,0,.62-.26,1.31,1.31,0,0,0,.41-.4A.92.92,0,0,0,257.56,75.76Zm-2-2.74a1.77,1.77,0,0,0,.62-.1,1.27,1.27,0,0,0,.45-.28,1.2,1.2,0,0,0,.28-.43,1.5,1.5,0,0,0,.1-.55,1.48,1.48,0,0,0-.1-.55,1.19,1.19,0,0,0-.29-.43,1.27,1.27,0,0,0-.45-.28,1.94,1.94,0,0,0-1.21,0,1.27,1.27,0,0,0-.45.28,1.16,1.16,0,0,0-.28.43,1.52,1.52,0,0,0-.1.55,1.49,1.49,0,0,0,.1.55,1.17,1.17,0,0,0,.28.43,1.3,1.3,0,0,0,.45.28A1.73,1.73,0,0,0,255.55,73Z" fill="#fff"/><path d="M260.1,68.18a.41.41,0,0,1,0,.18.56.56,0,0,1-.1.15.5.5,0,0,1-.15.1.47.47,0,0,1-.37,0,.5.5,0,0,1-.15-.1.52.52,0,0,1-.1-.15.44.44,0,0,1,0-.18.47.47,0,0,1,0-.19.48.48,0,0,1,.1-.15.5.5,0,0,1,.15-.1.46.46,0,0,1,.37,0,.5.5,0,0,1,.15.1.52.52,0,0,1,.1.15A.44.44,0,0,1,260.1,68.18ZM259.88,70V75.4h-.51V70Z" fill="#fff"/><path d="M264.66,70.69a.14.14,0,0,1-.12.08.28.28,0,0,1-.15-.07l-.25-.15a2,2,0,0,0-.38-.15,2,2,0,0,0-.55-.07,1.61,1.61,0,0,0-.53.08,1.34,1.34,0,0,0-.41.22A1,1,0,0,0,262,71a.88.88,0,0,0-.09.39.67.67,0,0,0,.13.42,1.13,1.13,0,0,0,.34.29,2.49,2.49,0,0,0,.48.21l.55.17.55.19a2,2,0,0,1,.48.26,1.25,1.25,0,0,1,.34.38,1.09,1.09,0,0,1,.13.55,1.7,1.7,0,0,1-.12.65,1.45,1.45,0,0,1-.36.52,1.76,1.76,0,0,1-.59.35,2.33,2.33,0,0,1-.8.13,2.4,2.4,0,0,1-1-.18,2.74,2.74,0,0,1-.73-.47l.12-.18a.2.2,0,0,1,.06-.06l.09,0a.29.29,0,0,1,.17.09,1.87,1.87,0,0,0,.27.19,2.33,2.33,0,0,0,.41.19,1.85,1.85,0,0,0,.61.09,1.76,1.76,0,0,0,.6-.09,1.25,1.25,0,0,0,.43-.26,1.08,1.08,0,0,0,.26-.38,1.21,1.21,0,0,0,.09-.46.74.74,0,0,0-.13-.45,1.12,1.12,0,0,0-.34-.3,2.37,2.37,0,0,0-.48-.21l-.55-.17-.55-.19a2,2,0,0,1-.48-.26,1.25,1.25,0,0,1-.34-.38,1.1,1.1,0,0,1-.13-.56,1.28,1.28,0,0,1,.12-.55,1.41,1.41,0,0,1,.35-.46,1.75,1.75,0,0,1,.56-.32,2.17,2.17,0,0,1,.74-.12,2.53,2.53,0,0,1,.87.14,2.06,2.06,0,0,1,.69.43Z" fill="#fff"/><path d="M267.77,75.49a1.16,1.16,0,0,1-.85-.3,1.27,1.27,0,0,1-.31-.93V70.58h-.77a.14.14,0,0,1-.1,0,.11.11,0,0,1,0-.09v-.2l.92-.06.13-1.92a.19.19,0,0,1,0-.09.11.11,0,0,1,.09,0h.24v2.05h1.7v.38h-1.7v3.65a1.14,1.14,0,0,0,.06.38.71.71,0,0,0,.16.26.61.61,0,0,0,.23.15.83.83,0,0,0,.29,0,.89.89,0,0,0,.33-.06l.24-.12.17-.12a.18.18,0,0,1,.1-.06.12.12,0,0,1,.09.05l.14.23a1.5,1.5,0,0,1-.52.36A1.63,1.63,0,0,1,267.77,75.49Z" fill="#fff"/><path d="M270.49,71.32a3.34,3.34,0,0,1,.28-.59,1.86,1.86,0,0,1,.37-.43,1.49,1.49,0,0,1,.46-.27,1.63,1.63,0,0,1,.57-.09l.33,0a.86.86,0,0,1,.29.11l0,.36a.1.1,0,0,1-.1.09l-.2,0a1.3,1.3,0,0,0-.35,0,1.52,1.52,0,0,0-.55.09,1.29,1.29,0,0,0-.43.28,1.82,1.82,0,0,0-.33.47,4.36,4.36,0,0,0-.26.64V75.4H270V70h.28a.18.18,0,0,1,.13,0,.22.22,0,0,1,0,.13Z" fill="#fff"/><path d="M278.16,70l-3.09,7.1a.37.37,0,0,1-.08.13.21.21,0,0,1-.15,0h-.37l.94-2.1L273.14,70h.43a.2.2,0,0,1,.19.13l1.81,4.18.06.16,0,.17.06-.17.06-.16,1.79-4.18a.23.23,0,0,1,.08-.09.18.18,0,0,1,.11,0Z" fill="#fff"/><rect x="389.79" width="80" height="132" rx="6.58" ry="6.58" fill="#505050"/><path d="M424,58.18a4.51,4.51,0,0,1-.26,1.59A3.43,3.43,0,0,1,423,61a3.22,3.22,0,0,1-1.15.76,4,4,0,0,1-1.48.26H417.6V54.36h2.79a4,4,0,0,1,1.48.26,3.21,3.21,0,0,1,1.15.76,3.43,3.43,0,0,1,.75,1.2A4.5,4.5,0,0,1,424,58.18Zm-.57,0a4.27,4.27,0,0,0-.22-1.43,3,3,0,0,0-.63-1.06,2.69,2.69,0,0,0-1-.66,3.34,3.34,0,0,0-1.25-.23h-2.24v6.74h2.24a3.34,3.34,0,0,0,1.25-.23,2.68,2.68,0,0,0,1-.66,3,3,0,0,0,.63-1.06A4.28,4.28,0,0,0,423.46,58.18Z" fill="#fff"/><path d="M432.59,58.18a4.65,4.65,0,0,1-.26,1.61,3.57,3.57,0,0,1-.75,1.23,3.31,3.31,0,0,1-1.15.79,4.08,4.08,0,0,1-3,0,3.3,3.3,0,0,1-1.15-.79,3.57,3.57,0,0,1-.75-1.23,5,5,0,0,1,0-3.21,3.56,3.56,0,0,1,.75-1.23,3.31,3.31,0,0,1,1.15-.79,3.78,3.78,0,0,1,1.48-.28,3.84,3.84,0,0,1,1.48.28,3.29,3.29,0,0,1,1.15.79,3.59,3.59,0,0,1,.75,1.23A4.63,4.63,0,0,1,432.59,58.18Zm-.57,0a4.37,4.37,0,0,0-.22-1.44,3.07,3.07,0,0,0-.63-1.08,2.71,2.71,0,0,0-1-.68,3.45,3.45,0,0,0-2.5,0,2.73,2.73,0,0,0-1,.68,3.08,3.08,0,0,0-.63,1.08,4.72,4.72,0,0,0,0,2.88,3.07,3.07,0,0,0,.63,1.08,2.69,2.69,0,0,0,1,.67,3.48,3.48,0,0,0,2.5,0,2.66,2.66,0,0,0,1-.67,3.06,3.06,0,0,0,.63-1.08A4.36,4.36,0,0,0,432,58.18Z" fill="#fff"/><path d="M441.9,54.36V62h-.48V55.49a2.91,2.91,0,0,1,0-.3l-3,5.34a.24.24,0,0,1-.22.14h-.09a.24.24,0,0,1-.22-.14l-3.09-5.35c0,.11,0,.21,0,.31V62h-.49V54.36h.38l.12,0a.2.2,0,0,1,.09.09L438,59.78a2.27,2.27,0,0,1,.14.32l.07-.17.08-.16,3-5.31a.19.19,0,0,1,.09-.09l.12,0Z" fill="#fff"/><path d="M408.87,75.12a.12.12,0,0,1,.09,0l.22.23a3.63,3.63,0,0,1-.52.46,3.18,3.18,0,0,1-.61.35,3.59,3.59,0,0,1-.73.22,4.48,4.48,0,0,1-.87.08,3.71,3.71,0,0,1-1.46-.28,3.25,3.25,0,0,1-1.14-.79,3.55,3.55,0,0,1-.74-1.23,4.7,4.7,0,0,1-.26-1.61,4.49,4.49,0,0,1,.27-1.59,3.65,3.65,0,0,1,.76-1.23,3.36,3.36,0,0,1,1.17-.8,3.87,3.87,0,0,1,1.5-.28,3.7,3.7,0,0,1,1.39.24,3.75,3.75,0,0,1,1.1.69l-.17.24a.15.15,0,0,1-.14.06.43.43,0,0,1-.21-.12,2.77,2.77,0,0,0-.41-.26,3.47,3.47,0,0,0-.65-.26,3.17,3.17,0,0,0-.93-.12,3.29,3.29,0,0,0-1.27.24,2.8,2.8,0,0,0-1,.68,3.12,3.12,0,0,0-.64,1.08,4.55,4.55,0,0,0,0,2.88,3.17,3.17,0,0,0,.65,1.08,2.77,2.77,0,0,0,1,.67,3.07,3.07,0,0,0,1.21.24,4.55,4.55,0,0,0,.73-.05,2.92,2.92,0,0,0,.59-.16,2.68,2.68,0,0,0,.5-.26,3.94,3.94,0,0,0,.46-.37l.05,0Z" fill="#fff"/><path d="M412.44,70.94a2.59,2.59,0,0,1,1,.2,2.11,2.11,0,0,1,.77.56,2.48,2.48,0,0,1,.48.87,4,4,0,0,1,0,2.28,2.48,2.48,0,0,1-.48.87,2.08,2.08,0,0,1-.77.56,2.85,2.85,0,0,1-2.07,0,2.11,2.11,0,0,1-.77-.56,2.46,2.46,0,0,1-.48-.87,4,4,0,0,1,0-2.28,2.45,2.45,0,0,1,.48-.87,2.14,2.14,0,0,1,.77-.56A2.6,2.6,0,0,1,412.44,70.94Zm0,5.12a2,2,0,0,0,.84-.16,1.6,1.6,0,0,0,.6-.47,2.1,2.1,0,0,0,.36-.74,4.07,4.07,0,0,0,0-1.95,2.12,2.12,0,0,0-.36-.75,1.6,1.6,0,0,0-.6-.48,2.18,2.18,0,0,0-1.68,0,1.6,1.6,0,0,0-.6.48,2.15,2.15,0,0,0-.36.75,4,4,0,0,0,0,1.95,2.12,2.12,0,0,0,.36.74,1.6,1.6,0,0,0,.6.47A2,2,0,0,0,412.44,76.07Z" fill="#fff"/><path d="M416.34,76.4V71h.29a.14.14,0,0,1,.16.13l0,.78a2.81,2.81,0,0,1,.72-.72,1.59,1.59,0,0,1,.91-.28,1.31,1.31,0,0,1,.94.34,1.77,1.77,0,0,1,.48.95,1.87,1.87,0,0,1,.27-.57,1.71,1.71,0,0,1,.4-.4A1.63,1.63,0,0,1,421,71a2,2,0,0,1,.55-.08,1.87,1.87,0,0,1,.72.13,1.41,1.41,0,0,1,.54.39,1.8,1.8,0,0,1,.34.64,2.89,2.89,0,0,1,.12.86V76.4h-.51V73a1.85,1.85,0,0,0-.34-1.2,1.19,1.19,0,0,0-1-.41,1.43,1.43,0,0,0-.54.1,1.31,1.31,0,0,0-.45.3,1.5,1.5,0,0,0-.31.5,2,2,0,0,0-.12.7V76.4h-.52V73a2,2,0,0,0-.31-1.2,1.07,1.07,0,0,0-.91-.42,1.39,1.39,0,0,0-.81.26,2.47,2.47,0,0,0-.67.72V76.4Z" fill="#fff"/><path d="M425.53,72a2.85,2.85,0,0,1,.83-.77,2,2,0,0,1,1.07-.29,1.87,1.87,0,0,1,1.54.69,3.23,3.23,0,0,1,.55,2.06,3.79,3.79,0,0,1-.15,1.1,2.6,2.6,0,0,1-.45.89,2.16,2.16,0,0,1-.73.59,2.23,2.23,0,0,1-1,.22,2.08,2.08,0,0,1-.94-.2,2,2,0,0,1-.69-.59V78.3H425V71h.29a.14.14,0,0,1,.16.13Zm0,3.23a2.28,2.28,0,0,0,.33.39,1.67,1.67,0,0,0,.36.26,1.48,1.48,0,0,0,.4.14,2.31,2.31,0,0,0,.45,0,1.88,1.88,0,0,0,.83-.17,1.64,1.64,0,0,0,.6-.49,2.21,2.21,0,0,0,.36-.76,3.64,3.64,0,0,0,.12-1,2.85,2.85,0,0,0-.44-1.76,1.52,1.52,0,0,0-1.27-.56,1.76,1.76,0,0,0-1,.28,2.74,2.74,0,0,0-.77.77Z" fill="#fff"/><path d="M433.12,70.94a2.6,2.6,0,0,1,1,.2,2.12,2.12,0,0,1,.77.56,2.48,2.48,0,0,1,.48.87,4,4,0,0,1,0,2.28,2.48,2.48,0,0,1-.48.87,2.09,2.09,0,0,1-.77.56,2.85,2.85,0,0,1-2.07,0,2.11,2.11,0,0,1-.77-.56,2.44,2.44,0,0,1-.48-.87,4,4,0,0,1,0-2.28,2.44,2.44,0,0,1,.48-.87,2.14,2.14,0,0,1,.77-.56A2.59,2.59,0,0,1,433.12,70.94Zm0,5.12a2,2,0,0,0,.84-.16,1.6,1.6,0,0,0,.6-.47,2.08,2.08,0,0,0,.36-.74,4,4,0,0,0,0-1.95,2.11,2.11,0,0,0-.36-.75,1.6,1.6,0,0,0-.6-.48,2.18,2.18,0,0,0-1.68,0,1.6,1.6,0,0,0-.6.48,2.14,2.14,0,0,0-.36.75,3.94,3.94,0,0,0,0,1.95,2.12,2.12,0,0,0,.36.74,1.6,1.6,0,0,0,.6.47A2,2,0,0,0,433.12,76.07Z" fill="#fff"/><path d="M437.5,72a3.07,3.07,0,0,1,.86-.75,2.14,2.14,0,0,1,1.09-.28,2,2,0,0,1,.78.14,1.43,1.43,0,0,1,.56.41,1.8,1.8,0,0,1,.33.64,2.9,2.9,0,0,1,.11.84V76.4h-.52V73a1.84,1.84,0,0,0-.35-1.19,1.27,1.27,0,0,0-1.05-.43,1.9,1.9,0,0,0-1,.27,2.77,2.77,0,0,0-.81.74v4H437V71h.29a.14.14,0,0,1,.16.13Z" fill="#fff"/><path d="M443.14,73.5v.1a3.64,3.64,0,0,0,.14,1.06,2.19,2.19,0,0,0,.4.77,1.64,1.64,0,0,0,.63.47,2.07,2.07,0,0,0,.82.16,2.44,2.44,0,0,0,.7-.09,2.6,2.6,0,0,0,.5-.2,2.78,2.78,0,0,0,.32-.2.36.36,0,0,1,.17-.09.12.12,0,0,1,.11.05l.14.17a1.44,1.44,0,0,1-.34.3,2.44,2.44,0,0,1-.48.24,3.39,3.39,0,0,1-.56.16,3,3,0,0,1-.6.06,2.57,2.57,0,0,1-1-.19,2.13,2.13,0,0,1-.78-.56,2.53,2.53,0,0,1-.5-.9,3.88,3.88,0,0,1-.18-1.22,3.33,3.33,0,0,1,.16-1.07,2.45,2.45,0,0,1,.48-.84,2.18,2.18,0,0,1,.76-.55,2.51,2.51,0,0,1,1-.2,2.23,2.23,0,0,1,.84.16,1.91,1.91,0,0,1,.67.46,2.13,2.13,0,0,1,.45.74,2.83,2.83,0,0,1,.17,1,.29.29,0,0,1,0,.16.13.13,0,0,1-.11,0Zm3.58-.33a2.31,2.31,0,0,0-.12-.77,1.66,1.66,0,0,0-.34-.58,1.5,1.5,0,0,0-.53-.36,1.75,1.75,0,0,0-.67-.13,2,2,0,0,0-.75.13,1.63,1.63,0,0,0-.57.37,1.87,1.87,0,0,0-.39.58,2.72,2.72,0,0,0-.19.76Z" fill="#fff"/><path d="M449.08,72a3.07,3.07,0,0,1,.86-.75,2.14,2.14,0,0,1,1.09-.28,2,2,0,0,1,.78.14,1.43,1.43,0,0,1,.56.41,1.8,1.8,0,0,1,.33.64,2.9,2.9,0,0,1,.11.84V76.4h-.52V73a1.84,1.84,0,0,0-.35-1.19,1.27,1.27,0,0,0-1.05-.43,1.9,1.9,0,0,0-1,.27,2.77,2.77,0,0,0-.81.74v4h-.52V71h.29a.14.14,0,0,1,.16.13Z" fill="#fff"/><path d="M455.92,76.49a1.16,1.16,0,0,1-.85-.3,1.26,1.26,0,0,1-.31-.93V71.58H454a.15.15,0,0,1-.1,0,.11.11,0,0,1,0-.09v-.2l.92-.06.13-1.92a.19.19,0,0,1,0-.09.11.11,0,0,1,.09,0h.24v2.05H457v.38h-1.7v3.65a1.15,1.15,0,0,0,.06.38.71.71,0,0,0,.16.26.61.61,0,0,0,.23.15.84.84,0,0,0,.29,0,.89.89,0,0,0,.33-.06l.24-.12.17-.12a.18.18,0,0,1,.1-.06.12.12,0,0,1,.09.05l.14.23a1.5,1.5,0,0,1-.52.36A1.63,1.63,0,0,1,455.92,76.49Z" fill="#fff"/><rect x="534.89" width="80" height="132" rx="6.58" ry="6.58" fill="#505050"/><path d="M569.14,58.18a4.53,4.53,0,0,1-.26,1.59,3.44,3.44,0,0,1-.75,1.2,3.22,3.22,0,0,1-1.15.76,4,4,0,0,1-1.48.26H562.7V54.36h2.79a4,4,0,0,1,1.48.26,3.22,3.22,0,0,1,1.15.76,3.44,3.44,0,0,1,.75,1.2A4.52,4.52,0,0,1,569.14,58.18Zm-.57,0a4.27,4.27,0,0,0-.22-1.43,3,3,0,0,0-.63-1.06,2.68,2.68,0,0,0-1-.66,3.34,3.34,0,0,0-1.25-.23h-2.24v6.74h2.24a3.34,3.34,0,0,0,1.25-.23,2.67,2.67,0,0,0,1-.66,3,3,0,0,0,.63-1.06A4.28,4.28,0,0,0,568.57,58.18Z" fill="#fff"/><path d="M577.7,58.18a4.62,4.62,0,0,1-.26,1.61,3.56,3.56,0,0,1-.75,1.23,3.3,3.3,0,0,1-1.15.79,4.08,4.08,0,0,1-3,0,3.29,3.29,0,0,1-1.15-.79,3.56,3.56,0,0,1-.75-1.23,5,5,0,0,1,0-3.21,3.54,3.54,0,0,1,.75-1.23,3.3,3.3,0,0,1,1.15-.79,3.78,3.78,0,0,1,1.48-.28,3.84,3.84,0,0,1,1.48.28,3.28,3.28,0,0,1,1.15.79,3.57,3.57,0,0,1,.75,1.23A4.61,4.61,0,0,1,577.7,58.18Zm-.57,0a4.37,4.37,0,0,0-.22-1.44,3.08,3.08,0,0,0-.63-1.08,2.72,2.72,0,0,0-1-.68,3.45,3.45,0,0,0-2.5,0,2.74,2.74,0,0,0-1,.68,3.09,3.09,0,0,0-.63,1.08,4.74,4.74,0,0,0,0,2.88,3.09,3.09,0,0,0,.63,1.08,2.7,2.7,0,0,0,1,.67,3.48,3.48,0,0,0,2.5,0,2.67,2.67,0,0,0,1-.67,3.08,3.08,0,0,0,.63-1.08A4.36,4.36,0,0,0,577.13,58.18Z" fill="#fff"/><path d="M587,54.36V62h-.48V55.49a2.9,2.9,0,0,1,0-.3l-3,5.34a.23.23,0,0,1-.22.14h-.09a.24.24,0,0,1-.22-.14l-3.09-5.35c0,.11,0,.21,0,.31V62h-.49V54.36h.38l.12,0a.2.2,0,0,1,.09.09l3.08,5.31a2.16,2.16,0,0,1,.14.32l.07-.17.08-.16,3-5.31a.2.2,0,0,1,.09-.09l.12,0Z" fill="#fff"/><path d="M568.72,68.76V76.4h-.48V69.89a2.91,2.91,0,0,1,0-.3l-3,5.34a.24.24,0,0,1-.22.14h-.09a.24.24,0,0,1-.22-.14l-3.09-5.35c0,.11,0,.21,0,.31V76.4h-.49V68.76h.38l.12,0a.2.2,0,0,1,.09.09l3.08,5.31a2.27,2.27,0,0,1,.14.32l.07-.17.08-.16,3-5.31a.19.19,0,0,1,.09-.09l.12,0Z" fill="#fff"/><path d="M572.69,70.94a2.6,2.6,0,0,1,1,.2,2.12,2.12,0,0,1,.77.56,2.48,2.48,0,0,1,.48.87,4,4,0,0,1,0,2.28,2.48,2.48,0,0,1-.48.87,2.09,2.09,0,0,1-.77.56,2.85,2.85,0,0,1-2.07,0,2.11,2.11,0,0,1-.77-.56,2.44,2.44,0,0,1-.48-.87,4,4,0,0,1,0-2.28,2.44,2.44,0,0,1,.48-.87,2.14,2.14,0,0,1,.77-.56A2.59,2.59,0,0,1,572.69,70.94Zm0,5.12a2,2,0,0,0,.84-.16,1.6,1.6,0,0,0,.6-.47,2.08,2.08,0,0,0,.36-.74,4,4,0,0,0,0-1.95,2.11,2.11,0,0,0-.36-.75,1.6,1.6,0,0,0-.6-.48,2.18,2.18,0,0,0-1.68,0,1.6,1.6,0,0,0-.6.48,2.14,2.14,0,0,0-.36.75,3.94,3.94,0,0,0,0,1.95,2.12,2.12,0,0,0,.36.74,1.6,1.6,0,0,0,.6.47A2,2,0,0,0,572.69,76.07Z" fill="#fff"/><path d="M580.77,68.54V76.4h-.28a.15.15,0,0,1-.16-.14l-.05-.85a2.87,2.87,0,0,1-.83.77,2,2,0,0,1-1.07.29,1.87,1.87,0,0,1-1.54-.69,3.24,3.24,0,0,1-.55-2.06,3.79,3.79,0,0,1,.15-1.1,2.63,2.63,0,0,1,.45-.89,2.13,2.13,0,0,1,.73-.59,2.23,2.23,0,0,1,1-.22,2.08,2.08,0,0,1,.94.2,2,2,0,0,1,.7.59V68.54Zm-.51,3.64a1.84,1.84,0,0,0-.68-.65,2.06,2.06,0,0,0-1.69,0,1.64,1.64,0,0,0-.6.49,2.21,2.21,0,0,0-.36.76,3.64,3.64,0,0,0-.12,1,2.86,2.86,0,0,0,.44,1.76,1.51,1.51,0,0,0,1.27.56,1.78,1.78,0,0,0,1-.28,2.62,2.62,0,0,0,.77-.77Z" fill="#fff"/><path d="M582.72,73.5v.1a3.64,3.64,0,0,0,.14,1.06,2.19,2.19,0,0,0,.4.77,1.64,1.64,0,0,0,.63.47,2.07,2.07,0,0,0,.82.16,2.44,2.44,0,0,0,.7-.09,2.6,2.6,0,0,0,.5-.2,2.78,2.78,0,0,0,.32-.2.36.36,0,0,1,.17-.09.12.12,0,0,1,.11.05l.14.17a1.44,1.44,0,0,1-.34.3,2.44,2.44,0,0,1-.48.24,3.39,3.39,0,0,1-.56.16,3,3,0,0,1-.6.06,2.57,2.57,0,0,1-1-.19,2.13,2.13,0,0,1-.78-.56,2.53,2.53,0,0,1-.5-.9,3.88,3.88,0,0,1-.18-1.22,3.33,3.33,0,0,1,.16-1.07,2.45,2.45,0,0,1,.48-.84,2.18,2.18,0,0,1,.76-.55,2.51,2.51,0,0,1,1-.2,2.23,2.23,0,0,1,.84.16,1.91,1.91,0,0,1,.67.46,2.13,2.13,0,0,1,.45.74,2.83,2.83,0,0,1,.17,1,.29.29,0,0,1,0,.16.13.13,0,0,1-.11,0Zm3.58-.33a2.31,2.31,0,0,0-.12-.77,1.66,1.66,0,0,0-.34-.58,1.5,1.5,0,0,0-.53-.36,1.75,1.75,0,0,0-.67-.13,2,2,0,0,0-.75.13,1.63,1.63,0,0,0-.57.37,1.87,1.87,0,0,0-.39.58,2.72,2.72,0,0,0-.19.76Z" fill="#fff"/><path d="M588.74,68.54V76.4h-.52V68.54Z" fill="#fff"/><rect x="680" width="80" height="132" rx="6.58" ry="6.58" fill="#3ba0bd"/><path d="M713.43,62H713a.36.36,0,0,1-.15,0,.3.3,0,0,1-.12-.11l-2.45-3.1-.09-.1-.1-.07-.14,0h-1.19V62h-.56V54.36h2a3.19,3.19,0,0,1,2,.51,1.78,1.78,0,0,1,.66,1.5,2.07,2.07,0,0,1-.15.8,1.88,1.88,0,0,1-.44.63,2.27,2.27,0,0,1-.69.45,3.26,3.26,0,0,1-.9.23.88.88,0,0,1,.23.22ZM710,58.13a3.15,3.15,0,0,0,.91-.12,2,2,0,0,0,.68-.35,1.5,1.5,0,0,0,.42-.55,1.7,1.7,0,0,0,.15-.72,1.41,1.41,0,0,0-.53-1.21,2.58,2.58,0,0,0-1.55-.39h-1.4v3.34Z" fill="#fff"/><path d="M714.31,59.1v.1a3.64,3.64,0,0,0,.14,1.06,2.2,2.2,0,0,0,.4.77,1.65,1.65,0,0,0,.63.47,2.07,2.07,0,0,0,.82.16,2.45,2.45,0,0,0,.7-.09,2.58,2.58,0,0,0,.5-.2,2.8,2.8,0,0,0,.32-.2.36.36,0,0,1,.17-.09.12.12,0,0,1,.11.05l.14.17a1.46,1.46,0,0,1-.34.3,2.44,2.44,0,0,1-.48.24,3.45,3.45,0,0,1-.56.16,3,3,0,0,1-.6.06,2.57,2.57,0,0,1-1-.19,2.13,2.13,0,0,1-.78-.56,2.53,2.53,0,0,1-.5-.9,3.88,3.88,0,0,1-.18-1.22,3.33,3.33,0,0,1,.16-1.07,2.43,2.43,0,0,1,.48-.84,2.18,2.18,0,0,1,.76-.55,2.51,2.51,0,0,1,1-.2,2.23,2.23,0,0,1,.84.16,1.92,1.92,0,0,1,.67.46,2.13,2.13,0,0,1,.45.74,2.85,2.85,0,0,1,.16,1,.29.29,0,0,1,0,.16.13.13,0,0,1-.11,0Zm3.58-.33a2.28,2.28,0,0,0-.12-.77,1.66,1.66,0,0,0-.34-.58,1.52,1.52,0,0,0-.53-.36,1.74,1.74,0,0,0-.67-.13,2,2,0,0,0-.75.13,1.63,1.63,0,0,0-.57.37,1.87,1.87,0,0,0-.39.58,2.69,2.69,0,0,0-.19.76Z" fill="#fff"/><path d="M719.61,57.39a3.13,3.13,0,0,1,.89-.64,2.48,2.48,0,0,1,1.05-.22,1.93,1.93,0,0,1,.76.14,1.41,1.41,0,0,1,.54.39,1.73,1.73,0,0,1,.32.62,2.84,2.84,0,0,1,.11.81V62h-.21a.19.19,0,0,1-.2-.15l-.08-.69a5.41,5.41,0,0,1-.44.39,2.62,2.62,0,0,1-.46.29,2.33,2.33,0,0,1-.51.18,2.66,2.66,0,0,1-.61.06,1.79,1.79,0,0,1-.53-.08,1.36,1.36,0,0,1-.46-.25,1.22,1.22,0,0,1-.32-.43,1.5,1.5,0,0,1-.12-.63,1.12,1.12,0,0,1,.19-.63,1.59,1.59,0,0,1,.61-.51,4,4,0,0,1,1.07-.35,9.22,9.22,0,0,1,1.56-.15V58.5a1.8,1.8,0,0,0-.32-1.15,1.15,1.15,0,0,0-1-.4,1.82,1.82,0,0,0-.66.11,2.3,2.3,0,0,0-.46.24,2.83,2.83,0,0,0-.31.24.33.33,0,0,1-.2.11.17.17,0,0,1-.1,0,.22.22,0,0,1-.06-.07Zm3.16,2a10.08,10.08,0,0,0-1.32.12,3.83,3.83,0,0,0-.91.26,1.37,1.37,0,0,0-.53.39.81.81,0,0,0-.17.51,1.13,1.13,0,0,0,.09.47.91.91,0,0,0,.24.32.92.92,0,0,0,.34.19,1.37,1.37,0,0,0,.41.06,2.31,2.31,0,0,0,.58-.07,2.14,2.14,0,0,0,.49-.19,2.35,2.35,0,0,0,.42-.29q.19-.17.38-.36Z" fill="#fff"/><path d="M728.6,57.35l-.05,0-.07,0a.27.27,0,0,1-.15-.07l-.25-.16a2.16,2.16,0,0,0-.39-.16,1.92,1.92,0,0,0-.57-.07,2,2,0,0,0-.82.17,1.65,1.65,0,0,0-.61.47,2.08,2.08,0,0,0-.37.75,3.51,3.51,0,0,0-.13,1,3.46,3.46,0,0,0,.13,1,2.14,2.14,0,0,0,.38.74,1.59,1.59,0,0,0,.59.46,1.84,1.84,0,0,0,.77.16,2,2,0,0,0,.65-.09,2.14,2.14,0,0,0,.43-.2,1.84,1.84,0,0,0,.27-.2.27.27,0,0,1,.16-.09.13.13,0,0,1,.11.05l.13.17a1.57,1.57,0,0,1-.31.3,2.15,2.15,0,0,1-.43.24,2.66,2.66,0,0,1-.52.16,2.87,2.87,0,0,1-.58.06,2.3,2.3,0,0,1-.94-.19,2,2,0,0,1-.73-.54,2.52,2.52,0,0,1-.47-.87,3.71,3.71,0,0,1-.17-1.17,3.67,3.67,0,0,1,.16-1.12,2.5,2.5,0,0,1,.47-.87,2.15,2.15,0,0,1,.76-.57,2.51,2.51,0,0,1,1-.2,2.41,2.41,0,0,1,.93.17,2.3,2.3,0,0,1,.71.45Z" fill="#fff"/><path d="M731.55,62.09a1.16,1.16,0,0,1-.85-.3,1.26,1.26,0,0,1-.31-.93V57.18h-.77a.15.15,0,0,1-.1,0,.11.11,0,0,1,0-.09v-.2l.92-.06.13-1.92a.2.2,0,0,1,0-.09.11.11,0,0,1,.09,0h.24v2.05h1.7v.38h-1.7v3.65a1.12,1.12,0,0,0,.06.38.7.7,0,0,0,.16.26.61.61,0,0,0,.23.15.84.84,0,0,0,.29,0,.89.89,0,0,0,.33-.06l.24-.12.17-.12a.18.18,0,0,1,.1-.06.12.12,0,0,1,.09.05l.14.23a1.5,1.5,0,0,1-.52.36A1.63,1.63,0,0,1,731.55,62.09Z" fill="#fff"/><path d="M699.08,75.12a.13.13,0,0,1,.09,0l.21.23a3.63,3.63,0,0,1-.52.46,3.2,3.2,0,0,1-.61.35,3.62,3.62,0,0,1-.73.22,4.48,4.48,0,0,1-.87.08,3.72,3.72,0,0,1-1.46-.28,3.25,3.25,0,0,1-1.14-.79,3.57,3.57,0,0,1-.74-1.23,4.7,4.7,0,0,1-.26-1.61,4.47,4.47,0,0,1,.27-1.59,3.64,3.64,0,0,1,.76-1.23,3.37,3.37,0,0,1,1.17-.8,3.87,3.87,0,0,1,1.5-.28,3.69,3.69,0,0,1,1.39.24,3.75,3.75,0,0,1,1.1.69l-.17.24a.15.15,0,0,1-.14.06.43.43,0,0,1-.21-.12,2.67,2.67,0,0,0-.41-.26,3.46,3.46,0,0,0-.64-.26,3.18,3.18,0,0,0-.93-.12,3.29,3.29,0,0,0-1.27.24,2.8,2.8,0,0,0-1,.68,3.12,3.12,0,0,0-.64,1.08,4.55,4.55,0,0,0,0,2.88,3.15,3.15,0,0,0,.65,1.08,2.77,2.77,0,0,0,1,.67,3.08,3.08,0,0,0,1.21.24,4.54,4.54,0,0,0,.73-.05,2.92,2.92,0,0,0,.59-.16,2.68,2.68,0,0,0,.5-.26,3.86,3.86,0,0,0,.46-.37l.05,0Z" fill="#fff"/><path d="M702.65,70.94a2.6,2.6,0,0,1,1,.2,2.12,2.12,0,0,1,.77.56,2.49,2.49,0,0,1,.48.87,4,4,0,0,1,0,2.28,2.49,2.49,0,0,1-.48.87,2.09,2.09,0,0,1-.77.56,2.85,2.85,0,0,1-2.07,0,2.1,2.1,0,0,1-.77-.56,2.46,2.46,0,0,1-.48-.87,4,4,0,0,1,0-2.28,2.45,2.45,0,0,1,.48-.87,2.13,2.13,0,0,1,.77-.56A2.59,2.59,0,0,1,702.65,70.94Zm0,5.12a2,2,0,0,0,.84-.16,1.59,1.59,0,0,0,.6-.47,2.1,2.1,0,0,0,.36-.74,4,4,0,0,0,0-1.95,2.12,2.12,0,0,0-.36-.75,1.59,1.59,0,0,0-.6-.48,2.18,2.18,0,0,0-1.68,0,1.61,1.61,0,0,0-.6.48,2.16,2.16,0,0,0-.36.75,4,4,0,0,0,0,1.95,2.14,2.14,0,0,0,.36.74,1.6,1.6,0,0,0,.6.47A2,2,0,0,0,702.65,76.07Z" fill="#fff"/><path d="M706.55,76.4V71h.29a.14.14,0,0,1,.16.13l0,.78a2.8,2.8,0,0,1,.72-.72,1.58,1.58,0,0,1,.91-.28,1.3,1.3,0,0,1,.94.34,1.76,1.76,0,0,1,.48.95,1.87,1.87,0,0,1,.27-.57,1.69,1.69,0,0,1,.4-.4,1.61,1.61,0,0,1,.49-.24,2,2,0,0,1,.55-.08,1.86,1.86,0,0,1,.72.13,1.4,1.4,0,0,1,.54.39,1.81,1.81,0,0,1,.34.64,2.92,2.92,0,0,1,.12.86V76.4H713V73a1.85,1.85,0,0,0-.34-1.2,1.19,1.19,0,0,0-1-.41,1.43,1.43,0,0,0-.54.1,1.3,1.3,0,0,0-.45.3,1.48,1.48,0,0,0-.31.5,2,2,0,0,0-.12.7V76.4h-.52V73a2,2,0,0,0-.31-1.2,1.06,1.06,0,0,0-.91-.42,1.39,1.39,0,0,0-.81.26,2.47,2.47,0,0,0-.66.72V76.4Z" fill="#fff"/><path d="M715.74,72a2.86,2.86,0,0,1,.83-.77,2,2,0,0,1,1.07-.29,1.87,1.87,0,0,1,1.54.69,3.23,3.23,0,0,1,.55,2.06,3.79,3.79,0,0,1-.15,1.1,2.61,2.61,0,0,1-.45.89,2.18,2.18,0,0,1-.73.59,2.24,2.24,0,0,1-1,.22,2.08,2.08,0,0,1-.95-.2,2,2,0,0,1-.69-.59V78.3h-.52V71h.29a.14.14,0,0,1,.16.13Zm0,3.23a2.28,2.28,0,0,0,.33.39,1.69,1.69,0,0,0,.36.26,1.49,1.49,0,0,0,.4.14,2.31,2.31,0,0,0,.45,0,1.89,1.89,0,0,0,.83-.17,1.64,1.64,0,0,0,.6-.49,2.21,2.21,0,0,0,.36-.76,3.64,3.64,0,0,0,.12-1,2.85,2.85,0,0,0-.44-1.76,1.52,1.52,0,0,0-1.27-.56,1.76,1.76,0,0,0-1,.28,2.74,2.74,0,0,0-.77.77Z" fill="#fff"/><path d="M723.33,70.94a2.59,2.59,0,0,1,1,.2,2.11,2.11,0,0,1,.77.56,2.48,2.48,0,0,1,.48.87,4,4,0,0,1,0,2.28,2.48,2.48,0,0,1-.48.87,2.08,2.08,0,0,1-.77.56,2.85,2.85,0,0,1-2.07,0,2.1,2.1,0,0,1-.77-.56,2.46,2.46,0,0,1-.48-.87,4,4,0,0,1,0-2.28,2.45,2.45,0,0,1,.48-.87,2.13,2.13,0,0,1,.77-.56A2.59,2.59,0,0,1,723.33,70.94Zm0,5.12a2,2,0,0,0,.84-.16,1.6,1.6,0,0,0,.6-.47,2.08,2.08,0,0,0,.36-.74,4,4,0,0,0,0-1.95,2.11,2.11,0,0,0-.36-.75,1.6,1.6,0,0,0-.6-.48,2.18,2.18,0,0,0-1.68,0,1.6,1.6,0,0,0-.6.48,2.15,2.15,0,0,0-.36.75,3.94,3.94,0,0,0,0,1.95,2.12,2.12,0,0,0,.36.74,1.6,1.6,0,0,0,.6.47A2,2,0,0,0,723.33,76.07Z" fill="#fff"/><path d="M727.72,72a3.07,3.07,0,0,1,.86-.75,2.14,2.14,0,0,1,1.09-.28,2,2,0,0,1,.78.14,1.43,1.43,0,0,1,.56.41,1.79,1.79,0,0,1,.33.64,2.9,2.9,0,0,1,.11.84V76.4h-.52V73a1.84,1.84,0,0,0-.35-1.19,1.27,1.27,0,0,0-1.05-.43,1.9,1.9,0,0,0-1,.27,2.78,2.78,0,0,0-.81.74v4h-.52V71h.29a.14.14,0,0,1,.16.13Z" fill="#fff"/><path d="M733.35,73.5v.1a3.63,3.63,0,0,0,.14,1.06,2.18,2.18,0,0,0,.4.77,1.65,1.65,0,0,0,.63.47,2.07,2.07,0,0,0,.82.16A2.45,2.45,0,0,0,736,76a2.61,2.61,0,0,0,.5-.2,2.7,2.7,0,0,0,.32-.2.36.36,0,0,1,.17-.09.12.12,0,0,1,.11.05l.14.17a1.47,1.47,0,0,1-.34.3,2.46,2.46,0,0,1-.47.24,3.43,3.43,0,0,1-.56.16,3,3,0,0,1-.6.06,2.57,2.57,0,0,1-1-.19,2.12,2.12,0,0,1-.78-.56,2.53,2.53,0,0,1-.5-.9,3.88,3.88,0,0,1-.18-1.22,3.33,3.33,0,0,1,.16-1.07,2.45,2.45,0,0,1,.48-.84,2.18,2.18,0,0,1,.76-.55,2.51,2.51,0,0,1,1-.2,2.24,2.24,0,0,1,.84.16,1.91,1.91,0,0,1,.67.46,2.13,2.13,0,0,1,.45.74,2.83,2.83,0,0,1,.17,1,.29.29,0,0,1,0,.16.12.12,0,0,1-.11,0Zm3.59-.33a2.31,2.31,0,0,0-.12-.77,1.66,1.66,0,0,0-.34-.58,1.5,1.5,0,0,0-.53-.36,1.75,1.75,0,0,0-.67-.13,2,2,0,0,0-.74.13,1.63,1.63,0,0,0-.57.37,1.87,1.87,0,0,0-.39.58,2.69,2.69,0,0,0-.19.76Z" fill="#fff"/><path d="M739.29,72a3.07,3.07,0,0,1,.86-.75,2.14,2.14,0,0,1,1.09-.28,2,2,0,0,1,.78.14,1.43,1.43,0,0,1,.56.41,1.79,1.79,0,0,1,.33.64A2.9,2.9,0,0,1,743,73V76.4h-.52V73a1.84,1.84,0,0,0-.35-1.19,1.27,1.27,0,0,0-1.05-.43,1.9,1.9,0,0,0-1,.27,2.78,2.78,0,0,0-.81.74v4h-.52V71h.29a.14.14,0,0,1,.16.13Z" fill="#fff"/><path d="M746.14,76.49a1.16,1.16,0,0,1-.85-.3,1.26,1.26,0,0,1-.31-.93V71.58h-.77a.15.15,0,0,1-.1,0,.11.11,0,0,1,0-.09v-.2l.92-.06.13-1.92a.2.2,0,0,1,0-.09.11.11,0,0,1,.09,0h.24v2.05h1.7v.38h-1.7v3.65a1.12,1.12,0,0,0,.06.38.7.7,0,0,0,.16.26.61.61,0,0,0,.23.15.84.84,0,0,0,.29,0,.89.89,0,0,0,.33-.06l.24-.12.17-.12a.18.18,0,0,1,.1-.06.12.12,0,0,1,.09.05l.14.23a1.5,1.5,0,0,1-.52.36A1.63,1.63,0,0,1,746.14,76.49Z" fill="#fff"/><path d="M4.93,155.9a6.5,6.5,0,0,1,1.68.19,3.2,3.2,0,0,1,1.18.56,2.27,2.27,0,0,1,.69.91,3.14,3.14,0,0,1,.22,1.22,2.44,2.44,0,0,1-.16.86,2.67,2.67,0,0,1-.45.77,2.83,2.83,0,0,1-.72.61,3.48,3.48,0,0,1-1,.4,3.61,3.61,0,0,1,2.05.88,2.42,2.42,0,0,1,.72,1.82,3.15,3.15,0,0,1-.26,1.3,2.62,2.62,0,0,1-.74,1A3.41,3.41,0,0,1,7,167a5.65,5.65,0,0,1-1.62.21H1.67V155.9Zm-2.43.65v4.65H4.94a4,4,0,0,0,1.34-.2,2.66,2.66,0,0,0,.91-.53,2.06,2.06,0,0,0,.52-.74,2.27,2.27,0,0,0,.17-.86,2.1,2.1,0,0,0-.72-1.73,3.52,3.52,0,0,0-2.24-.59Zm2.84,10a3.42,3.42,0,0,0,2.25-.64,2.24,2.24,0,0,0,.76-1.81,2.21,2.21,0,0,0-.2-1,2,2,0,0,0-.59-.73,2.73,2.73,0,0,0-.94-.46,4.61,4.61,0,0,0-1.27-.16H2.5v4.77Z"/><path d="M17.41,159.26v8H17a.21.21,0,0,1-.23-.21l-.07-1.18a4.51,4.51,0,0,1-1.28,1.1,3.18,3.18,0,0,1-1.61.42,3,3,0,0,1-1.16-.21,2.13,2.13,0,0,1-.82-.6,2.66,2.66,0,0,1-.5-.94,4.27,4.27,0,0,1-.17-1.25v-5.09h.77v5.09a2.73,2.73,0,0,0,.51,1.76,1.88,1.88,0,0,0,1.56.64,2.83,2.83,0,0,0,1.45-.4,4.1,4.1,0,0,0,1.2-1.1v-6Z"/><path d="M21.2,156.51a.62.62,0,0,1-.06.27A.82.82,0,0,1,21,157a.73.73,0,0,1-.22.15.68.68,0,0,1-.54,0A.73.73,0,0,1,20,157a.75.75,0,0,1-.15-.22.65.65,0,0,1-.06-.27A.72.72,0,0,1,20,156a.73.73,0,0,1,.22-.15.69.69,0,0,1,.54,0A.73.73,0,0,1,21,156a.78.78,0,0,1,.16.23A.67.67,0,0,1,21.2,156.51Zm-.33,2.74v8h-.76v-8Z"/><path d="M24.42,155.58v11.64h-.77V155.58Z"/><path d="M33.31,155.58v11.64H32.9a.22.22,0,0,1-.24-.21l-.08-1.26a4.24,4.24,0,0,1-1.23,1.14,3,3,0,0,1-1.58.42,2.77,2.77,0,0,1-2.29-1,4.8,4.8,0,0,1-.82-3,5.6,5.6,0,0,1,.23-1.63,3.91,3.91,0,0,1,.67-1.31,3.16,3.16,0,0,1,1.08-.88,3.3,3.3,0,0,1,1.48-.32,3.1,3.1,0,0,1,1.4.3,2.93,2.93,0,0,1,1,.88v-4.72ZM32.55,161a2.72,2.72,0,0,0-1-1,3,3,0,0,0-2.5,0,2.42,2.42,0,0,0-.88.72,3.26,3.26,0,0,0-.54,1.12,5.39,5.39,0,0,0-.18,1.44,4.24,4.24,0,0,0,.65,2.61,2.25,2.25,0,0,0,1.88.84,2.64,2.64,0,0,0,1.43-.41,3.9,3.9,0,0,0,1.14-1.14Z"/><path d="M5.69,184.24a.2.2,0,0,1-.18.11.42.42,0,0,1-.22-.1,3.31,3.31,0,0,0-.36-.22,3,3,0,0,0-.56-.22,2.9,2.9,0,0,0-.82-.1,2.37,2.37,0,0,0-.79.12,1.94,1.94,0,0,0-.61.33,1.47,1.47,0,0,0-.39.48,1.3,1.3,0,0,0-.14.58,1,1,0,0,0,.19.62,1.65,1.65,0,0,0,.5.42,3.66,3.66,0,0,0,.71.3l.81.26q.41.13.81.28a3,3,0,0,1,.71.39,1.85,1.85,0,0,1,.5.57,1.62,1.62,0,0,1,.19.82,2.52,2.52,0,0,1-.18,1,2.16,2.16,0,0,1-.54.78,2.6,2.6,0,0,1-.88.52,3.41,3.41,0,0,1-1.19.19,3.57,3.57,0,0,1-1.45-.27,4.07,4.07,0,0,1-1.09-.7l.18-.27A.29.29,0,0,1,1,190a.26.26,0,0,1,.14,0,.43.43,0,0,1,.25.13,2.77,2.77,0,0,0,.4.28,3.44,3.44,0,0,0,.61.28,2.75,2.75,0,0,0,.9.13,2.57,2.57,0,0,0,.89-.14,1.84,1.84,0,0,0,.64-.38,1.59,1.59,0,0,0,.39-.56,1.79,1.79,0,0,0,.13-.68,1.1,1.1,0,0,0-.19-.66,1.65,1.65,0,0,0-.5-.45,3.48,3.48,0,0,0-.71-.31l-.81-.26q-.42-.13-.81-.28a3,3,0,0,1-.71-.38,1.84,1.84,0,0,1-.5-.56,1.63,1.63,0,0,1-.19-.83,1.89,1.89,0,0,1,.18-.82,2.08,2.08,0,0,1,.52-.69,2.57,2.57,0,0,1,.83-.47,3.22,3.22,0,0,1,1.1-.18,3.72,3.72,0,0,1,1.29.21,3,3,0,0,1,1,.64Z"/><path d="M8.38,186.92v.15a5.4,5.4,0,0,0,.21,1.58,3.23,3.23,0,0,0,.59,1.14,2.44,2.44,0,0,0,.93.69,3.06,3.06,0,0,0,1.22.23,3.64,3.64,0,0,0,1-.13,3.87,3.87,0,0,0,.74-.3,4.14,4.14,0,0,0,.48-.3.53.53,0,0,1,.26-.13.19.19,0,0,1,.16.08l.21.26a2.17,2.17,0,0,1-.51.45,3.62,3.62,0,0,1-.7.36,5.12,5.12,0,0,1-.83.24,4.58,4.58,0,0,1-.89.09A3.8,3.8,0,0,1,9.78,191a3.16,3.16,0,0,1-1.15-.83,3.78,3.78,0,0,1-.74-1.33,5.75,5.75,0,0,1-.26-1.8,4.9,4.9,0,0,1,.24-1.58,3.6,3.6,0,0,1,.7-1.25,3.2,3.2,0,0,1,1.13-.82,3.7,3.7,0,0,1,1.52-.3,3.31,3.31,0,0,1,1.25.23,2.84,2.84,0,0,1,1,.68,3.18,3.18,0,0,1,.67,1.09,4.21,4.21,0,0,1,.24,1.49.42.42,0,0,1,0,.24.19.19,0,0,1-.16.06Zm5.31-.49a3.42,3.42,0,0,0-.18-1.15,2.43,2.43,0,0,0-.51-.86,2.22,2.22,0,0,0-.78-.54,2.58,2.58,0,0,0-1-.19,3,3,0,0,0-1.1.19,2.42,2.42,0,0,0-.84.55,2.76,2.76,0,0,0-.57.86,4,4,0,0,0-.29,1.13Z"/><path d="M17.18,185.18a5,5,0,0,1,.42-.87,2.76,2.76,0,0,1,.54-.64,2.25,2.25,0,0,1,.69-.4,2.44,2.44,0,0,1,.84-.14,2.71,2.71,0,0,1,.49,0,1.25,1.25,0,0,1,.42.16l-.06.53a.15.15,0,0,1-.15.13,1.19,1.19,0,0,1-.29-.06,2,2,0,0,0-.52-.06,2.22,2.22,0,0,0-.82.14,1.9,1.9,0,0,0-.64.42,2.68,2.68,0,0,0-.5.69,6.56,6.56,0,0,0-.39.95v5.15h-.77v-8h.41a.27.27,0,0,1,.19.06.33.33,0,0,1,.07.19Z"/><path d="M28.5,183.26l-3.36,8h-.67l-3.36-8h.6a.28.28,0,0,1,.18.06.29.29,0,0,1,.1.13l2.63,6.28a6.09,6.09,0,0,1,.19.7,5.14,5.14,0,0,1,.2-.7l2.64-6.28a.37.37,0,0,1,.11-.14.27.27,0,0,1,.16-.05Z"/><path d="M30.22,186.92v.15a5.4,5.4,0,0,0,.21,1.58,3.23,3.23,0,0,0,.59,1.14,2.44,2.44,0,0,0,.93.69,3.06,3.06,0,0,0,1.22.23,3.64,3.64,0,0,0,1-.13,3.87,3.87,0,0,0,.74-.3,4.14,4.14,0,0,0,.48-.3.53.53,0,0,1,.26-.13.19.19,0,0,1,.16.08l.21.26a2.17,2.17,0,0,1-.51.45,3.62,3.62,0,0,1-.7.36,5.12,5.12,0,0,1-.83.24,4.58,4.58,0,0,1-.89.09,3.8,3.8,0,0,1-1.49-.28,3.16,3.16,0,0,1-1.15-.83,3.78,3.78,0,0,1-.74-1.33,5.75,5.75,0,0,1-.26-1.8,4.9,4.9,0,0,1,.24-1.58,3.6,3.6,0,0,1,.7-1.25,3.2,3.2,0,0,1,1.13-.82,3.7,3.7,0,0,1,1.52-.3,3.31,3.31,0,0,1,1.25.23,2.84,2.84,0,0,1,1,.68,3.18,3.18,0,0,1,.67,1.09,4.21,4.21,0,0,1,.24,1.49.42.42,0,0,1,0,.24.19.19,0,0,1-.16.06Zm5.31-.49a3.42,3.42,0,0,0-.18-1.15,2.43,2.43,0,0,0-.51-.86,2.22,2.22,0,0,0-.78-.54,2.58,2.58,0,0,0-1-.19,3,3,0,0,0-1.1.19,2.42,2.42,0,0,0-.84.55,2.76,2.76,0,0,0-.57.86,4,4,0,0,0-.29,1.13Z"/><path d="M39,185.18a5,5,0,0,1,.42-.87,2.76,2.76,0,0,1,.54-.64,2.25,2.25,0,0,1,.69-.4,2.44,2.44,0,0,1,.84-.14,2.71,2.71,0,0,1,.49,0,1.25,1.25,0,0,1,.42.16l-.06.53a.15.15,0,0,1-.15.13,1.19,1.19,0,0,1-.29-.06,2,2,0,0,0-.52-.06,2.22,2.22,0,0,0-.82.14,1.9,1.9,0,0,0-.64.42,2.68,2.68,0,0,0-.5.69,6.56,6.56,0,0,0-.39.95v5.15h-.77v-8h.41a.27.27,0,0,1,.19.06.33.33,0,0,1,.07.19Z"/><path d="M43.19,186.14h3.72v.65H43.19Z"/><path d="M53.7,184.24a.2.2,0,0,1-.18.11.42.42,0,0,1-.22-.1,3.31,3.31,0,0,0-.36-.22,3,3,0,0,0-.56-.22,2.9,2.9,0,0,0-.82-.1,2.37,2.37,0,0,0-.79.12,1.94,1.94,0,0,0-.61.33,1.47,1.47,0,0,0-.39.48,1.3,1.3,0,0,0-.14.58,1,1,0,0,0,.19.62,1.65,1.65,0,0,0,.5.42,3.66,3.66,0,0,0,.71.3l.81.26q.41.13.81.28a3,3,0,0,1,.71.39,1.85,1.85,0,0,1,.5.57,1.62,1.62,0,0,1,.19.82,2.52,2.52,0,0,1-.18,1,2.16,2.16,0,0,1-.54.78,2.6,2.6,0,0,1-.88.52,3.41,3.41,0,0,1-1.19.19,3.57,3.57,0,0,1-1.45-.27,4.07,4.07,0,0,1-1.09-.7l.18-.27A.29.29,0,0,1,49,190a.26.26,0,0,1,.14,0,.43.43,0,0,1,.25.13,2.77,2.77,0,0,0,.4.28,3.44,3.44,0,0,0,.61.28,2.75,2.75,0,0,0,.9.13,2.57,2.57,0,0,0,.89-.14,1.84,1.84,0,0,0,.64-.38,1.59,1.59,0,0,0,.39-.56,1.79,1.79,0,0,0,.13-.68,1.1,1.1,0,0,0-.19-.66,1.65,1.65,0,0,0-.5-.45,3.48,3.48,0,0,0-.71-.31l-.81-.26q-.42-.13-.81-.28a3,3,0,0,1-.71-.38,1.84,1.84,0,0,1-.5-.56,1.63,1.63,0,0,1-.19-.83,1.89,1.89,0,0,1,.18-.82,2.08,2.08,0,0,1,.52-.69,2.57,2.57,0,0,1,.83-.47,3.22,3.22,0,0,1,1.1-.18,3.72,3.72,0,0,1,1.29.21,3,3,0,0,1,1,.64Z"/><path d="M57.29,180.51a.62.62,0,0,1-.06.27.82.82,0,0,1-.16.22.73.73,0,0,1-.22.15.68.68,0,0,1-.54,0,.73.73,0,0,1-.22-.15.75.75,0,0,1-.15-.22.65.65,0,0,1-.06-.27.72.72,0,0,1,.21-.5.73.73,0,0,1,.22-.15.69.69,0,0,1,.54,0,.73.73,0,0,1,.22.15.78.78,0,0,1,.16.23A.67.67,0,0,1,57.29,180.51ZM57,183.26v8h-.76v-8Z"/><path d="M65.87,179.58v11.64h-.42a.22.22,0,0,1-.24-.21l-.08-1.26a4.24,4.24,0,0,1-1.23,1.14,3,3,0,0,1-1.58.42,2.77,2.77,0,0,1-2.29-1,4.8,4.8,0,0,1-.82-3,5.6,5.6,0,0,1,.23-1.63,3.91,3.91,0,0,1,.67-1.31,3.16,3.16,0,0,1,1.08-.88,3.3,3.3,0,0,1,1.48-.32,3.1,3.1,0,0,1,1.4.3,2.93,2.93,0,0,1,1,.88v-4.72ZM65.11,185a2.72,2.72,0,0,0-1-1,3,3,0,0,0-2.5,0,2.42,2.42,0,0,0-.88.72,3.26,3.26,0,0,0-.54,1.12,5.39,5.39,0,0,0-.18,1.44,4.24,4.24,0,0,0,.65,2.61,2.25,2.25,0,0,0,1.88.84A2.64,2.64,0,0,0,64,190.3a3.9,3.9,0,0,0,1.14-1.14Z"/><path d="M68.77,186.92v.15a5.4,5.4,0,0,0,.21,1.58,3.23,3.23,0,0,0,.59,1.14,2.44,2.44,0,0,0,.93.69,3.06,3.06,0,0,0,1.22.23,3.64,3.64,0,0,0,1-.13,3.87,3.87,0,0,0,.74-.3A4.14,4.14,0,0,0,74,190a.53.53,0,0,1,.26-.13.19.19,0,0,1,.16.08l.21.26a2.17,2.17,0,0,1-.51.45,3.62,3.62,0,0,1-.7.36,5.12,5.12,0,0,1-.83.24,4.58,4.58,0,0,1-.89.09,3.8,3.8,0,0,1-1.49-.28,3.16,3.16,0,0,1-1.15-.83,3.78,3.78,0,0,1-.74-1.33,5.75,5.75,0,0,1-.26-1.8,4.9,4.9,0,0,1,.24-1.58,3.6,3.6,0,0,1,.7-1.25,3.2,3.2,0,0,1,1.13-.82,3.7,3.7,0,0,1,1.52-.3,3.31,3.31,0,0,1,1.25.23,2.84,2.84,0,0,1,1,.68,3.18,3.18,0,0,1,.67,1.09,4.21,4.21,0,0,1,.24,1.49.42.42,0,0,1,0,.24.19.19,0,0,1-.16.06Zm5.31-.49a3.42,3.42,0,0,0-.18-1.15,2.43,2.43,0,0,0-.51-.86,2.22,2.22,0,0,0-.78-.54,2.58,2.58,0,0,0-1-.19,3,3,0,0,0-1.1.19,2.42,2.42,0,0,0-.84.55,2.76,2.76,0,0,0-.57.86,4,4,0,0,0-.29,1.13Z"/><path d="M11.21,209.55a6.7,6.7,0,0,1-.39,2.36,5.11,5.11,0,0,1-1.1,1.78A4.79,4.79,0,0,1,8,214.82a6,6,0,0,1-2.2.39H1.67V203.9H5.81a5.94,5.94,0,0,1,2.2.39,4.76,4.76,0,0,1,1.71,1.13,5.09,5.09,0,0,1,1.1,1.78A6.67,6.67,0,0,1,11.21,209.55Zm-.85,0a6.33,6.33,0,0,0-.33-2.11,4.41,4.41,0,0,0-.93-1.57,4,4,0,0,0-1.44-1,5,5,0,0,0-1.86-.34H2.5v10H5.81a5,5,0,0,0,1.86-.34,4,4,0,0,0,1.44-1,4.4,4.4,0,0,0,.93-1.57A6.36,6.36,0,0,0,10.36,209.55Z"/><path d="M23.89,209.55a6.87,6.87,0,0,1-.39,2.38,5.27,5.27,0,0,1-1.1,1.82,4.87,4.87,0,0,1-1.71,1.17,6,6,0,0,1-4.39,0,4.88,4.88,0,0,1-1.7-1.17,5.27,5.27,0,0,1-1.1-1.82,7.39,7.39,0,0,1,0-4.75,5.27,5.27,0,0,1,1.1-1.82,4.93,4.93,0,0,1,1.7-1.17,5.61,5.61,0,0,1,2.19-.42,5.7,5.7,0,0,1,2.2.41,4.84,4.84,0,0,1,1.71,1.17,5.32,5.32,0,0,1,1.1,1.83A6.84,6.84,0,0,1,23.89,209.55Zm-.85,0a6.46,6.46,0,0,0-.33-2.13,4.54,4.54,0,0,0-.93-1.6,4,4,0,0,0-1.44-1,5.11,5.11,0,0,0-3.7,0,4,4,0,0,0-1.44,1,4.55,4.55,0,0,0-.94,1.6,7,7,0,0,0,0,4.26,4.57,4.57,0,0,0,.94,1.6,4,4,0,0,0,1.44,1,5.16,5.16,0,0,0,3.7,0,4,4,0,0,0,1.44-1,4.56,4.56,0,0,0,.93-1.6A6.44,6.44,0,0,0,23,209.55Z"/><path d="M37.68,203.9v11.32H37v-9.65a4.24,4.24,0,0,1,0-.44L32.54,213a.35.35,0,0,1-.32.21h-.13a.35.35,0,0,1-.32-.21l-4.58-7.93c0,.16,0,.31,0,.46v9.65H26.5V203.9h.57a.53.53,0,0,1,.18,0,.29.29,0,0,1,.13.13l4.57,7.87a3.27,3.27,0,0,1,.21.48l.1-.25.12-.24L36.81,204a.28.28,0,0,1,.13-.13.56.56,0,0,1,.18,0Z"/><path d="M40.48,214.6a.75.75,0,0,1,.06-.29.72.72,0,0,1,.16-.24.78.78,0,0,1,.23-.16.72.72,0,0,1,.58,0,.76.76,0,0,1,.24.16.78.78,0,0,1,.16.24.71.71,0,0,1,.06.29.69.69,0,0,1-.06.29.79.79,0,0,1-.16.23.73.73,0,0,1-.24.16.75.75,0,0,1-.29.06.72.72,0,0,1-.74-.74Z"/><path d="M203,167.22h-.7a.53.53,0,0,1-.23,0,.45.45,0,0,1-.17-.16l-3.63-4.59-.13-.15a.52.52,0,0,0-.15-.1l-.2-.05-.28,0h-1.48v5.12h-.82V155.9h2.9a4.72,4.72,0,0,1,2.92.76,2.64,2.64,0,0,1,1,2.22,3,3,0,0,1-.22,1.18,2.78,2.78,0,0,1-.64.94,3.37,3.37,0,0,1-1,.66,4.84,4.84,0,0,1-1.34.34,1.31,1.31,0,0,1,.34.32Zm-5-5.73a4.66,4.66,0,0,0,1.35-.18,2.91,2.91,0,0,0,1-.52A2.23,2.23,0,0,0,201,160a2.53,2.53,0,0,0,.22-1.06,2.09,2.09,0,0,0-.79-1.79,3.82,3.82,0,0,0-2.3-.58h-2.07v4.94Z"/><path d="M204.36,162.92v.15a5.4,5.4,0,0,0,.21,1.58,3.23,3.23,0,0,0,.59,1.14,2.44,2.44,0,0,0,.93.69,3.06,3.06,0,0,0,1.22.23,3.64,3.64,0,0,0,1-.13,3.87,3.87,0,0,0,.74-.3,4.14,4.14,0,0,0,.48-.3.53.53,0,0,1,.26-.13.19.19,0,0,1,.16.08l.21.26a2.17,2.17,0,0,1-.51.45,3.62,3.62,0,0,1-.7.36,5.12,5.12,0,0,1-.83.24,4.58,4.58,0,0,1-.89.09,3.8,3.8,0,0,1-1.49-.28,3.16,3.16,0,0,1-1.15-.83,3.78,3.78,0,0,1-.74-1.33,5.75,5.75,0,0,1-.26-1.8,4.9,4.9,0,0,1,.24-1.58,3.6,3.6,0,0,1,.7-1.25,3.2,3.2,0,0,1,1.13-.82,3.7,3.7,0,0,1,1.52-.3,3.31,3.31,0,0,1,1.25.23,2.84,2.84,0,0,1,1,.68,3.18,3.18,0,0,1,.67,1.09,4.21,4.21,0,0,1,.24,1.49.42.42,0,0,1,0,.24.19.19,0,0,1-.16.06Zm5.31-.49a3.42,3.42,0,0,0-.18-1.15,2.43,2.43,0,0,0-.51-.86,2.22,2.22,0,0,0-.78-.54,2.58,2.58,0,0,0-1-.19,3,3,0,0,0-1.1.19,2.42,2.42,0,0,0-.84.55,2.76,2.76,0,0,0-.57.86,4,4,0,0,0-.29,1.13Z"/><path d="M218.84,159.61v.26c0,.12-.08.19-.22.22l-1.22.09a2.35,2.35,0,0,1,.34.68,2.67,2.67,0,0,1,.12.82,2.59,2.59,0,0,1-.2,1,2.28,2.28,0,0,1-.58.8,2.64,2.64,0,0,1-.9.52,3.48,3.48,0,0,1-1.16.18,3.54,3.54,0,0,1-1.24-.21,1.72,1.72,0,0,0-.53.45.86.86,0,0,0-.2.52.62.62,0,0,0,.24.53,1.59,1.59,0,0,0,.64.27,5.55,5.55,0,0,0,.9.11l1,.05q.53,0,1,.1a3.29,3.29,0,0,1,.9.25,1.63,1.63,0,0,1,.64.5,1.39,1.39,0,0,1,.24.86,2,2,0,0,1-.25,1,2.53,2.53,0,0,1-.72.81,3.79,3.79,0,0,1-1.13.56,4.87,4.87,0,0,1-1.49.21,5.65,5.65,0,0,1-1.47-.17,3.5,3.5,0,0,1-1.06-.46,2,2,0,0,1-.64-.68,1.64,1.64,0,0,1-.22-.82,1.54,1.54,0,0,1,.42-1.08,2.77,2.77,0,0,1,1.14-.71,1.55,1.55,0,0,1-.64-.4,1,1,0,0,1-.24-.71,1.07,1.07,0,0,1,.06-.35,1.46,1.46,0,0,1,.19-.36,2,2,0,0,1,.31-.34,2.43,2.43,0,0,1,.42-.29,2.36,2.36,0,0,1-.88-.87,2.49,2.49,0,0,1-.32-1.27,2.58,2.58,0,0,1,.2-1,2.28,2.28,0,0,1,.58-.8,2.64,2.64,0,0,1,.9-.52,3.51,3.51,0,0,1,1.16-.18,3.47,3.47,0,0,1,1,.13,2.89,2.89,0,0,1,.8.36Zm-.83,8.14a.89.89,0,0,0-.2-.6,1.3,1.3,0,0,0-.52-.36,3.11,3.11,0,0,0-.76-.18q-.43-.05-.9-.08l-.94,0a7.57,7.57,0,0,1-.89-.1,3.62,3.62,0,0,0-.56.28,2,2,0,0,0-.44.36,1.6,1.6,0,0,0-.29.44,1.28,1.28,0,0,0,.08,1.16,1.59,1.59,0,0,0,.53.52,3,3,0,0,0,.85.35,4.75,4.75,0,0,0,1.16.13,4.49,4.49,0,0,0,1.13-.14,3.17,3.17,0,0,0,.91-.38,2,2,0,0,0,.61-.59A1.37,1.37,0,0,0,218,167.75Zm-3-4.06a2.62,2.62,0,0,0,.91-.15,1.9,1.9,0,0,0,.67-.41,1.77,1.77,0,0,0,.42-.63,2.23,2.23,0,0,0,.14-.82,2.2,2.2,0,0,0-.15-.82,1.79,1.79,0,0,0-.42-.64,1.89,1.89,0,0,0-.67-.41,2.87,2.87,0,0,0-1.8,0,1.89,1.89,0,0,0-.67.41,1.74,1.74,0,0,0-.42.64,2.26,2.26,0,0,0-.14.82,2.23,2.23,0,0,0,.14.82,1.74,1.74,0,0,0,.42.63,2,2,0,0,0,.67.41A2.56,2.56,0,0,0,215,163.7Z"/><path d="M221.78,156.51a.62.62,0,0,1-.06.27.82.82,0,0,1-.16.22.73.73,0,0,1-.22.15.68.68,0,0,1-.54,0,.73.73,0,0,1-.22-.15.75.75,0,0,1-.15-.22.65.65,0,0,1-.06-.27.72.72,0,0,1,.21-.5.73.73,0,0,1,.22-.15.69.69,0,0,1,.54,0,.73.73,0,0,1,.22.15.78.78,0,0,1,.16.23A.67.67,0,0,1,221.78,156.51Zm-.33,2.74v8h-.76v-8Z"/><path d="M228.54,160.24a.2.2,0,0,1-.18.11.42.42,0,0,1-.22-.1,3.31,3.31,0,0,0-.36-.22,3,3,0,0,0-.56-.22,2.9,2.9,0,0,0-.82-.1,2.37,2.37,0,0,0-.79.12,1.94,1.94,0,0,0-.61.33,1.47,1.47,0,0,0-.39.48,1.3,1.3,0,0,0-.14.58,1,1,0,0,0,.19.62,1.65,1.65,0,0,0,.5.42,3.66,3.66,0,0,0,.71.3l.81.26q.41.13.81.28a3,3,0,0,1,.71.39,1.85,1.85,0,0,1,.5.57,1.62,1.62,0,0,1,.19.82,2.52,2.52,0,0,1-.18,1,2.16,2.16,0,0,1-.54.78,2.6,2.6,0,0,1-.88.52,3.41,3.41,0,0,1-1.19.19,3.57,3.57,0,0,1-1.45-.27,4.07,4.07,0,0,1-1.09-.7l.18-.27a.29.29,0,0,1,.09-.1.26.26,0,0,1,.14,0,.43.43,0,0,1,.25.13,2.77,2.77,0,0,0,.4.28,3.44,3.44,0,0,0,.61.28,2.75,2.75,0,0,0,.9.13,2.57,2.57,0,0,0,.89-.14,1.84,1.84,0,0,0,.64-.38,1.59,1.59,0,0,0,.39-.56,1.79,1.79,0,0,0,.13-.68,1.1,1.1,0,0,0-.19-.66,1.65,1.65,0,0,0-.5-.45,3.48,3.48,0,0,0-.71-.31l-.81-.26q-.42-.13-.81-.28a3,3,0,0,1-.71-.38,1.84,1.84,0,0,1-.5-.56,1.63,1.63,0,0,1-.19-.83,1.89,1.89,0,0,1,.18-.82,2.08,2.08,0,0,1,.52-.69,2.57,2.57,0,0,1,.83-.47,3.22,3.22,0,0,1,1.1-.18,3.72,3.72,0,0,1,1.29.21,3,3,0,0,1,1,.64Z"/><path d="M233.14,167.34a1.71,1.71,0,0,1-1.26-.45,1.87,1.87,0,0,1-.45-1.38v-5.44h-1.14a.21.21,0,0,1-.14,0,.17.17,0,0,1-.06-.14v-.3l1.36-.1.19-2.85a.3.3,0,0,1,.06-.13.17.17,0,0,1,.14-.06h.36v3h2.51v.57h-2.51v5.4a1.68,1.68,0,0,0,.08.56,1.06,1.06,0,0,0,.23.39.9.9,0,0,0,.35.22,1.25,1.25,0,0,0,.43.07,1.33,1.33,0,0,0,.5-.08,2.07,2.07,0,0,0,.36-.18l.25-.18a.27.27,0,0,1,.15-.08.18.18,0,0,1,.13.08l.21.34a2.21,2.21,0,0,1-.77.54A2.41,2.41,0,0,1,233.14,167.34Z"/><path d="M236.69,162.92v.15a5.4,5.4,0,0,0,.21,1.58,3.23,3.23,0,0,0,.59,1.14,2.44,2.44,0,0,0,.93.69,3.06,3.06,0,0,0,1.22.23,3.64,3.64,0,0,0,1-.13,3.87,3.87,0,0,0,.74-.3,4.14,4.14,0,0,0,.48-.3.53.53,0,0,1,.26-.13.19.19,0,0,1,.16.08l.21.26a2.17,2.17,0,0,1-.51.45,3.62,3.62,0,0,1-.7.36,5.12,5.12,0,0,1-.83.24,4.58,4.58,0,0,1-.89.09,3.8,3.8,0,0,1-1.49-.28,3.16,3.16,0,0,1-1.15-.83,3.78,3.78,0,0,1-.74-1.33,5.75,5.75,0,0,1-.26-1.8,4.9,4.9,0,0,1,.24-1.58,3.6,3.6,0,0,1,.7-1.25,3.2,3.2,0,0,1,1.13-.82,3.7,3.7,0,0,1,1.52-.3,3.31,3.31,0,0,1,1.25.23,2.84,2.84,0,0,1,1,.68,3.18,3.18,0,0,1,.67,1.09,4.21,4.21,0,0,1,.24,1.49.42.42,0,0,1,0,.24.19.19,0,0,1-.16.06Zm5.31-.49a3.42,3.42,0,0,0-.18-1.15,2.43,2.43,0,0,0-.51-.86,2.22,2.22,0,0,0-.78-.54,2.58,2.58,0,0,0-1-.19,3,3,0,0,0-1.1.19,2.42,2.42,0,0,0-.84.55,2.76,2.76,0,0,0-.57.86,4,4,0,0,0-.29,1.13Z"/><path d="M245.49,161.18a5,5,0,0,1,.42-.87,2.76,2.76,0,0,1,.54-.64,2.25,2.25,0,0,1,.69-.4,2.44,2.44,0,0,1,.84-.14,2.71,2.71,0,0,1,.49,0,1.25,1.25,0,0,1,.42.16l-.06.53a.15.15,0,0,1-.15.13,1.19,1.19,0,0,1-.29-.06,2,2,0,0,0-.52-.06,2.22,2.22,0,0,0-.82.14,1.9,1.9,0,0,0-.64.42,2.68,2.68,0,0,0-.5.69,6.56,6.56,0,0,0-.39.95v5.15h-.77v-8h.41a.27.27,0,0,1,.19.06.33.33,0,0,1,.07.19Z"/><path d="M254.19,160.38a4.64,4.64,0,0,1,1.31-.94,3.66,3.66,0,0,1,1.56-.32,2.83,2.83,0,0,1,1.12.2,2.06,2.06,0,0,1,.8.58,2.55,2.55,0,0,1,.48.92,4.23,4.23,0,0,1,.16,1.2v5.18h-.3a.27.27,0,0,1-.3-.22l-.11-1a8.34,8.34,0,0,1-.65.58,3.89,3.89,0,0,1-.68.43,3.51,3.51,0,0,1-.76.27,3.94,3.94,0,0,1-.9.1,2.64,2.64,0,0,1-.79-.12,2,2,0,0,1-.68-.37,1.78,1.78,0,0,1-.48-.64,2.21,2.21,0,0,1-.18-.93,1.66,1.66,0,0,1,.29-.94,2.37,2.37,0,0,1,.9-.75,6,6,0,0,1,1.58-.51,13.63,13.63,0,0,1,2.32-.22V162a2.67,2.67,0,0,0-.48-1.7,1.7,1.7,0,0,0-1.41-.6,2.67,2.67,0,0,0-1,.16,3.53,3.53,0,0,0-.68.35,4.39,4.39,0,0,0-.46.35.49.49,0,0,1-.3.16.24.24,0,0,1-.14,0,.36.36,0,0,1-.1-.1Zm4.68,3a14.81,14.81,0,0,0-2,.18,5.65,5.65,0,0,0-1.35.38,2,2,0,0,0-.79.57,1.21,1.21,0,0,0-.26.76,1.67,1.67,0,0,0,.13.69,1.36,1.36,0,0,0,.35.48,1.41,1.41,0,0,0,.51.28,2,2,0,0,0,.6.09,3.38,3.38,0,0,0,.85-.1,3.14,3.14,0,0,0,.72-.28,3.51,3.51,0,0,0,.62-.43q.29-.25.57-.54Z"/><path d="M262.89,160.65a4.52,4.52,0,0,1,1.28-1.1,3.18,3.18,0,0,1,1.61-.42,3,3,0,0,1,1.16.21,2.13,2.13,0,0,1,.83.6,2.66,2.66,0,0,1,.5.94,4.29,4.29,0,0,1,.17,1.25v5.09h-.77v-5.09a2.73,2.73,0,0,0-.51-1.76,1.88,1.88,0,0,0-1.56-.64,2.83,2.83,0,0,0-1.45.4,4.1,4.1,0,0,0-1.2,1.1v6h-.77v-8h.42a.21.21,0,0,1,.23.2Z"/><path d="M277.15,155.58v11.64h-.42a.22.22,0,0,1-.24-.21l-.08-1.26a4.24,4.24,0,0,1-1.23,1.14,3,3,0,0,1-1.58.42,2.77,2.77,0,0,1-2.29-1,4.8,4.8,0,0,1-.82-3,5.6,5.6,0,0,1,.23-1.63,3.91,3.91,0,0,1,.67-1.31,3.16,3.16,0,0,1,1.08-.88,3.3,3.3,0,0,1,1.48-.32,3.1,3.1,0,0,1,1.4.3,2.93,2.93,0,0,1,1,.88v-4.72Zm-.76,5.39a2.72,2.72,0,0,0-1-1,3,3,0,0,0-2.5,0,2.42,2.42,0,0,0-.88.72,3.26,3.26,0,0,0-.54,1.12,5.39,5.39,0,0,0-.18,1.44,4.24,4.24,0,0,0,.65,2.61,2.25,2.25,0,0,0,1.88.84,2.64,2.64,0,0,0,1.43-.41,3.9,3.9,0,0,0,1.14-1.14Z"/><path d="M284.61,167.22v-7.13l-1.12-.07c-.15,0-.22-.08-.22-.2v-.31h1.34v-.68a3.82,3.82,0,0,1,.22-1.32,2.69,2.69,0,0,1,.63-1,2.79,2.79,0,0,1,1-.63,3.87,3.87,0,0,1,1.35-.22,3.54,3.54,0,0,1,.54,0,2.34,2.34,0,0,1,.48.12l0,.38s0,.07-.06.07h-.14l-.24,0-.36,0a2.75,2.75,0,0,0-2,.65,2.58,2.58,0,0,0-.69,2v.66H290v7.71h-.76v-7.14h-3.88v7.14Z"/><path d="M293.46,160.65a4.52,4.52,0,0,1,1.28-1.1,3.18,3.18,0,0,1,1.61-.42,3,3,0,0,1,1.16.21,2.13,2.13,0,0,1,.83.6,2.66,2.66,0,0,1,.5.94,4.29,4.29,0,0,1,.17,1.25v5.09h-.77v-5.09a2.73,2.73,0,0,0-.51-1.76,1.88,1.88,0,0,0-1.56-.64,2.83,2.83,0,0,0-1.45.4,4.1,4.1,0,0,0-1.2,1.1v6h-.77v-8h.42a.21.21,0,0,1,.23.2Z"/><path d="M307.73,155.58v11.64h-.42a.22.22,0,0,1-.24-.21l-.08-1.26a4.24,4.24,0,0,1-1.23,1.14,3,3,0,0,1-1.58.42,2.77,2.77,0,0,1-2.29-1,4.8,4.8,0,0,1-.82-3,5.6,5.6,0,0,1,.23-1.63,3.91,3.91,0,0,1,.67-1.31,3.16,3.16,0,0,1,1.08-.88,3.3,3.3,0,0,1,1.48-.32,3.1,3.1,0,0,1,1.4.3,2.93,2.93,0,0,1,1,.88v-4.72ZM307,161a2.72,2.72,0,0,0-1-1,3,3,0,0,0-2.5,0,2.42,2.42,0,0,0-.88.72,3.26,3.26,0,0,0-.54,1.12,5.39,5.39,0,0,0-.18,1.44,4.24,4.24,0,0,0,.65,2.61,2.25,2.25,0,0,0,1.88.84,2.64,2.64,0,0,0,1.43-.41,3.9,3.9,0,0,0,1.14-1.14Z"/><path d="M314.47,160.38a4.64,4.64,0,0,1,1.31-.94,3.66,3.66,0,0,1,1.56-.32,2.83,2.83,0,0,1,1.12.2,2.06,2.06,0,0,1,.8.58,2.55,2.55,0,0,1,.48.92,4.23,4.23,0,0,1,.16,1.2v5.18h-.3a.27.27,0,0,1-.3-.22l-.11-1a8.34,8.34,0,0,1-.65.58,3.89,3.89,0,0,1-.68.43,3.51,3.51,0,0,1-.76.27,3.94,3.94,0,0,1-.9.1,2.64,2.64,0,0,1-.79-.12,2,2,0,0,1-.68-.37,1.78,1.78,0,0,1-.48-.64,2.21,2.21,0,0,1-.18-.93,1.66,1.66,0,0,1,.29-.94,2.37,2.37,0,0,1,.9-.75,6,6,0,0,1,1.58-.51,13.63,13.63,0,0,1,2.32-.22V162a2.67,2.67,0,0,0-.48-1.7,1.7,1.7,0,0,0-1.41-.6,2.67,2.67,0,0,0-1,.16,3.53,3.53,0,0,0-.68.35,4.39,4.39,0,0,0-.46.35.49.49,0,0,1-.3.16.24.24,0,0,1-.14,0,.36.36,0,0,1-.1-.1Zm4.68,3a14.81,14.81,0,0,0-2,.18,5.65,5.65,0,0,0-1.35.38,2,2,0,0,0-.79.57,1.21,1.21,0,0,0-.26.76,1.67,1.67,0,0,0,.13.69,1.36,1.36,0,0,0,.35.48,1.41,1.41,0,0,0,.51.28,2,2,0,0,0,.6.09,3.38,3.38,0,0,0,.85-.1,3.14,3.14,0,0,0,.72-.28,3.51,3.51,0,0,0,.62-.43q.29-.25.57-.54Z"/><path d="M323.28,155.58v11.64h-.77V155.58Z"/><path d="M326.82,155.58v11.64H326V155.58Z"/><path d="M204.78,185.55a6.7,6.7,0,0,1-.39,2.36,5.11,5.11,0,0,1-1.1,1.78,4.79,4.79,0,0,1-1.71,1.13,6,6,0,0,1-2.2.39h-4.14V179.9h4.14a5.94,5.94,0,0,1,2.2.39,4.76,4.76,0,0,1,1.71,1.13,5.09,5.09,0,0,1,1.1,1.78A6.67,6.67,0,0,1,204.78,185.55Zm-.85,0a6.33,6.33,0,0,0-.33-2.11,4.41,4.41,0,0,0-.93-1.57,4,4,0,0,0-1.44-1,5,5,0,0,0-1.86-.34h-3.31v10h3.31a5,5,0,0,0,1.86-.34,4,4,0,0,0,1.44-1,4.4,4.4,0,0,0,.93-1.57A6.36,6.36,0,0,0,203.93,185.55Z"/><path d="M217.46,185.55a6.87,6.87,0,0,1-.39,2.38,5.27,5.27,0,0,1-1.1,1.82,4.87,4.87,0,0,1-1.71,1.17,6,6,0,0,1-4.39,0,4.88,4.88,0,0,1-1.7-1.17,5.27,5.27,0,0,1-1.1-1.82,7.39,7.39,0,0,1,0-4.75,5.27,5.27,0,0,1,1.1-1.82,4.93,4.93,0,0,1,1.7-1.17,5.61,5.61,0,0,1,2.19-.42,5.7,5.7,0,0,1,2.2.41,4.84,4.84,0,0,1,1.71,1.17,5.32,5.32,0,0,1,1.1,1.83A6.84,6.84,0,0,1,217.46,185.55Zm-.85,0a6.46,6.46,0,0,0-.33-2.13,4.54,4.54,0,0,0-.93-1.6,4,4,0,0,0-1.44-1,5.11,5.11,0,0,0-3.7,0,4,4,0,0,0-1.44,1,4.55,4.55,0,0,0-.94,1.6,7,7,0,0,0,0,4.26,4.57,4.57,0,0,0,.94,1.6,4,4,0,0,0,1.44,1,5.16,5.16,0,0,0,3.7,0,4,4,0,0,0,1.44-1,4.56,4.56,0,0,0,.93-1.6A6.44,6.44,0,0,0,216.61,185.55Z"/><path d="M231.25,179.9v11.32h-.71v-9.65a4.24,4.24,0,0,1,0-.44L226.1,189a.35.35,0,0,1-.32.21h-.13a.35.35,0,0,1-.32-.21l-4.58-7.93c0,.16,0,.31,0,.46v9.65h-.72V179.9h.57a.53.53,0,0,1,.18,0,.29.29,0,0,1,.13.13l4.57,7.87a3.27,3.27,0,0,1,.21.48l.1-.25.12-.24,4.44-7.86a.28.28,0,0,1,.13-.13.56.56,0,0,1,.18,0Z"/><path d="M247.1,189.31a.19.19,0,0,1,.14.06l.32.34a5.41,5.41,0,0,1-.76.68,4.62,4.62,0,0,1-.9.51,5.3,5.3,0,0,1-1.08.33,6.7,6.7,0,0,1-1.29.12,5.5,5.5,0,0,1-2.16-.41,4.83,4.83,0,0,1-1.68-1.17,5.28,5.28,0,0,1-1.09-1.83,7,7,0,0,1-.39-2.38,6.64,6.64,0,0,1,.4-2.35,5.39,5.39,0,0,1,1.12-1.83,5,5,0,0,1,1.73-1.18,5.74,5.74,0,0,1,2.22-.42,5.48,5.48,0,0,1,2.06.36,5.57,5.57,0,0,1,1.63,1l-.25.36a.22.22,0,0,1-.2.1.65.65,0,0,1-.31-.18,4.08,4.08,0,0,0-.6-.39,5.13,5.13,0,0,0-1-.39,4.7,4.7,0,0,0-1.37-.18,4.85,4.85,0,0,0-1.88.35,4.13,4.13,0,0,0-1.46,1,4.65,4.65,0,0,0-1,1.6,6.74,6.74,0,0,0,0,4.26,4.68,4.68,0,0,0,1,1.6,4.14,4.14,0,0,0,1.44,1,4.58,4.58,0,0,0,1.79.35,6.55,6.55,0,0,0,1.08-.08,4.17,4.17,0,0,0,.88-.24,3.91,3.91,0,0,0,.74-.39,5.59,5.59,0,0,0,.68-.54l.08-.05Z"/><path d="M252.39,183.13a3.83,3.83,0,0,1,1.53.29,3.12,3.12,0,0,1,1.14.83,3.68,3.68,0,0,1,.71,1.29,6,6,0,0,1,0,3.38,3.69,3.69,0,0,1-.71,1.29,3.09,3.09,0,0,1-1.14.82,4.23,4.23,0,0,1-3.06,0,3.12,3.12,0,0,1-1.14-.82,3.64,3.64,0,0,1-.71-1.29,6,6,0,0,1,0-3.38,3.63,3.63,0,0,1,.71-1.29,3.16,3.16,0,0,1,1.14-.83A3.83,3.83,0,0,1,252.39,183.13Zm0,7.59a3,3,0,0,0,1.24-.24,2.35,2.35,0,0,0,.89-.7,3.09,3.09,0,0,0,.53-1.1,6,6,0,0,0,0-2.88,3.13,3.13,0,0,0-.53-1.11,2.39,2.39,0,0,0-.89-.71,3.24,3.24,0,0,0-2.49,0,2.38,2.38,0,0,0-.89.71,3.18,3.18,0,0,0-.54,1.11,5.88,5.88,0,0,0,0,2.88,3.13,3.13,0,0,0,.54,1.1,2.34,2.34,0,0,0,.89.7A3,3,0,0,0,252.39,190.72Z"/><path d="M258.17,191.22v-8h.42a.21.21,0,0,1,.23.2l.07,1.15a4.14,4.14,0,0,1,1.06-1.07,2.35,2.35,0,0,1,1.35-.41,1.93,1.93,0,0,1,1.4.5,2.62,2.62,0,0,1,.71,1.4,2.78,2.78,0,0,1,.4-.85,2.52,2.52,0,0,1,.6-.6,2.39,2.39,0,0,1,.73-.35,3,3,0,0,1,.81-.11,2.75,2.75,0,0,1,1.06.2,2.08,2.08,0,0,1,.8.58,2.66,2.66,0,0,1,.5.94,4.28,4.28,0,0,1,.18,1.28v5.09h-.76v-5.09a2.74,2.74,0,0,0-.5-1.78,1.76,1.76,0,0,0-1.44-.61,2.12,2.12,0,0,0-.8.15,1.93,1.93,0,0,0-.67.45,2.16,2.16,0,0,0-.46.75,2.89,2.89,0,0,0-.17,1v5.09h-.77v-5.09a2.93,2.93,0,0,0-.46-1.78,1.58,1.58,0,0,0-1.35-.62,2.06,2.06,0,0,0-1.2.38,3.66,3.66,0,0,0-1,1.06v6Z"/><path d="M271.78,184.69a4.22,4.22,0,0,1,1.24-1.14,3,3,0,0,1,1.59-.42,2.77,2.77,0,0,1,2.28,1,4.78,4.78,0,0,1,.82,3,5.61,5.61,0,0,1-.23,1.63,3.87,3.87,0,0,1-.67,1.31,3.21,3.21,0,0,1-1.09.88,3.3,3.3,0,0,1-1.48.32,3.1,3.1,0,0,1-1.4-.3,2.89,2.89,0,0,1-1-.87V194H271V183.26h.42a.21.21,0,0,1,.23.2Zm0,4.79a3.37,3.37,0,0,0,.48.58,2.46,2.46,0,0,0,.53.38,2.18,2.18,0,0,0,.6.21,3.42,3.42,0,0,0,.67.06,2.79,2.79,0,0,0,1.23-.26,2.43,2.43,0,0,0,.88-.72,3.27,3.27,0,0,0,.54-1.12,5.4,5.4,0,0,0,.18-1.44,4.22,4.22,0,0,0-.66-2.61,2.25,2.25,0,0,0-1.88-.84,2.61,2.61,0,0,0-1.43.41,4.07,4.07,0,0,0-1.14,1.14Z"/><path d="M283,183.13a3.83,3.83,0,0,1,1.53.29,3.12,3.12,0,0,1,1.14.83,3.68,3.68,0,0,1,.71,1.29,6,6,0,0,1,0,3.38,3.69,3.69,0,0,1-.71,1.29,3.09,3.09,0,0,1-1.14.82,4.23,4.23,0,0,1-3.06,0,3.12,3.12,0,0,1-1.14-.82,3.64,3.64,0,0,1-.71-1.29,6,6,0,0,1,0-3.38,3.63,3.63,0,0,1,.71-1.29,3.16,3.16,0,0,1,1.14-.83A3.83,3.83,0,0,1,283,183.13Zm0,7.59a3,3,0,0,0,1.24-.24,2.35,2.35,0,0,0,.89-.7,3.09,3.09,0,0,0,.53-1.1,6,6,0,0,0,0-2.88,3.13,3.13,0,0,0-.53-1.11,2.39,2.39,0,0,0-.89-.71,3.24,3.24,0,0,0-2.49,0,2.38,2.38,0,0,0-.89.71,3.18,3.18,0,0,0-.54,1.11,5.88,5.88,0,0,0,0,2.88,3.13,3.13,0,0,0,.54,1.1,2.34,2.34,0,0,0,.89.7A3,3,0,0,0,283,190.72Z"/><path d="M289.53,184.65a4.52,4.52,0,0,1,1.28-1.1,3.18,3.18,0,0,1,1.61-.42,3,3,0,0,1,1.16.21,2.13,2.13,0,0,1,.83.6,2.66,2.66,0,0,1,.5.94,4.29,4.29,0,0,1,.17,1.25v5.09h-.77v-5.09a2.73,2.73,0,0,0-.51-1.76,1.88,1.88,0,0,0-1.56-.64,2.83,2.83,0,0,0-1.45.4,4.1,4.1,0,0,0-1.2,1.1v6h-.77v-8h.42a.21.21,0,0,1,.23.2Z"/><path d="M297.87,186.92v.15a5.4,5.4,0,0,0,.21,1.58,3.23,3.23,0,0,0,.59,1.14,2.44,2.44,0,0,0,.93.69,3.06,3.06,0,0,0,1.22.23,3.64,3.64,0,0,0,1-.13,3.87,3.87,0,0,0,.74-.3,4.14,4.14,0,0,0,.48-.3.53.53,0,0,1,.26-.13.19.19,0,0,1,.16.08l.21.26a2.17,2.17,0,0,1-.51.45,3.62,3.62,0,0,1-.7.36,5.12,5.12,0,0,1-.83.24,4.58,4.58,0,0,1-.89.09,3.8,3.8,0,0,1-1.49-.28,3.16,3.16,0,0,1-1.15-.83,3.78,3.78,0,0,1-.74-1.33,5.75,5.75,0,0,1-.26-1.8,4.9,4.9,0,0,1,.24-1.58,3.6,3.6,0,0,1,.7-1.25,3.2,3.2,0,0,1,1.13-.82,3.7,3.7,0,0,1,1.52-.3,3.31,3.31,0,0,1,1.25.23,2.84,2.84,0,0,1,1,.68,3.18,3.18,0,0,1,.67,1.09,4.21,4.21,0,0,1,.24,1.49.42.42,0,0,1,0,.24.19.19,0,0,1-.16.06Zm5.31-.49a3.42,3.42,0,0,0-.18-1.15,2.43,2.43,0,0,0-.51-.86,2.22,2.22,0,0,0-.78-.54,2.58,2.58,0,0,0-1-.19,3,3,0,0,0-1.1.19,2.42,2.42,0,0,0-.84.55,2.76,2.76,0,0,0-.57.86,4,4,0,0,0-.29,1.13Z"/><path d="M306.67,184.65a4.52,4.52,0,0,1,1.28-1.1,3.18,3.18,0,0,1,1.61-.42,3,3,0,0,1,1.16.21,2.13,2.13,0,0,1,.83.6,2.66,2.66,0,0,1,.5.94,4.29,4.29,0,0,1,.17,1.25v5.09h-.77v-5.09a2.73,2.73,0,0,0-.51-1.76,1.88,1.88,0,0,0-1.56-.64,2.83,2.83,0,0,0-1.45.4,4.1,4.1,0,0,0-1.2,1.1v6h-.77v-8h.42a.21.21,0,0,1,.23.2Z"/><path d="M316.82,191.34a1.71,1.71,0,0,1-1.26-.45,1.87,1.87,0,0,1-.45-1.38v-5.44H314a.21.21,0,0,1-.14,0,.17.17,0,0,1-.06-.14v-.3l1.36-.1.19-2.85a.3.3,0,0,1,.06-.13.17.17,0,0,1,.14-.06h.36v3h2.51v.57h-2.51v5.4a1.68,1.68,0,0,0,.08.56,1.06,1.06,0,0,0,.23.39.9.9,0,0,0,.35.22,1.25,1.25,0,0,0,.43.07,1.33,1.33,0,0,0,.5-.08,2.07,2.07,0,0,0,.36-.18l.25-.18a.27.27,0,0,1,.15-.08.18.18,0,0,1,.13.08l.21.34a2.21,2.21,0,0,1-.77.54A2.41,2.41,0,0,1,316.82,191.34Z"/><path d="M324.5,184.24a.2.2,0,0,1-.18.11.42.42,0,0,1-.22-.1,3.31,3.31,0,0,0-.36-.22,3,3,0,0,0-.56-.22,2.9,2.9,0,0,0-.82-.1,2.37,2.37,0,0,0-.79.12,1.94,1.94,0,0,0-.61.33,1.47,1.47,0,0,0-.39.48,1.3,1.3,0,0,0-.14.58,1,1,0,0,0,.19.62,1.65,1.65,0,0,0,.5.42,3.66,3.66,0,0,0,.71.3l.81.26q.41.13.81.28a3,3,0,0,1,.71.39,1.85,1.85,0,0,1,.5.57,1.62,1.62,0,0,1,.19.82,2.52,2.52,0,0,1-.18,1,2.16,2.16,0,0,1-.54.78,2.6,2.6,0,0,1-.88.52,3.41,3.41,0,0,1-1.19.19,3.57,3.57,0,0,1-1.45-.27,4.07,4.07,0,0,1-1.09-.7l.18-.27a.29.29,0,0,1,.09-.1.26.26,0,0,1,.14,0,.43.43,0,0,1,.25.13,2.77,2.77,0,0,0,.4.28,3.44,3.44,0,0,0,.61.28,2.75,2.75,0,0,0,.9.13,2.57,2.57,0,0,0,.89-.14,1.84,1.84,0,0,0,.64-.38,1.59,1.59,0,0,0,.39-.56,1.79,1.79,0,0,0,.13-.68,1.1,1.1,0,0,0-.19-.66,1.65,1.65,0,0,0-.5-.45,3.48,3.48,0,0,0-.71-.31l-.81-.26q-.42-.13-.81-.28a3,3,0,0,1-.71-.38,1.84,1.84,0,0,1-.5-.56,1.63,1.63,0,0,1-.19-.83,1.89,1.89,0,0,1,.18-.82,2.08,2.08,0,0,1,.52-.69,2.57,2.57,0,0,1,.83-.47,3.22,3.22,0,0,1,1.1-.18,3.72,3.72,0,0,1,1.29.21,3,3,0,0,1,1,.64Z"/><path d="M198,207.13a3.83,3.83,0,0,1,1.53.29,3.12,3.12,0,0,1,1.14.83,3.68,3.68,0,0,1,.71,1.29,6,6,0,0,1,0,3.38,3.69,3.69,0,0,1-.71,1.29,3.09,3.09,0,0,1-1.14.82,4.23,4.23,0,0,1-3.06,0,3.12,3.12,0,0,1-1.14-.82,3.64,3.64,0,0,1-.71-1.29,6,6,0,0,1,0-3.38,3.63,3.63,0,0,1,.71-1.29,3.16,3.16,0,0,1,1.14-.83A3.83,3.83,0,0,1,198,207.13Zm0,7.59a3,3,0,0,0,1.24-.24,2.35,2.35,0,0,0,.89-.7,3.09,3.09,0,0,0,.53-1.1,6,6,0,0,0,0-2.88,3.13,3.13,0,0,0-.53-1.11,2.39,2.39,0,0,0-.89-.71,3.24,3.24,0,0,0-2.49,0,2.38,2.38,0,0,0-.89.71,3.18,3.18,0,0,0-.54,1.11,5.88,5.88,0,0,0,0,2.88,3.13,3.13,0,0,0,.54,1.1,2.34,2.34,0,0,0,.89.7A3,3,0,0,0,198,214.72Z"/><path d="M204.54,208.65a4.52,4.52,0,0,1,1.28-1.1,3.18,3.18,0,0,1,1.61-.42,3,3,0,0,1,1.16.21,2.13,2.13,0,0,1,.83.6,2.66,2.66,0,0,1,.5.94,4.29,4.29,0,0,1,.17,1.25v5.09h-.77v-5.09a2.73,2.73,0,0,0-.51-1.76,1.88,1.88,0,0,0-1.56-.64,2.83,2.83,0,0,0-1.45.4,4.1,4.1,0,0,0-1.2,1.1v6h-.77v-8h.42a.21.21,0,0,1,.23.2Z"/><path d="M217.69,208.69a4.22,4.22,0,0,1,1.24-1.14,3,3,0,0,1,1.59-.42,2.77,2.77,0,0,1,2.28,1,4.78,4.78,0,0,1,.82,3,5.61,5.61,0,0,1-.23,1.63,3.87,3.87,0,0,1-.67,1.31,3.21,3.21,0,0,1-1.09.88,3.3,3.3,0,0,1-1.48.32,3.1,3.1,0,0,1-1.4-.3,2.89,2.89,0,0,1-1-.87V218H217V207.26h.42a.21.21,0,0,1,.23.2Zm0,4.79a3.37,3.37,0,0,0,.48.58,2.46,2.46,0,0,0,.53.38,2.18,2.18,0,0,0,.6.21,3.42,3.42,0,0,0,.67.06,2.79,2.79,0,0,0,1.23-.26,2.43,2.43,0,0,0,.88-.72,3.27,3.27,0,0,0,.54-1.12,5.4,5.4,0,0,0,.18-1.44,4.22,4.22,0,0,0-.66-2.61,2.25,2.25,0,0,0-1.88-.84,2.61,2.61,0,0,0-1.43.41,4.07,4.07,0,0,0-1.14,1.14Z"/><path d="M225.55,208.38a4.64,4.64,0,0,1,1.31-.94,3.66,3.66,0,0,1,1.56-.32,2.83,2.83,0,0,1,1.12.2,2.06,2.06,0,0,1,.8.58,2.55,2.55,0,0,1,.48.92A4.23,4.23,0,0,1,231,210v5.18h-.3a.27.27,0,0,1-.3-.22l-.11-1a8.34,8.34,0,0,1-.65.58,3.89,3.89,0,0,1-.68.43,3.51,3.51,0,0,1-.76.27,3.94,3.94,0,0,1-.9.1,2.64,2.64,0,0,1-.79-.12,2,2,0,0,1-.68-.37,1.78,1.78,0,0,1-.48-.64,2.21,2.21,0,0,1-.18-.93,1.66,1.66,0,0,1,.29-.94,2.37,2.37,0,0,1,.9-.75,6,6,0,0,1,1.58-.51,13.63,13.63,0,0,1,2.32-.22V210a2.67,2.67,0,0,0-.48-1.7,1.7,1.7,0,0,0-1.41-.6,2.67,2.67,0,0,0-1,.16,3.53,3.53,0,0,0-.68.35,4.39,4.39,0,0,0-.46.35.49.49,0,0,1-.3.16.24.24,0,0,1-.14,0,.36.36,0,0,1-.1-.1Zm4.68,3a14.81,14.81,0,0,0-2,.18,5.65,5.65,0,0,0-1.35.38,2,2,0,0,0-.79.57,1.21,1.21,0,0,0-.26.76,1.67,1.67,0,0,0,.13.69,1.36,1.36,0,0,0,.35.48,1.41,1.41,0,0,0,.51.28,2,2,0,0,0,.6.09,3.38,3.38,0,0,0,.85-.1,3.14,3.14,0,0,0,.72-.28,3.51,3.51,0,0,0,.62-.43q.29-.25.57-.54Z"/><path d="M239.93,207.61v.26c0,.12-.08.19-.22.22l-1.22.09a2.35,2.35,0,0,1,.34.68,2.67,2.67,0,0,1,.12.82,2.59,2.59,0,0,1-.2,1,2.28,2.28,0,0,1-.58.8,2.64,2.64,0,0,1-.9.52,3.48,3.48,0,0,1-1.16.18,3.54,3.54,0,0,1-1.24-.21,1.72,1.72,0,0,0-.53.45.86.86,0,0,0-.2.52.62.62,0,0,0,.24.53,1.59,1.59,0,0,0,.64.27,5.55,5.55,0,0,0,.9.11l1,.05q.53,0,1,.1a3.29,3.29,0,0,1,.9.25,1.63,1.63,0,0,1,.64.5,1.39,1.39,0,0,1,.24.86,2,2,0,0,1-.25,1,2.53,2.53,0,0,1-.72.81,3.79,3.79,0,0,1-1.13.56,4.87,4.87,0,0,1-1.49.21,5.65,5.65,0,0,1-1.47-.17,3.5,3.5,0,0,1-1.06-.46,2,2,0,0,1-.64-.68,1.64,1.64,0,0,1-.22-.82,1.54,1.54,0,0,1,.42-1.08,2.77,2.77,0,0,1,1.14-.71,1.55,1.55,0,0,1-.64-.4,1,1,0,0,1-.24-.71,1.07,1.07,0,0,1,.06-.35,1.46,1.46,0,0,1,.19-.36,2,2,0,0,1,.31-.34,2.43,2.43,0,0,1,.42-.29,2.36,2.36,0,0,1-.88-.87,2.49,2.49,0,0,1-.32-1.27,2.58,2.58,0,0,1,.2-1,2.28,2.28,0,0,1,.58-.8,2.64,2.64,0,0,1,.9-.52,3.51,3.51,0,0,1,1.16-.18,3.47,3.47,0,0,1,1,.13,2.89,2.89,0,0,1,.8.36Zm-.83,8.14a.89.89,0,0,0-.2-.6,1.3,1.3,0,0,0-.52-.36,3.11,3.11,0,0,0-.76-.18q-.43-.05-.9-.08l-.94,0a7.57,7.57,0,0,1-.89-.1,3.62,3.62,0,0,0-.56.28,2,2,0,0,0-.44.36,1.6,1.6,0,0,0-.29.44,1.28,1.28,0,0,0,.08,1.16,1.59,1.59,0,0,0,.53.52,3,3,0,0,0,.85.35,4.75,4.75,0,0,0,1.16.13,4.49,4.49,0,0,0,1.13-.14,3.17,3.17,0,0,0,.91-.38,2,2,0,0,0,.61-.59A1.37,1.37,0,0,0,239.1,215.75Zm-3-4.06a2.62,2.62,0,0,0,.91-.15,1.9,1.9,0,0,0,.67-.41,1.77,1.77,0,0,0,.42-.63,2.23,2.23,0,0,0,.14-.82,2.2,2.2,0,0,0-.15-.82,1.79,1.79,0,0,0-.42-.64,1.89,1.89,0,0,0-.67-.41,2.87,2.87,0,0,0-1.8,0,1.89,1.89,0,0,0-.67.41,1.74,1.74,0,0,0-.42.64,2.26,2.26,0,0,0-.14.82,2.23,2.23,0,0,0,.14.82,1.74,1.74,0,0,0,.42.63,2,2,0,0,0,.67.41A2.56,2.56,0,0,0,236.12,211.7Z"/><path d="M241.86,210.92v.15a5.4,5.4,0,0,0,.21,1.58,3.23,3.23,0,0,0,.59,1.14,2.44,2.44,0,0,0,.93.69,3.06,3.06,0,0,0,1.22.23,3.64,3.64,0,0,0,1-.13,3.87,3.87,0,0,0,.74-.3,4.14,4.14,0,0,0,.48-.3.53.53,0,0,1,.26-.13.19.19,0,0,1,.16.08l.21.26a2.17,2.17,0,0,1-.51.45,3.62,3.62,0,0,1-.7.36,5.12,5.12,0,0,1-.83.24,4.58,4.58,0,0,1-.89.09,3.8,3.8,0,0,1-1.49-.28,3.16,3.16,0,0,1-1.15-.83,3.78,3.78,0,0,1-.74-1.33,5.75,5.75,0,0,1-.26-1.8,4.9,4.9,0,0,1,.24-1.58,3.6,3.6,0,0,1,.7-1.25,3.2,3.2,0,0,1,1.13-.82,3.7,3.7,0,0,1,1.52-.3,3.31,3.31,0,0,1,1.25.23,2.84,2.84,0,0,1,1,.68,3.18,3.18,0,0,1,.67,1.09,4.21,4.21,0,0,1,.24,1.49.42.42,0,0,1,0,.24.19.19,0,0,1-.16.06Zm5.31-.49a3.42,3.42,0,0,0-.18-1.15,2.43,2.43,0,0,0-.51-.86,2.22,2.22,0,0,0-.78-.54,2.58,2.58,0,0,0-1-.19,3,3,0,0,0-1.1.19,2.42,2.42,0,0,0-.84.55,2.76,2.76,0,0,0-.57.86,4,4,0,0,0-.29,1.13Z"/><path d="M249.74,214.6a.75.75,0,0,1,.06-.29.72.72,0,0,1,.16-.24.78.78,0,0,1,.23-.16.72.72,0,0,1,.58,0,.76.76,0,0,1,.24.16.78.78,0,0,1,.16.24.71.71,0,0,1,.06.29.69.69,0,0,1-.06.29.79.79,0,0,1-.16.23.73.73,0,0,1-.24.16.75.75,0,0,1-.29.06.72.72,0,0,1-.74-.74Z"/><path d="M401,161.55a6.69,6.69,0,0,1-.39,2.36,5.1,5.1,0,0,1-1.1,1.78,4.79,4.79,0,0,1-1.71,1.13,6,6,0,0,1-2.2.39h-4.14V155.9h4.14a5.94,5.94,0,0,1,2.2.39,4.76,4.76,0,0,1,1.71,1.13,5.08,5.08,0,0,1,1.1,1.78A6.66,6.66,0,0,1,401,161.55Zm-.85,0a6.35,6.35,0,0,0-.33-2.11,4.4,4.4,0,0,0-.93-1.57,4,4,0,0,0-1.44-1,5,5,0,0,0-1.86-.34h-3.31v10h3.31a5,5,0,0,0,1.86-.34,4,4,0,0,0,1.44-1,4.4,4.4,0,0,0,.93-1.57A6.37,6.37,0,0,0,400.15,161.55Z"/><path d="M403.41,162.92v.15a5.4,5.4,0,0,0,.21,1.58,3.23,3.23,0,0,0,.59,1.14,2.44,2.44,0,0,0,.93.69,3.06,3.06,0,0,0,1.22.23,3.64,3.64,0,0,0,1-.13,3.86,3.86,0,0,0,.74-.3,4.15,4.15,0,0,0,.48-.3.53.53,0,0,1,.26-.13.19.19,0,0,1,.16.08l.21.26a2.19,2.19,0,0,1-.51.45,3.6,3.6,0,0,1-.7.36,5.1,5.1,0,0,1-.83.24,4.58,4.58,0,0,1-.89.09,3.8,3.8,0,0,1-1.49-.28,3.16,3.16,0,0,1-1.15-.83,3.76,3.76,0,0,1-.74-1.33,5.74,5.74,0,0,1-.26-1.8,4.9,4.9,0,0,1,.24-1.58,3.6,3.6,0,0,1,.7-1.25,3.2,3.2,0,0,1,1.13-.82,3.7,3.7,0,0,1,1.52-.3,3.31,3.31,0,0,1,1.25.23,2.84,2.84,0,0,1,1,.68,3.2,3.2,0,0,1,.67,1.09,4.22,4.22,0,0,1,.24,1.49.43.43,0,0,1,0,.24.19.19,0,0,1-.16.06Zm5.31-.49a3.42,3.42,0,0,0-.18-1.15,2.43,2.43,0,0,0-.51-.86,2.21,2.21,0,0,0-.78-.54,2.58,2.58,0,0,0-1-.19,3,3,0,0,0-1.1.19,2.42,2.42,0,0,0-.84.55,2.75,2.75,0,0,0-.57.86,4,4,0,0,0-.29,1.13Z"/><path d="M411.93,167.22v-7.13l-1.12-.07c-.15,0-.22-.08-.22-.2v-.31h1.34v-.68a3.8,3.8,0,0,1,.22-1.32,2.68,2.68,0,0,1,.63-1,2.79,2.79,0,0,1,1-.63,3.87,3.87,0,0,1,1.35-.22,3.54,3.54,0,0,1,.54,0,2.34,2.34,0,0,1,.48.12l0,.38s0,.07-.06.07h-.14l-.24,0-.36,0a2.75,2.75,0,0,0-2,.65,2.58,2.58,0,0,0-.69,2v.66h4.66v7.71h-.76v-7.14H412.7v7.14Z"/><path d="M420.79,160.65a4.52,4.52,0,0,1,1.28-1.1,3.18,3.18,0,0,1,1.61-.42,3,3,0,0,1,1.16.21,2.13,2.13,0,0,1,.83.6,2.66,2.66,0,0,1,.5.94,4.31,4.31,0,0,1,.17,1.25v5.09h-.77v-5.09a2.73,2.73,0,0,0-.51-1.76,1.88,1.88,0,0,0-1.56-.64,2.83,2.83,0,0,0-1.45.4,4.09,4.09,0,0,0-1.2,1.1v6h-.77v-8h.42a.21.21,0,0,1,.23.2Z"/><path d="M429.13,162.92v.15a5.4,5.4,0,0,0,.21,1.58,3.23,3.23,0,0,0,.59,1.14,2.44,2.44,0,0,0,.93.69,3.06,3.06,0,0,0,1.22.23,3.64,3.64,0,0,0,1-.13,3.86,3.86,0,0,0,.74-.3,4.15,4.15,0,0,0,.48-.3.53.53,0,0,1,.26-.13.19.19,0,0,1,.16.08l.21.26a2.19,2.19,0,0,1-.51.45,3.6,3.6,0,0,1-.7.36,5.1,5.1,0,0,1-.83.24,4.58,4.58,0,0,1-.89.09,3.8,3.8,0,0,1-1.49-.28,3.16,3.16,0,0,1-1.15-.83,3.76,3.76,0,0,1-.74-1.33,5.74,5.74,0,0,1-.26-1.8,4.9,4.9,0,0,1,.24-1.58,3.6,3.6,0,0,1,.7-1.25,3.2,3.2,0,0,1,1.13-.82,3.7,3.7,0,0,1,1.52-.3,3.31,3.31,0,0,1,1.25.23,2.84,2.84,0,0,1,1,.68,3.2,3.2,0,0,1,.67,1.09,4.22,4.22,0,0,1,.24,1.49.43.43,0,0,1,0,.24.19.19,0,0,1-.16.06Zm5.31-.49a3.42,3.42,0,0,0-.18-1.15,2.43,2.43,0,0,0-.51-.86,2.21,2.21,0,0,0-.78-.54,2.58,2.58,0,0,0-1-.19,3,3,0,0,0-1.1.19,2.42,2.42,0,0,0-.84.55,2.75,2.75,0,0,0-.57.86,4,4,0,0,0-.29,1.13Z"/><path d="M390.87,184.38a4.65,4.65,0,0,1,1.31-.94,3.67,3.67,0,0,1,1.56-.32,2.83,2.83,0,0,1,1.12.2,2.07,2.07,0,0,1,.8.58,2.55,2.55,0,0,1,.48.92,4.23,4.23,0,0,1,.16,1.2v5.18H396a.27.27,0,0,1-.3-.22l-.11-1a8.34,8.34,0,0,1-.65.58,3.89,3.89,0,0,1-.68.43,3.5,3.5,0,0,1-.76.27,4,4,0,0,1-.9.1,2.64,2.64,0,0,1-.79-.12,2,2,0,0,1-.68-.37,1.78,1.78,0,0,1-.48-.64,2.21,2.21,0,0,1-.18-.93,1.65,1.65,0,0,1,.29-.94,2.36,2.36,0,0,1,.9-.75,6,6,0,0,1,1.58-.51,13.62,13.62,0,0,1,2.32-.22V186a2.67,2.67,0,0,0-.48-1.7,1.7,1.7,0,0,0-1.41-.6,2.67,2.67,0,0,0-1,.16,3.53,3.53,0,0,0-.68.35,4.34,4.34,0,0,0-.46.35.49.49,0,0,1-.3.16.25.25,0,0,1-.14,0,.36.36,0,0,1-.1-.1Zm4.68,3a14.83,14.83,0,0,0-2,.18,5.64,5.64,0,0,0-1.35.38,2,2,0,0,0-.79.57,1.2,1.2,0,0,0-.26.76,1.67,1.67,0,0,0,.13.69,1.35,1.35,0,0,0,.35.48,1.41,1.41,0,0,0,.51.28,2,2,0,0,0,.6.09,3.37,3.37,0,0,0,.85-.1,3.15,3.15,0,0,0,.72-.28A3.53,3.53,0,0,0,395,190q.29-.25.57-.54Z"/><path d="M413.08,185.55a6.69,6.69,0,0,1-.39,2.36,5.1,5.1,0,0,1-1.1,1.78,4.79,4.79,0,0,1-1.71,1.13,6,6,0,0,1-2.2.39h-4.14V179.9h4.14a5.94,5.94,0,0,1,2.2.39,4.76,4.76,0,0,1,1.71,1.13,5.08,5.08,0,0,1,1.1,1.78A6.66,6.66,0,0,1,413.08,185.55Zm-.85,0a6.35,6.35,0,0,0-.33-2.11,4.4,4.4,0,0,0-.93-1.57,4,4,0,0,0-1.44-1,5,5,0,0,0-1.86-.34h-3.31v10h3.31a5,5,0,0,0,1.86-.34,4,4,0,0,0,1.44-1,4.4,4.4,0,0,0,.93-1.57A6.37,6.37,0,0,0,412.23,185.55Z"/><path d="M425.76,185.55a6.88,6.88,0,0,1-.39,2.38,5.28,5.28,0,0,1-1.1,1.82,4.87,4.87,0,0,1-1.71,1.17,6,6,0,0,1-4.39,0,4.88,4.88,0,0,1-1.7-1.17,5.26,5.26,0,0,1-1.1-1.82,7.39,7.39,0,0,1,0-4.75,5.26,5.26,0,0,1,1.1-1.82,4.93,4.93,0,0,1,1.7-1.17,5.61,5.61,0,0,1,2.19-.42,5.69,5.69,0,0,1,2.2.41,4.84,4.84,0,0,1,1.71,1.17,5.33,5.33,0,0,1,1.1,1.83A6.86,6.86,0,0,1,425.76,185.55Zm-.85,0a6.46,6.46,0,0,0-.33-2.13,4.55,4.55,0,0,0-.93-1.6,4,4,0,0,0-1.44-1,5.11,5.11,0,0,0-3.7,0,4,4,0,0,0-1.44,1,4.55,4.55,0,0,0-.94,1.6,7,7,0,0,0,0,4.26,4.57,4.57,0,0,0,.94,1.6,4,4,0,0,0,1.44,1,5.16,5.16,0,0,0,3.7,0,4,4,0,0,0,1.44-1,4.56,4.56,0,0,0,.93-1.6A6.44,6.44,0,0,0,424.91,185.55Z"/><path d="M439.55,179.9v11.32h-.71v-9.65a4.37,4.37,0,0,1,0-.44L434.41,189a.35.35,0,0,1-.32.21H434a.35.35,0,0,1-.32-.21l-4.58-7.93c0,.16,0,.31,0,.46v9.65h-.72V179.9h.57a.53.53,0,0,1,.18,0,.28.28,0,0,1,.13.13l4.57,7.87a3.27,3.27,0,0,1,.21.48l.1-.25.12-.24,4.44-7.86a.28.28,0,0,1,.13-.13.56.56,0,0,1,.18,0Z"/><path d="M399.63,213.31a.19.19,0,0,1,.14.06l.32.34a5.44,5.44,0,0,1-.76.68,4.64,4.64,0,0,1-.9.51,5.31,5.31,0,0,1-1.08.33,6.71,6.71,0,0,1-1.29.12,5.5,5.5,0,0,1-2.16-.41,4.82,4.82,0,0,1-1.68-1.17,5.26,5.26,0,0,1-1.09-1.83,7,7,0,0,1-.39-2.38,6.64,6.64,0,0,1,.4-2.35,5.38,5.38,0,0,1,1.12-1.83,5,5,0,0,1,1.73-1.18,5.74,5.74,0,0,1,2.22-.42,5.48,5.48,0,0,1,2.06.36,5.57,5.57,0,0,1,1.63,1l-.25.36a.22.22,0,0,1-.2.1.65.65,0,0,1-.31-.18,4.09,4.09,0,0,0-.6-.39,5.12,5.12,0,0,0-1-.39,4.7,4.7,0,0,0-1.37-.18,4.85,4.85,0,0,0-1.88.35,4.13,4.13,0,0,0-1.46,1,4.66,4.66,0,0,0-1,1.6,6.74,6.74,0,0,0,0,4.26,4.67,4.67,0,0,0,1,1.6,4.14,4.14,0,0,0,1.44,1,4.57,4.57,0,0,0,1.79.35,6.55,6.55,0,0,0,1.08-.08,4.17,4.17,0,0,0,.88-.24,3.91,3.91,0,0,0,.74-.39,5.55,5.55,0,0,0,.68-.54l.08-.05Z"/><path d="M404.91,207.13a3.84,3.84,0,0,1,1.53.29,3.12,3.12,0,0,1,1.14.83,3.67,3.67,0,0,1,.71,1.29,6,6,0,0,1,0,3.38,3.68,3.68,0,0,1-.71,1.29,3.09,3.09,0,0,1-1.14.82,4.23,4.23,0,0,1-3.06,0,3.12,3.12,0,0,1-1.14-.82,3.63,3.63,0,0,1-.71-1.29,6,6,0,0,1,0-3.38,3.62,3.62,0,0,1,.71-1.29,3.15,3.15,0,0,1,1.14-.83A3.83,3.83,0,0,1,404.91,207.13Zm0,7.59a3,3,0,0,0,1.24-.24,2.34,2.34,0,0,0,.89-.7,3.08,3.08,0,0,0,.53-1.1,6,6,0,0,0,0-2.88,3.12,3.12,0,0,0-.53-1.11,2.38,2.38,0,0,0-.89-.71,3.24,3.24,0,0,0-2.49,0,2.38,2.38,0,0,0-.89.71,3.18,3.18,0,0,0-.54,1.11,5.88,5.88,0,0,0,0,2.88,3.13,3.13,0,0,0,.54,1.1,2.34,2.34,0,0,0,.89.7A3,3,0,0,0,404.91,214.72Z"/><path d="M410.69,215.22v-8h.42a.21.21,0,0,1,.23.2l.07,1.15a4.14,4.14,0,0,1,1.06-1.07,2.35,2.35,0,0,1,1.35-.41,1.93,1.93,0,0,1,1.4.5,2.61,2.61,0,0,1,.71,1.4,2.77,2.77,0,0,1,.4-.85,2.52,2.52,0,0,1,.6-.6,2.39,2.39,0,0,1,.73-.35,2.94,2.94,0,0,1,.81-.11,2.75,2.75,0,0,1,1.06.2,2.08,2.08,0,0,1,.8.58,2.66,2.66,0,0,1,.5.94,4.28,4.28,0,0,1,.18,1.28v5.09h-.76v-5.09a2.74,2.74,0,0,0-.5-1.78,1.76,1.76,0,0,0-1.44-.61,2.12,2.12,0,0,0-.8.15,1.93,1.93,0,0,0-.67.45,2.17,2.17,0,0,0-.46.75,2.9,2.9,0,0,0-.17,1v5.09h-.77v-5.09a2.93,2.93,0,0,0-.46-1.78,1.58,1.58,0,0,0-1.35-.62,2.06,2.06,0,0,0-1.2.38,3.66,3.66,0,0,0-1,1.06v6Z"/><path d="M424.31,208.69a4.2,4.2,0,0,1,1.24-1.14,3,3,0,0,1,1.59-.42,2.77,2.77,0,0,1,2.28,1,4.78,4.78,0,0,1,.82,3,5.63,5.63,0,0,1-.23,1.63,3.88,3.88,0,0,1-.67,1.31,3.21,3.21,0,0,1-1.09.88,3.3,3.3,0,0,1-1.48.32,3.1,3.1,0,0,1-1.4-.3,2.88,2.88,0,0,1-1-.87V218h-.77V207.26H424a.21.21,0,0,1,.23.2Zm0,4.79a3.35,3.35,0,0,0,.48.58,2.47,2.47,0,0,0,.53.38,2.19,2.19,0,0,0,.6.21,3.42,3.42,0,0,0,.67.06,2.79,2.79,0,0,0,1.23-.26,2.43,2.43,0,0,0,.88-.72,3.27,3.27,0,0,0,.54-1.12,5.38,5.38,0,0,0,.18-1.44,4.22,4.22,0,0,0-.66-2.61,2.25,2.25,0,0,0-1.88-.84,2.61,2.61,0,0,0-1.43.41,4.06,4.06,0,0,0-1.14,1.14Z"/><path d="M435.55,207.13a3.84,3.84,0,0,1,1.53.29,3.12,3.12,0,0,1,1.14.83,3.67,3.67,0,0,1,.71,1.29,6,6,0,0,1,0,3.38,3.68,3.68,0,0,1-.71,1.29,3.09,3.09,0,0,1-1.14.82,4.23,4.23,0,0,1-3.06,0,3.12,3.12,0,0,1-1.14-.82,3.63,3.63,0,0,1-.71-1.29,6,6,0,0,1,0-3.38,3.62,3.62,0,0,1,.71-1.29,3.15,3.15,0,0,1,1.14-.83A3.83,3.83,0,0,1,435.55,207.13Zm0,7.59a3,3,0,0,0,1.24-.24,2.34,2.34,0,0,0,.89-.7,3.08,3.08,0,0,0,.53-1.1,6,6,0,0,0,0-2.88,3.12,3.12,0,0,0-.53-1.11,2.38,2.38,0,0,0-.89-.71,3.24,3.24,0,0,0-2.49,0,2.38,2.38,0,0,0-.89.71,3.18,3.18,0,0,0-.54,1.11,5.88,5.88,0,0,0,0,2.88,3.13,3.13,0,0,0,.54,1.1,2.34,2.34,0,0,0,.89.7A3,3,0,0,0,435.55,214.72Z"/><path d="M442,208.65a4.52,4.52,0,0,1,1.28-1.1,3.18,3.18,0,0,1,1.61-.42,3,3,0,0,1,1.16.21,2.13,2.13,0,0,1,.83.6,2.66,2.66,0,0,1,.5.94,4.31,4.31,0,0,1,.17,1.25v5.09h-.77v-5.09a2.73,2.73,0,0,0-.51-1.76,1.88,1.88,0,0,0-1.56-.64,2.83,2.83,0,0,0-1.45.4,4.09,4.09,0,0,0-1.2,1.1v6h-.77v-8h.42a.21.21,0,0,1,.23.2Z"/><path d="M450.39,210.92v.15a5.4,5.4,0,0,0,.21,1.58,3.23,3.23,0,0,0,.59,1.14,2.44,2.44,0,0,0,.93.69,3.06,3.06,0,0,0,1.22.23,3.64,3.64,0,0,0,1-.13,3.86,3.86,0,0,0,.74-.3,4.15,4.15,0,0,0,.48-.3.53.53,0,0,1,.26-.13.19.19,0,0,1,.16.08l.21.26a2.19,2.19,0,0,1-.51.45,3.6,3.6,0,0,1-.7.36,5.1,5.1,0,0,1-.83.24,4.58,4.58,0,0,1-.89.09,3.8,3.8,0,0,1-1.49-.28,3.16,3.16,0,0,1-1.15-.83,3.76,3.76,0,0,1-.74-1.33,5.74,5.74,0,0,1-.26-1.8,4.9,4.9,0,0,1,.24-1.58,3.6,3.6,0,0,1,.7-1.25,3.2,3.2,0,0,1,1.13-.82,3.7,3.7,0,0,1,1.52-.3,3.31,3.31,0,0,1,1.25.23,2.84,2.84,0,0,1,1,.68,3.2,3.2,0,0,1,.67,1.09,4.22,4.22,0,0,1,.24,1.49.43.43,0,0,1,0,.24.19.19,0,0,1-.16.06Zm5.31-.49a3.42,3.42,0,0,0-.18-1.15,2.43,2.43,0,0,0-.51-.86,2.21,2.21,0,0,0-.78-.54,2.58,2.58,0,0,0-1-.19,3,3,0,0,0-1.1.19,2.42,2.42,0,0,0-.84.55,2.75,2.75,0,0,0-.57.86,4,4,0,0,0-.29,1.13Z"/><path d="M459.19,208.65a4.51,4.51,0,0,1,1.28-1.1,3.18,3.18,0,0,1,1.61-.42,3,3,0,0,1,1.16.21,2.12,2.12,0,0,1,.83.6,2.66,2.66,0,0,1,.5.94,4.27,4.27,0,0,1,.17,1.25v5.09H464v-5.09a2.72,2.72,0,0,0-.51-1.76,1.88,1.88,0,0,0-1.56-.64,2.83,2.83,0,0,0-1.45.4,4.1,4.1,0,0,0-1.2,1.1v6h-.77v-8h.42a.21.21,0,0,1,.23.2Z"/><path d="M469.34,215.34a1.71,1.71,0,0,1-1.26-.45,1.88,1.88,0,0,1-.45-1.38v-5.44h-1.14a.22.22,0,0,1-.14,0,.17.17,0,0,1-.06-.14v-.3l1.36-.1.19-2.85a.29.29,0,0,1,.06-.13.17.17,0,0,1,.14-.06h.36v3h2.51v.57h-2.51v5.4a1.67,1.67,0,0,0,.08.56,1,1,0,0,0,.23.39.9.9,0,0,0,.35.22,1.24,1.24,0,0,0,.43.07,1.33,1.33,0,0,0,.5-.08,2.06,2.06,0,0,0,.36-.18l.25-.18a.27.27,0,0,1,.15-.08.17.17,0,0,1,.13.08l.21.34a2.2,2.2,0,0,1-.77.54A2.41,2.41,0,0,1,469.34,215.34Z"/><path d="M546.1,161.81a6.71,6.71,0,0,1-.39,2.36,5.11,5.11,0,0,1-1.1,1.78,4.79,4.79,0,0,1-1.71,1.13,6,6,0,0,1-2.2.39h-4.14V156.15h4.14a5.94,5.94,0,0,1,2.2.39,4.76,4.76,0,0,1,1.71,1.13,5.1,5.1,0,0,1,1.1,1.78A6.68,6.68,0,0,1,546.1,161.81Zm-.85,0a6.32,6.32,0,0,0-.33-2.11,4.41,4.41,0,0,0-.93-1.57,4,4,0,0,0-1.44-1,5,5,0,0,0-1.86-.34h-3.31v10h3.31a5,5,0,0,0,1.86-.34,4,4,0,0,0,1.44-1,4.41,4.41,0,0,0,.93-1.57A6.34,6.34,0,0,0,545.25,161.81Z"/><path d="M548.52,163.18v.15a5.4,5.4,0,0,0,.21,1.58,3.23,3.23,0,0,0,.59,1.14,2.44,2.44,0,0,0,.93.69,3.06,3.06,0,0,0,1.22.23,3.64,3.64,0,0,0,1-.13,3.88,3.88,0,0,0,.74-.3,4.12,4.12,0,0,0,.48-.3.54.54,0,0,1,.26-.13.19.19,0,0,1,.16.08l.21.26a2.16,2.16,0,0,1-.51.45,3.63,3.63,0,0,1-.7.36,5.13,5.13,0,0,1-.83.24,4.58,4.58,0,0,1-.89.09,3.8,3.8,0,0,1-1.49-.28,3.16,3.16,0,0,1-1.15-.83,3.79,3.79,0,0,1-.74-1.33,5.77,5.77,0,0,1-.26-1.8,4.9,4.9,0,0,1,.24-1.58,3.61,3.61,0,0,1,.7-1.25,3.2,3.2,0,0,1,1.13-.82,3.7,3.7,0,0,1,1.52-.3,3.31,3.31,0,0,1,1.25.23,2.83,2.83,0,0,1,1,.68,3.17,3.17,0,0,1,.67,1.09,4.19,4.19,0,0,1,.24,1.49.42.42,0,0,1,0,.24.19.19,0,0,1-.16.06Zm5.31-.49a3.42,3.42,0,0,0-.18-1.15,2.42,2.42,0,0,0-.51-.86,2.22,2.22,0,0,0-.78-.54,2.58,2.58,0,0,0-1-.19,3,3,0,0,0-1.1.19,2.42,2.42,0,0,0-.84.55,2.77,2.77,0,0,0-.57.86,4,4,0,0,0-.29,1.13Z"/><path d="M561,160.5a.2.2,0,0,1-.18.11.42.42,0,0,1-.22-.1,3.33,3.33,0,0,0-.36-.22,3,3,0,0,0-.56-.22,2.91,2.91,0,0,0-.82-.1,2.37,2.37,0,0,0-.79.12,1.94,1.94,0,0,0-.61.33,1.47,1.47,0,0,0-.39.48,1.3,1.3,0,0,0-.14.58,1,1,0,0,0,.19.62,1.65,1.65,0,0,0,.5.42,3.65,3.65,0,0,0,.71.3l.81.26q.41.13.81.28a3,3,0,0,1,.71.39,1.85,1.85,0,0,1,.5.57,1.62,1.62,0,0,1,.19.82,2.53,2.53,0,0,1-.18,1,2.16,2.16,0,0,1-.54.78,2.6,2.6,0,0,1-.88.52,3.41,3.41,0,0,1-1.19.19,3.57,3.57,0,0,1-1.45-.27,4.07,4.07,0,0,1-1.09-.7l.18-.27a.29.29,0,0,1,.09-.1.26.26,0,0,1,.14,0,.43.43,0,0,1,.25.13,2.75,2.75,0,0,0,.4.28,3.45,3.45,0,0,0,.61.28,2.75,2.75,0,0,0,.9.13,2.57,2.57,0,0,0,.89-.14,1.84,1.84,0,0,0,.64-.38,1.59,1.59,0,0,0,.39-.56,1.8,1.8,0,0,0,.13-.68,1.1,1.1,0,0,0-.19-.66,1.65,1.65,0,0,0-.5-.45,3.47,3.47,0,0,0-.71-.31l-.81-.26q-.42-.13-.81-.28a3,3,0,0,1-.71-.38,1.84,1.84,0,0,1-.5-.56,1.63,1.63,0,0,1-.19-.83,1.89,1.89,0,0,1,.18-.82,2.09,2.09,0,0,1,.52-.69,2.57,2.57,0,0,1,.83-.47,3.22,3.22,0,0,1,1.1-.18,3.72,3.72,0,0,1,1.29.21,3,3,0,0,1,1,.64Z"/><path d="M568.74,160.57l-.08.07a.16.16,0,0,1-.1,0,.4.4,0,0,1-.22-.11,2.68,2.68,0,0,0-.37-.24,3.12,3.12,0,0,0-.58-.24,2.87,2.87,0,0,0-.84-.11,2.91,2.91,0,0,0-1.22.24,2.46,2.46,0,0,0-.9.7,3.11,3.11,0,0,0-.56,1.1,5.2,5.2,0,0,0-.19,1.46,5.14,5.14,0,0,0,.2,1.49,3.15,3.15,0,0,0,.56,1.09,2.38,2.38,0,0,0,.87.68,2.72,2.72,0,0,0,1.14.23,2.94,2.94,0,0,0,1-.14,3.16,3.16,0,0,0,.64-.3,2.62,2.62,0,0,0,.4-.3.4.4,0,0,1,.24-.14.2.2,0,0,1,.16.08l.2.26a2.34,2.34,0,0,1-.46.45,3.17,3.17,0,0,1-.63.36,3.83,3.83,0,0,1-.76.24,4.25,4.25,0,0,1-.86.08,3.42,3.42,0,0,1-1.39-.28,3,3,0,0,1-1.08-.8,3.75,3.75,0,0,1-.7-1.28,6,6,0,0,1,0-3.39,3.71,3.71,0,0,1,.7-1.3,3.19,3.19,0,0,1,1.13-.84,3.7,3.7,0,0,1,1.53-.3,3.59,3.59,0,0,1,1.38.25,3.4,3.4,0,0,1,1,.67Z"/><path d="M571.66,161.43a5,5,0,0,1,.42-.87,2.76,2.76,0,0,1,.54-.64,2.26,2.26,0,0,1,.69-.4,2.44,2.44,0,0,1,.84-.14,2.71,2.71,0,0,1,.49,0,1.25,1.25,0,0,1,.42.16l-.06.53a.15.15,0,0,1-.15.13,1.19,1.19,0,0,1-.29-.06,2,2,0,0,0-.52-.06,2.22,2.22,0,0,0-.82.14,1.9,1.9,0,0,0-.64.42,2.68,2.68,0,0,0-.5.69,6.61,6.61,0,0,0-.39.95v5.15h-.77v-8h.41a.27.27,0,0,1,.19.06.33.33,0,0,1,.07.19Z"/><path d="M577.76,156.77a.62.62,0,0,1-.06.27.83.83,0,0,1-.16.22.73.73,0,0,1-.22.15.66.66,0,0,1-.27.06.66.66,0,0,1-.27-.06.73.73,0,0,1-.38-.37.65.65,0,0,1-.06-.27.71.71,0,0,1,.21-.5.74.74,0,0,1,.22-.15.68.68,0,0,1,.27-.06.67.67,0,0,1,.27.06.73.73,0,0,1,.22.15.79.79,0,0,1,.16.23A.68.68,0,0,1,577.76,156.77Zm-.33,2.74v8h-.76v-8Z"/><path d="M580.92,160.9a4,4,0,0,1,1.22-1.11,3.16,3.16,0,0,1,1.62-.4,3,3,0,0,1,1.29.26,2.64,2.64,0,0,1,1,.76,3.46,3.46,0,0,1,.6,1.22,6,6,0,0,1,.21,1.64,6.31,6.31,0,0,1-.23,1.76,4,4,0,0,1-.68,1.36,3,3,0,0,1-1.08.87,3.34,3.34,0,0,1-1.46.31,3,3,0,0,1-1.44-.32,2.93,2.93,0,0,1-1-1l-.06,1a.2.2,0,0,1-.22.2h-.46V155.83h.77Zm0,4.84a2.74,2.74,0,0,0,1,1,2.77,2.77,0,0,0,1.25.28,2.84,2.84,0,0,0,1.24-.26,2.39,2.39,0,0,0,.89-.73,3.29,3.29,0,0,0,.53-1.16,6.11,6.11,0,0,0,.18-1.53,4,4,0,0,0-.66-2.48,2.21,2.21,0,0,0-1.84-.83,2.68,2.68,0,0,0-1.48.41,4.12,4.12,0,0,0-1.14,1.14Z"/><path d="M589.24,163.18v.15a5.4,5.4,0,0,0,.21,1.58A3.23,3.23,0,0,0,590,166a2.44,2.44,0,0,0,.93.69,3.06,3.06,0,0,0,1.22.23,3.64,3.64,0,0,0,1-.13,3.86,3.86,0,0,0,.74-.3,4.15,4.15,0,0,0,.48-.3.53.53,0,0,1,.26-.13.19.19,0,0,1,.16.08l.21.26a2.19,2.19,0,0,1-.51.45,3.6,3.6,0,0,1-.7.36,5.1,5.1,0,0,1-.83.24,4.58,4.58,0,0,1-.89.09,3.8,3.8,0,0,1-1.49-.28,3.16,3.16,0,0,1-1.15-.83,3.76,3.76,0,0,1-.74-1.33,5.74,5.74,0,0,1-.26-1.8,4.9,4.9,0,0,1,.24-1.58,3.6,3.6,0,0,1,.7-1.25,3.2,3.2,0,0,1,1.13-.82,3.7,3.7,0,0,1,1.52-.3,3.31,3.31,0,0,1,1.25.23,2.84,2.84,0,0,1,1,.68,3.2,3.2,0,0,1,.67,1.09,4.22,4.22,0,0,1,.24,1.49.43.43,0,0,1,0,.24.19.19,0,0,1-.16.06Zm5.31-.49a3.42,3.42,0,0,0-.18-1.15,2.43,2.43,0,0,0-.51-.86,2.21,2.21,0,0,0-.78-.54,2.58,2.58,0,0,0-1-.19,3,3,0,0,0-1.1.19,2.42,2.42,0,0,0-.84.55,2.75,2.75,0,0,0-.57.86,4,4,0,0,0-.29,1.13Z"/><path d="M601.43,160.64a4.64,4.64,0,0,1,1.31-.94,3.66,3.66,0,0,1,1.56-.32,2.83,2.83,0,0,1,1.12.2,2.06,2.06,0,0,1,.8.58,2.56,2.56,0,0,1,.48.92,4.23,4.23,0,0,1,.16,1.2v5.18h-.3a.27.27,0,0,1-.3-.22l-.11-1a8.34,8.34,0,0,1-.65.58,3.89,3.89,0,0,1-.68.43,3.51,3.51,0,0,1-.76.27,3.94,3.94,0,0,1-.9.1,2.63,2.63,0,0,1-.79-.12,2,2,0,0,1-.68-.37,1.79,1.79,0,0,1-.48-.64,2.2,2.2,0,0,1-.18-.93,1.66,1.66,0,0,1,.29-.94,2.37,2.37,0,0,1,.9-.75,6,6,0,0,1,1.58-.51,13.64,13.64,0,0,1,2.32-.22v-.83a2.67,2.67,0,0,0-.48-1.7,1.7,1.7,0,0,0-1.41-.6,2.67,2.67,0,0,0-1,.16,3.54,3.54,0,0,0-.68.35,4.44,4.44,0,0,0-.46.35.49.49,0,0,1-.3.16.24.24,0,0,1-.14,0,.36.36,0,0,1-.1-.1Zm4.68,3a14.8,14.8,0,0,0-2,.18,5.65,5.65,0,0,0-1.35.38,2,2,0,0,0-.79.57,1.21,1.21,0,0,0-.26.76,1.67,1.67,0,0,0,.13.69,1.36,1.36,0,0,0,.35.48,1.4,1.4,0,0,0,.51.28,2,2,0,0,0,.6.09,3.38,3.38,0,0,0,.85-.1,3.14,3.14,0,0,0,.72-.28,3.49,3.49,0,0,0,.62-.43c.19-.17.38-.34.57-.54Z"/><path d="M542.4,179.83v11.64H542a.22.22,0,0,1-.24-.21l-.08-1.26a4.24,4.24,0,0,1-1.23,1.14,3,3,0,0,1-1.58.42,2.77,2.77,0,0,1-2.29-1,4.8,4.8,0,0,1-.82-3,5.6,5.6,0,0,1,.23-1.63,3.93,3.93,0,0,1,.67-1.31,3.16,3.16,0,0,1,1.08-.88,3.3,3.3,0,0,1,1.48-.32,3.1,3.1,0,0,1,1.4.3,2.93,2.93,0,0,1,1,.88v-4.72Zm-.76,5.39a2.72,2.72,0,0,0-1-1,3,3,0,0,0-2.5,0,2.42,2.42,0,0,0-.88.72,3.26,3.26,0,0,0-.54,1.12,5.39,5.39,0,0,0-.18,1.44,4.24,4.24,0,0,0,.65,2.61,2.25,2.25,0,0,0,1.88.84,2.64,2.64,0,0,0,1.43-.41,3.9,3.9,0,0,0,1.14-1.14Z"/><path d="M544.8,184.64a4.65,4.65,0,0,1,1.31-.94,3.67,3.67,0,0,1,1.56-.32,2.83,2.83,0,0,1,1.12.2,2.07,2.07,0,0,1,.8.58,2.55,2.55,0,0,1,.48.92,4.23,4.23,0,0,1,.16,1.2v5.18h-.3a.27.27,0,0,1-.3-.22l-.11-1a8.34,8.34,0,0,1-.65.58,3.89,3.89,0,0,1-.68.43,3.5,3.5,0,0,1-.76.27,4,4,0,0,1-.9.1,2.64,2.64,0,0,1-.79-.12,2,2,0,0,1-.68-.37,1.78,1.78,0,0,1-.48-.64,2.21,2.21,0,0,1-.18-.93,1.65,1.65,0,0,1,.29-.94,2.36,2.36,0,0,1,.9-.75,6,6,0,0,1,1.58-.51,13.62,13.62,0,0,1,2.32-.22v-.83a2.67,2.67,0,0,0-.48-1.7,1.7,1.7,0,0,0-1.41-.6,2.67,2.67,0,0,0-1,.16,3.53,3.53,0,0,0-.68.35,4.34,4.34,0,0,0-.46.35.49.49,0,0,1-.3.16.25.25,0,0,1-.14,0,.36.36,0,0,1-.1-.1Zm4.68,3a14.83,14.83,0,0,0-2,.18,5.64,5.64,0,0,0-1.35.38,2,2,0,0,0-.79.57,1.2,1.2,0,0,0-.26.76,1.67,1.67,0,0,0,.13.69,1.35,1.35,0,0,0,.35.48,1.41,1.41,0,0,0,.51.28,2,2,0,0,0,.6.09,3.37,3.37,0,0,0,.85-.1,3.15,3.15,0,0,0,.72-.28,3.53,3.53,0,0,0,.62-.43q.29-.25.57-.54Z"/><path d="M554.85,191.6a1.71,1.71,0,0,1-1.26-.45,1.87,1.87,0,0,1-.45-1.38v-5.44H552a.21.21,0,0,1-.14,0,.17.17,0,0,1-.06-.14v-.3l1.36-.1.19-2.85a.3.3,0,0,1,.06-.13.17.17,0,0,1,.14-.06h.36v3h2.51v.57h-2.51v5.4a1.7,1.7,0,0,0,.08.56,1.06,1.06,0,0,0,.23.39.91.91,0,0,0,.35.22,1.25,1.25,0,0,0,.43.07,1.34,1.34,0,0,0,.5-.08,2.09,2.09,0,0,0,.36-.18l.25-.18a.27.27,0,0,1,.15-.08.18.18,0,0,1,.13.08l.21.34a2.21,2.21,0,0,1-.77.54A2.41,2.41,0,0,1,554.85,191.6Z"/><path d="M557.93,184.64a4.64,4.64,0,0,1,1.31-.94,3.66,3.66,0,0,1,1.56-.32,2.83,2.83,0,0,1,1.12.2,2.06,2.06,0,0,1,.8.58,2.56,2.56,0,0,1,.48.92,4.23,4.23,0,0,1,.16,1.2v5.18h-.3a.27.27,0,0,1-.3-.22l-.11-1a8.34,8.34,0,0,1-.65.58,3.89,3.89,0,0,1-.68.43,3.51,3.51,0,0,1-.76.27,3.94,3.94,0,0,1-.9.1,2.63,2.63,0,0,1-.79-.12,2,2,0,0,1-.68-.37,1.79,1.79,0,0,1-.48-.64,2.2,2.2,0,0,1-.18-.93,1.66,1.66,0,0,1,.29-.94,2.37,2.37,0,0,1,.9-.75,6,6,0,0,1,1.58-.51,13.64,13.64,0,0,1,2.32-.22v-.83a2.67,2.67,0,0,0-.48-1.7,1.7,1.7,0,0,0-1.41-.6,2.67,2.67,0,0,0-1,.16,3.54,3.54,0,0,0-.68.35,4.44,4.44,0,0,0-.46.35.49.49,0,0,1-.3.16.24.24,0,0,1-.14,0,.36.36,0,0,1-.1-.1Zm4.68,3a14.8,14.8,0,0,0-2,.18,5.65,5.65,0,0,0-1.35.38,2,2,0,0,0-.79.57,1.21,1.21,0,0,0-.26.76,1.67,1.67,0,0,0,.13.69,1.36,1.36,0,0,0,.35.48,1.4,1.4,0,0,0,.51.28,2,2,0,0,0,.6.09,3.38,3.38,0,0,0,.85-.1,3.14,3.14,0,0,0,.72-.28,3.49,3.49,0,0,0,.62-.43c.19-.17.38-.34.57-.54Z"/><path d="M570.25,191.47v-8h.42a.21.21,0,0,1,.23.2l.07,1.15a4.14,4.14,0,0,1,1.06-1.07,2.34,2.34,0,0,1,1.35-.41,1.93,1.93,0,0,1,1.4.5,2.62,2.62,0,0,1,.71,1.4,2.79,2.79,0,0,1,.4-.85,2.52,2.52,0,0,1,.6-.6,2.39,2.39,0,0,1,.73-.35,3,3,0,0,1,.81-.11,2.74,2.74,0,0,1,1.06.2,2.08,2.08,0,0,1,.8.58,2.67,2.67,0,0,1,.5.94,4.28,4.28,0,0,1,.18,1.28v5.09h-.76v-5.09a2.74,2.74,0,0,0-.5-1.78,1.76,1.76,0,0,0-1.44-.61,2.12,2.12,0,0,0-.8.15,1.92,1.92,0,0,0-.67.45,2.16,2.16,0,0,0-.46.75,2.88,2.88,0,0,0-.17,1v5.09H575v-5.09a2.93,2.93,0,0,0-.46-1.78,1.58,1.58,0,0,0-1.35-.62,2.06,2.06,0,0,0-1.2.38,3.66,3.66,0,0,0-1,1.06v6Z"/><path d="M586.28,183.38a3.83,3.83,0,0,1,1.53.29,3.12,3.12,0,0,1,1.14.83,3.69,3.69,0,0,1,.71,1.29,6,6,0,0,1,0,3.38,3.7,3.7,0,0,1-.71,1.29,3.09,3.09,0,0,1-1.14.82,4.23,4.23,0,0,1-3.06,0,3.12,3.12,0,0,1-1.14-.82,3.66,3.66,0,0,1-.71-1.29,6,6,0,0,1,0-3.38,3.65,3.65,0,0,1,.71-1.29,3.16,3.16,0,0,1,1.14-.83A3.83,3.83,0,0,1,586.28,183.38Zm0,7.59a3,3,0,0,0,1.24-.24,2.35,2.35,0,0,0,.89-.7,3.09,3.09,0,0,0,.53-1.1,6,6,0,0,0,0-2.88,3.14,3.14,0,0,0-.53-1.11,2.39,2.39,0,0,0-.89-.71,3.24,3.24,0,0,0-2.49,0,2.38,2.38,0,0,0-.89.71,3.18,3.18,0,0,0-.54,1.11,5.88,5.88,0,0,0,0,2.88,3.13,3.13,0,0,0,.54,1.1,2.34,2.34,0,0,0,.89.7A3,3,0,0,0,586.28,191Z"/><path d="M598.24,179.83v11.64h-.42a.22.22,0,0,1-.24-.21l-.08-1.26a4.24,4.24,0,0,1-1.23,1.14,3,3,0,0,1-1.58.42,2.77,2.77,0,0,1-2.29-1,4.8,4.8,0,0,1-.82-3,5.6,5.6,0,0,1,.23-1.63,3.93,3.93,0,0,1,.67-1.31,3.16,3.16,0,0,1,1.08-.88,3.3,3.3,0,0,1,1.48-.32,3.1,3.1,0,0,1,1.4.3,2.93,2.93,0,0,1,1,.88v-4.72Zm-.76,5.39a2.72,2.72,0,0,0-1-1,3,3,0,0,0-2.5,0,2.42,2.42,0,0,0-.88.72,3.26,3.26,0,0,0-.54,1.12,5.39,5.39,0,0,0-.18,1.44,4.24,4.24,0,0,0,.65,2.61,2.25,2.25,0,0,0,1.88.84,2.64,2.64,0,0,0,1.43-.41,3.9,3.9,0,0,0,1.14-1.14Z"/><path d="M601.14,187.18v.15a5.4,5.4,0,0,0,.21,1.58,3.23,3.23,0,0,0,.59,1.14,2.44,2.44,0,0,0,.93.69,3.06,3.06,0,0,0,1.22.23,3.64,3.64,0,0,0,1-.13,3.86,3.86,0,0,0,.74-.3,4.15,4.15,0,0,0,.48-.3.53.53,0,0,1,.26-.13.19.19,0,0,1,.16.08l.21.26a2.19,2.19,0,0,1-.51.45,3.6,3.6,0,0,1-.7.36,5.1,5.1,0,0,1-.83.24,4.58,4.58,0,0,1-.89.09,3.8,3.8,0,0,1-1.49-.28,3.16,3.16,0,0,1-1.15-.83,3.76,3.76,0,0,1-.74-1.33,5.74,5.74,0,0,1-.26-1.8,4.9,4.9,0,0,1,.24-1.58,3.6,3.6,0,0,1,.7-1.25,3.2,3.2,0,0,1,1.13-.82,3.7,3.7,0,0,1,1.52-.3,3.31,3.31,0,0,1,1.25.23,2.84,2.84,0,0,1,1,.68,3.2,3.2,0,0,1,.67,1.09,4.22,4.22,0,0,1,.24,1.49.43.43,0,0,1,0,.24.19.19,0,0,1-.16.06Zm5.31-.49a3.42,3.42,0,0,0-.18-1.15,2.43,2.43,0,0,0-.51-.86,2.21,2.21,0,0,0-.78-.54,2.58,2.58,0,0,0-1-.19,3,3,0,0,0-1.1.19,2.42,2.42,0,0,0-.84.55,2.75,2.75,0,0,0-.57.86,4,4,0,0,0-.29,1.13Z"/><path d="M610.05,179.83v11.64h-.77V179.83Z"/><path d="M684.93,155.9a6.5,6.5,0,0,1,1.68.19,3.2,3.2,0,0,1,1.18.56,2.28,2.28,0,0,1,.69.91,3.13,3.13,0,0,1,.22,1.22,2.45,2.45,0,0,1-.16.86,2.69,2.69,0,0,1-.45.77,2.83,2.83,0,0,1-.72.61,3.48,3.48,0,0,1-1,.4,3.61,3.61,0,0,1,2.05.88,2.42,2.42,0,0,1,.72,1.82,3.16,3.16,0,0,1-.26,1.3,2.61,2.61,0,0,1-.74,1,3.41,3.41,0,0,1-1.2.61,5.66,5.66,0,0,1-1.62.21h-3.67V155.9Zm-2.43.65v4.65h2.45a4,4,0,0,0,1.34-.2,2.66,2.66,0,0,0,.91-.53,2.06,2.06,0,0,0,.52-.74,2.26,2.26,0,0,0,.17-.86,2.1,2.1,0,0,0-.72-1.73,3.52,3.52,0,0,0-2.24-.59Zm2.84,10a3.42,3.42,0,0,0,2.25-.64,2.24,2.24,0,0,0,.76-1.81,2.2,2.2,0,0,0-.2-1,2,2,0,0,0-.59-.73,2.73,2.73,0,0,0-.94-.46,4.61,4.61,0,0,0-1.27-.16H682.5v4.77Z"/><path d="M697.41,159.26v8H697a.21.21,0,0,1-.23-.21l-.07-1.18a4.51,4.51,0,0,1-1.28,1.1,3.17,3.17,0,0,1-1.61.42,3,3,0,0,1-1.16-.21,2.13,2.13,0,0,1-.82-.6,2.66,2.66,0,0,1-.5-.94,4.27,4.27,0,0,1-.17-1.25v-5.09h.77v5.09a2.72,2.72,0,0,0,.51,1.76,1.88,1.88,0,0,0,1.56.64,2.83,2.83,0,0,0,1.45-.4,4.09,4.09,0,0,0,1.2-1.1v-6Z"/><path d="M701.2,156.51a.61.61,0,0,1-.06.27.81.81,0,0,1-.16.22.72.72,0,0,1-.22.15.68.68,0,0,1-.54,0A.73.73,0,0,1,700,157a.75.75,0,0,1-.15-.22.65.65,0,0,1-.06-.27.71.71,0,0,1,.06-.28A.72.72,0,0,1,700,156a.73.73,0,0,1,.22-.15.69.69,0,0,1,.54,0,.73.73,0,0,1,.22.15.77.77,0,0,1,.16.23A.66.66,0,0,1,701.2,156.51Zm-.33,2.74v8h-.76v-8Z"/><path d="M704.42,155.58v11.64h-.77V155.58Z"/><path d="M713.31,155.58v11.64h-.42a.22.22,0,0,1-.24-.21l-.08-1.26a4.24,4.24,0,0,1-1.23,1.14,3,3,0,0,1-1.58.42,2.77,2.77,0,0,1-2.29-1,4.8,4.8,0,0,1-.82-3,5.6,5.6,0,0,1,.23-1.63,3.89,3.89,0,0,1,.67-1.31,3.16,3.16,0,0,1,1.08-.88,3.3,3.3,0,0,1,1.48-.32,3.1,3.1,0,0,1,1.4.3,2.93,2.93,0,0,1,1,.88v-4.72Zm-.76,5.39a2.72,2.72,0,0,0-1-1,3,3,0,0,0-2.5,0,2.43,2.43,0,0,0-.88.72,3.26,3.26,0,0,0-.54,1.12,5.39,5.39,0,0,0-.18,1.44,4.24,4.24,0,0,0,.65,2.61,2.25,2.25,0,0,0,1.88.84,2.64,2.64,0,0,0,1.43-.41,3.89,3.89,0,0,0,1.14-1.14Z"/><path d="M681.09,184.38a4.65,4.65,0,0,1,1.31-.94,3.67,3.67,0,0,1,1.56-.32,2.83,2.83,0,0,1,1.12.2,2.07,2.07,0,0,1,.8.58,2.55,2.55,0,0,1,.48.92,4.23,4.23,0,0,1,.16,1.2v5.18h-.3a.27.27,0,0,1-.3-.22l-.11-1a8.34,8.34,0,0,1-.65.58,3.89,3.89,0,0,1-.68.43,3.5,3.5,0,0,1-.76.27,4,4,0,0,1-.9.1,2.64,2.64,0,0,1-.79-.12,2,2,0,0,1-.68-.37,1.78,1.78,0,0,1-.48-.64,2.21,2.21,0,0,1-.18-.93,1.65,1.65,0,0,1,.29-.94,2.36,2.36,0,0,1,.9-.75,6,6,0,0,1,1.58-.51,13.62,13.62,0,0,1,2.32-.22V186a2.67,2.67,0,0,0-.48-1.7,1.7,1.7,0,0,0-1.41-.6,2.67,2.67,0,0,0-1,.16,3.53,3.53,0,0,0-.68.35,4.34,4.34,0,0,0-.46.35.49.49,0,0,1-.3.16.25.25,0,0,1-.14,0,.36.36,0,0,1-.1-.1Zm4.68,3a14.83,14.83,0,0,0-2,.18,5.64,5.64,0,0,0-1.35.38,2,2,0,0,0-.79.57,1.2,1.2,0,0,0-.26.76,1.67,1.67,0,0,0,.13.69,1.35,1.35,0,0,0,.35.48,1.41,1.41,0,0,0,.51.28,2,2,0,0,0,.6.09,3.37,3.37,0,0,0,.85-.1,3.15,3.15,0,0,0,.72-.28,3.53,3.53,0,0,0,.62-.43q.29-.25.57-.54Z"/><path d="M701.57,191.22h-.7a.53.53,0,0,1-.23,0,.44.44,0,0,1-.17-.16l-3.63-4.59-.13-.15a.52.52,0,0,0-.15-.1l-.2-.05-.28,0h-1.48v5.12h-.82V179.9h2.9a4.72,4.72,0,0,1,2.92.76,2.64,2.64,0,0,1,1,2.22,3.06,3.06,0,0,1-.22,1.18,2.78,2.78,0,0,1-.64.94,3.37,3.37,0,0,1-1,.66,4.85,4.85,0,0,1-1.34.34,1.31,1.31,0,0,1,.34.32Zm-5-5.73a4.65,4.65,0,0,0,1.35-.18,2.91,2.91,0,0,0,1-.52,2.23,2.23,0,0,0,.63-.81,2.52,2.52,0,0,0,.22-1.06,2.09,2.09,0,0,0-.79-1.79,3.83,3.83,0,0,0-2.3-.58h-2.07v4.94Z"/><path d="M702.88,186.92v.15a5.4,5.4,0,0,0,.21,1.58,3.23,3.23,0,0,0,.59,1.14,2.44,2.44,0,0,0,.93.69,3.06,3.06,0,0,0,1.22.23,3.64,3.64,0,0,0,1-.13,3.86,3.86,0,0,0,.74-.3,4.15,4.15,0,0,0,.48-.3.53.53,0,0,1,.26-.13.19.19,0,0,1,.16.08l.21.26a2.19,2.19,0,0,1-.51.45,3.6,3.6,0,0,1-.7.36,5.1,5.1,0,0,1-.83.24,4.58,4.58,0,0,1-.89.09,3.8,3.8,0,0,1-1.49-.28,3.16,3.16,0,0,1-1.15-.83,3.76,3.76,0,0,1-.74-1.33,5.74,5.74,0,0,1-.26-1.8,4.9,4.9,0,0,1,.24-1.58,3.6,3.6,0,0,1,.7-1.25,3.2,3.2,0,0,1,1.13-.82,3.7,3.7,0,0,1,1.52-.3,3.31,3.31,0,0,1,1.25.23,2.84,2.84,0,0,1,1,.68,3.2,3.2,0,0,1,.67,1.09,4.22,4.22,0,0,1,.24,1.49.43.43,0,0,1,0,.24.19.19,0,0,1-.16.06Zm5.31-.49a3.42,3.42,0,0,0-.18-1.15,2.43,2.43,0,0,0-.51-.86,2.21,2.21,0,0,0-.78-.54,2.58,2.58,0,0,0-1-.19,3,3,0,0,0-1.1.19,2.42,2.42,0,0,0-.84.55,2.75,2.75,0,0,0-.57.86,4,4,0,0,0-.29,1.13Z"/><path d="M710.73,184.38a4.65,4.65,0,0,1,1.31-.94,3.67,3.67,0,0,1,1.56-.32,2.83,2.83,0,0,1,1.12.2,2.07,2.07,0,0,1,.8.58,2.55,2.55,0,0,1,.48.92,4.23,4.23,0,0,1,.16,1.2v5.18h-.3a.27.27,0,0,1-.3-.22l-.11-1a8.34,8.34,0,0,1-.65.58,3.89,3.89,0,0,1-.68.43,3.5,3.5,0,0,1-.76.27,4,4,0,0,1-.9.1,2.64,2.64,0,0,1-.79-.12,2,2,0,0,1-.68-.37,1.78,1.78,0,0,1-.48-.64,2.21,2.21,0,0,1-.18-.93,1.65,1.65,0,0,1,.29-.94,2.36,2.36,0,0,1,.9-.75,6,6,0,0,1,1.58-.51,13.62,13.62,0,0,1,2.32-.22V186a2.67,2.67,0,0,0-.48-1.7,1.7,1.7,0,0,0-1.41-.6,2.67,2.67,0,0,0-1,.16,3.53,3.53,0,0,0-.68.35,4.34,4.34,0,0,0-.46.35.49.49,0,0,1-.3.16.25.25,0,0,1-.14,0,.36.36,0,0,1-.1-.1Zm4.68,3a14.83,14.83,0,0,0-2,.18,5.64,5.64,0,0,0-1.35.38,2,2,0,0,0-.79.57,1.2,1.2,0,0,0-.26.76,1.67,1.67,0,0,0,.13.69,1.35,1.35,0,0,0,.35.48,1.41,1.41,0,0,0,.51.28,2,2,0,0,0,.6.09,3.37,3.37,0,0,0,.85-.1,3.15,3.15,0,0,0,.72-.28,3.53,3.53,0,0,0,.62-.43q.29-.25.57-.54Z"/><path d="M724,184.32l-.08.07a.16.16,0,0,1-.1,0,.4.4,0,0,1-.22-.11,2.63,2.63,0,0,0-.37-.24,3.11,3.11,0,0,0-.58-.24,2.87,2.87,0,0,0-.84-.11,2.91,2.91,0,0,0-1.22.24,2.48,2.48,0,0,0-.9.7,3.11,3.11,0,0,0-.56,1.1,5.24,5.24,0,0,0-.19,1.46,5.14,5.14,0,0,0,.2,1.49,3.17,3.17,0,0,0,.56,1.09,2.37,2.37,0,0,0,.87.68,2.72,2.72,0,0,0,1.14.23,2.94,2.94,0,0,0,1-.14,3.15,3.15,0,0,0,.64-.3,2.69,2.69,0,0,0,.4-.3.4.4,0,0,1,.24-.14.2.2,0,0,1,.16.08l.2.26a2.34,2.34,0,0,1-.46.45,3.16,3.16,0,0,1-.63.36,3.85,3.85,0,0,1-.76.24,4.26,4.26,0,0,1-.86.08,3.41,3.41,0,0,1-1.39-.28,3,3,0,0,1-1.08-.8,3.74,3.74,0,0,1-.7-1.28,6,6,0,0,1,0-3.39,3.73,3.73,0,0,1,.7-1.3,3.18,3.18,0,0,1,1.13-.84,3.69,3.69,0,0,1,1.53-.3,3.58,3.58,0,0,1,1.38.25,3.38,3.38,0,0,1,1,.67Z"/><path d="M728.42,191.34a1.71,1.71,0,0,1-1.26-.45,1.88,1.88,0,0,1-.45-1.38v-5.44h-1.14a.22.22,0,0,1-.14,0,.17.17,0,0,1-.06-.14v-.3l1.36-.1.19-2.85a.29.29,0,0,1,.06-.13.17.17,0,0,1,.14-.06h.36v3H730v.57h-2.51v5.4a1.67,1.67,0,0,0,.08.56,1,1,0,0,0,.23.39.9.9,0,0,0,.35.22,1.24,1.24,0,0,0,.43.07,1.33,1.33,0,0,0,.5-.08,2.06,2.06,0,0,0,.36-.18l.25-.18a.27.27,0,0,1,.15-.08.17.17,0,0,1,.13.08l.21.34a2.2,2.2,0,0,1-.77.54A2.41,2.41,0,0,1,728.42,191.34Z"/><path d="M689.84,213.31a.19.19,0,0,1,.14.06l.32.34a5.44,5.44,0,0,1-.76.68,4.64,4.64,0,0,1-.9.51,5.31,5.31,0,0,1-1.08.33,6.71,6.71,0,0,1-1.29.12,5.5,5.5,0,0,1-2.16-.41,4.82,4.82,0,0,1-1.68-1.17,5.26,5.26,0,0,1-1.09-1.83,7,7,0,0,1-.39-2.38,6.64,6.64,0,0,1,.4-2.35,5.38,5.38,0,0,1,1.12-1.83,5,5,0,0,1,1.73-1.18,5.74,5.74,0,0,1,2.22-.42,5.48,5.48,0,0,1,2.06.36,5.57,5.57,0,0,1,1.63,1l-.25.36a.22.22,0,0,1-.2.1.65.65,0,0,1-.31-.18,4.09,4.09,0,0,0-.6-.39,5.12,5.12,0,0,0-1-.39,4.7,4.7,0,0,0-1.37-.18,4.85,4.85,0,0,0-1.88.35,4.13,4.13,0,0,0-1.46,1,4.66,4.66,0,0,0-1,1.6,6.74,6.74,0,0,0,0,4.26,4.67,4.67,0,0,0,1,1.6,4.14,4.14,0,0,0,1.44,1,4.57,4.57,0,0,0,1.79.35,6.55,6.55,0,0,0,1.08-.08,4.17,4.17,0,0,0,.88-.24,3.91,3.91,0,0,0,.74-.39,5.55,5.55,0,0,0,.68-.54l.08-.05Z"/><path d="M695.13,207.13a3.84,3.84,0,0,1,1.53.29,3.12,3.12,0,0,1,1.14.83,3.67,3.67,0,0,1,.71,1.29,6,6,0,0,1,0,3.38,3.68,3.68,0,0,1-.71,1.29,3.09,3.09,0,0,1-1.14.82,4.23,4.23,0,0,1-3.06,0,3.12,3.12,0,0,1-1.14-.82,3.63,3.63,0,0,1-.71-1.29,6,6,0,0,1,0-3.38,3.62,3.62,0,0,1,.71-1.29,3.15,3.15,0,0,1,1.14-.83A3.83,3.83,0,0,1,695.13,207.13Zm0,7.59a3,3,0,0,0,1.24-.24,2.34,2.34,0,0,0,.89-.7,3.08,3.08,0,0,0,.53-1.1,6,6,0,0,0,0-2.88,3.12,3.12,0,0,0-.53-1.11,2.38,2.38,0,0,0-.89-.71,3.24,3.24,0,0,0-2.49,0,2.38,2.38,0,0,0-.89.71,3.18,3.18,0,0,0-.54,1.11,5.88,5.88,0,0,0,0,2.88,3.13,3.13,0,0,0,.54,1.1,2.34,2.34,0,0,0,.89.7A3,3,0,0,0,695.13,214.72Z"/><path d="M700.9,215.22v-8h.42a.21.21,0,0,1,.23.2l.07,1.15a4.14,4.14,0,0,1,1.06-1.07,2.35,2.35,0,0,1,1.35-.41,1.93,1.93,0,0,1,1.4.5,2.61,2.61,0,0,1,.71,1.4,2.77,2.77,0,0,1,.4-.85,2.52,2.52,0,0,1,.6-.6,2.39,2.39,0,0,1,.73-.35,2.94,2.94,0,0,1,.81-.11,2.75,2.75,0,0,1,1.06.2,2.08,2.08,0,0,1,.8.58,2.66,2.66,0,0,1,.5.94,4.28,4.28,0,0,1,.18,1.28v5.09h-.76v-5.09a2.74,2.74,0,0,0-.5-1.78,1.76,1.76,0,0,0-1.44-.61,2.12,2.12,0,0,0-.8.15,1.93,1.93,0,0,0-.67.45,2.17,2.17,0,0,0-.46.75,2.9,2.9,0,0,0-.17,1v5.09h-.77v-5.09a2.93,2.93,0,0,0-.46-1.78,1.58,1.58,0,0,0-1.35-.62,2.06,2.06,0,0,0-1.2.38,3.66,3.66,0,0,0-1,1.06v6Z"/><path d="M714.52,208.69a4.2,4.2,0,0,1,1.24-1.14,3,3,0,0,1,1.59-.42,2.77,2.77,0,0,1,2.28,1,4.78,4.78,0,0,1,.82,3,5.63,5.63,0,0,1-.23,1.63,3.88,3.88,0,0,1-.67,1.31,3.21,3.21,0,0,1-1.09.88,3.3,3.3,0,0,1-1.48.32,3.1,3.1,0,0,1-1.4-.3,2.88,2.88,0,0,1-1-.87V218h-.77V207.26h.42a.21.21,0,0,1,.23.2Zm0,4.79a3.35,3.35,0,0,0,.48.58,2.47,2.47,0,0,0,.53.38,2.19,2.19,0,0,0,.6.21,3.42,3.42,0,0,0,.67.06,2.79,2.79,0,0,0,1.23-.26,2.43,2.43,0,0,0,.88-.72,3.27,3.27,0,0,0,.54-1.12,5.38,5.38,0,0,0,.18-1.44,4.22,4.22,0,0,0-.66-2.61,2.25,2.25,0,0,0-1.88-.84,2.61,2.61,0,0,0-1.43.41,4.06,4.06,0,0,0-1.14,1.14Z"/><path d="M725.76,207.13a3.84,3.84,0,0,1,1.53.29,3.12,3.12,0,0,1,1.14.83,3.67,3.67,0,0,1,.71,1.29,6,6,0,0,1,0,3.38,3.68,3.68,0,0,1-.71,1.29,3.09,3.09,0,0,1-1.14.82,4.23,4.23,0,0,1-3.06,0,3.12,3.12,0,0,1-1.14-.82,3.63,3.63,0,0,1-.71-1.29,6,6,0,0,1,0-3.38,3.62,3.62,0,0,1,.71-1.29,3.15,3.15,0,0,1,1.14-.83A3.83,3.83,0,0,1,725.76,207.13Zm0,7.59a3,3,0,0,0,1.24-.24,2.34,2.34,0,0,0,.89-.7,3.08,3.08,0,0,0,.53-1.1,6,6,0,0,0,0-2.88,3.12,3.12,0,0,0-.53-1.11A2.38,2.38,0,0,0,727,208a3.24,3.24,0,0,0-2.49,0,2.38,2.38,0,0,0-.89.71,3.18,3.18,0,0,0-.54,1.11,5.88,5.88,0,0,0,0,2.88,3.13,3.13,0,0,0,.54,1.1,2.34,2.34,0,0,0,.89.7A3,3,0,0,0,725.76,214.72Z"/><path d="M732.26,208.65a4.52,4.52,0,0,1,1.28-1.1,3.18,3.18,0,0,1,1.61-.42,3,3,0,0,1,1.16.21,2.13,2.13,0,0,1,.83.6,2.66,2.66,0,0,1,.5.94,4.31,4.31,0,0,1,.17,1.25v5.09H737v-5.09a2.73,2.73,0,0,0-.51-1.76,1.88,1.88,0,0,0-1.56-.64,2.83,2.83,0,0,0-1.45.4,4.09,4.09,0,0,0-1.2,1.1v6h-.77v-8H732a.21.21,0,0,1,.23.2Z"/><path d="M740.61,210.92v.15a5.4,5.4,0,0,0,.21,1.58,3.23,3.23,0,0,0,.59,1.14,2.44,2.44,0,0,0,.93.69,3.06,3.06,0,0,0,1.22.23,3.64,3.64,0,0,0,1-.13,3.86,3.86,0,0,0,.74-.3,4.15,4.15,0,0,0,.48-.3.53.53,0,0,1,.26-.13.19.19,0,0,1,.16.08l.21.26a2.19,2.19,0,0,1-.51.45,3.6,3.6,0,0,1-.7.36,5.1,5.1,0,0,1-.83.24,4.58,4.58,0,0,1-.89.09A3.8,3.8,0,0,1,742,215a3.16,3.16,0,0,1-1.15-.83,3.76,3.76,0,0,1-.74-1.33,5.74,5.74,0,0,1-.26-1.8,4.9,4.9,0,0,1,.24-1.58,3.6,3.6,0,0,1,.7-1.25,3.2,3.2,0,0,1,1.13-.82,3.7,3.7,0,0,1,1.52-.3,3.31,3.31,0,0,1,1.25.23,2.84,2.84,0,0,1,1,.68,3.2,3.2,0,0,1,.67,1.09,4.22,4.22,0,0,1,.24,1.49.43.43,0,0,1,0,.24.19.19,0,0,1-.16.06Zm5.31-.49a3.42,3.42,0,0,0-.18-1.15,2.43,2.43,0,0,0-.51-.86,2.21,2.21,0,0,0-.78-.54,2.58,2.58,0,0,0-1-.19,3,3,0,0,0-1.1.19,2.42,2.42,0,0,0-.84.55,2.75,2.75,0,0,0-.57.86,4,4,0,0,0-.29,1.13Z"/><path d="M749.41,208.65a4.51,4.51,0,0,1,1.28-1.1,3.18,3.18,0,0,1,1.61-.42,3,3,0,0,1,1.16.21,2.12,2.12,0,0,1,.83.6,2.66,2.66,0,0,1,.5.94,4.27,4.27,0,0,1,.17,1.25v5.09h-.77v-5.09a2.72,2.72,0,0,0-.51-1.76,1.88,1.88,0,0,0-1.56-.64,2.83,2.83,0,0,0-1.45.4,4.1,4.1,0,0,0-1.2,1.1v6h-.77v-8h.42a.21.21,0,0,1,.23.2Z"/><path d="M759.55,215.34a1.71,1.71,0,0,1-1.26-.45,1.88,1.88,0,0,1-.45-1.38v-5.44H756.7a.22.22,0,0,1-.14,0,.17.17,0,0,1-.06-.14v-.3l1.36-.1.19-2.85a.29.29,0,0,1,.06-.13.17.17,0,0,1,.14-.06h.36v3h2.51v.57h-2.51v5.4a1.67,1.67,0,0,0,.08.56,1,1,0,0,0,.23.39.9.9,0,0,0,.35.22,1.24,1.24,0,0,0,.43.07,1.33,1.33,0,0,0,.5-.08,2.06,2.06,0,0,0,.36-.18l.25-.18a.27.27,0,0,1,.15-.08.17.17,0,0,1,.13.08l.21.34a2.2,2.2,0,0,1-.77.54A2.41,2.41,0,0,1,759.55,215.34Z"/><line x1="191.94" y1="30" x2="132.76" y2="30" fill="none" stroke="#000" stroke-miterlimit="10" stroke-width="1.5"/><polygon points="186.97 23.86 185.95 24.96 191.37 30 185.95 35.03 186.97 36.13 193.57 30 186.97 23.86"/><polygon points="137.73 23.86 138.75 24.96 133.33 30 138.75 35.03 137.73 36.13 131.13 30 137.73 23.86"/><line x1="389.79" y1="30" x2="327.2" y2="30" fill="none" stroke="#000" stroke-miterlimit="10" stroke-width="1.5"/><polygon points="332.17 23.86 333.19 24.96 327.77 30 333.19 35.03 332.17 36.13 325.57 30 332.17 23.86"/><line x1="534.89" y1="30" x2="471.41" y2="30" fill="none" stroke="#000" stroke-miterlimit="10" stroke-width="1.5"/><polygon points="476.38 23.86 477.41 24.96 471.99 30 477.41 35.03 476.38 36.13 469.79 30 476.38 23.86"/><line x1="469.79" y1="106.74" x2="678.37" y2="106.74" fill="none" stroke="#000" stroke-miterlimit="10" stroke-width="1.5"/><polygon points="673.4 112.87 672.38 111.77 677.8 106.74 672.38 101.7 673.4 100.6 680 106.74 673.4 112.87"/></svg>